<?xml version="1.0" encoding="UTF-8"?>
<svg id="_レイヤー_1" data-name="レイヤー 1" xmlns="http://www.w3.org/2000/svg" viewBox="0 0 100 100">
  <defs>
    <style>
      .cls-1 {
        fill: #153d26;
      }
    </style>
  </defs>
  <path id="feather-pointed-solid" class="cls-1" d="m52.92,43.22L10.14,85.98c-1.72,1.41-1.97,3.96-.56,5.68s3.96,1.97,5.68.56c.2-.17.39-.35.56-.56l12.52-12.52c1.24.78,2.58,1.37,3.99,1.76,10.46,2.75,21.6.85,30.56-5.22,1.07-.7,1.38-2.13.68-3.21-.47-.72-1.3-1.13-2.16-1.05h-2.7c-.85.01-1.55-.66-1.57-1.52-.01-.7.45-1.32,1.12-1.51l16.36-4.9c.57-.16,1.07-.52,1.41-1.01.74-1.07,1.44-2.16,2.11-3.28.72-1.22.31-2.78-.91-3.5-.41-.24-.88-.36-1.35-.35h-6.47c-.85.01-1.55-.66-1.57-1.52-.01-.7.45-1.32,1.12-1.51l13.55-4.07c.78-.23,1.4-.81,1.71-1.56,4.14-10.72,6.76-21.97,7.78-33.42.2-3.18-2.21-5.91-5.39-6.12-.25-.02-.49-.02-.74,0-14.03,1.14-41.34,6.75-56.58,22-10.3,9.57-14.56,24.01-11.09,37.64.29.92,1.27,1.43,2.19,1.15.3-.1.58-.27.79-.51l27.57-27.51c1.03-1.05,2.73-1.07,3.78-.04.9.89,1.06,2.29.38,3.35l.02-.03Z"/>
</svg>