<?xml version="1.0" encoding="UTF-8"?>
<svg id="_レイヤー_1" data-name="レイヤー 1" xmlns="http://www.w3.org/2000/svg" viewBox="0 0 100 100">
  <defs>
    <style>
      .cls-1 {
        fill: #fff;
      }

      .cls-2 {
        fill: #153d26;
      }
    </style>
  </defs>
  <g id="feather-pointed-solid">
    <path class="cls-1" d="m52.92,43.22L10.14,85.98c-1.72,1.41-1.97,3.96-.56,5.68,1.41,1.72,3.96,1.97,5.68.56.2-.17.39-.35.56-.56l12.52-12.52c1.24.78,2.58,1.37,3.99,1.76,10.46,2.75,21.6.85,30.56-5.22,1.07-.7,1.38-2.13.68-3.21-.47-.72-1.3-1.13-2.16-1.05h-2.7c-.85.01-1.55-.66-1.57-1.52-.01-.7.45-1.32,1.12-1.51l16.36-4.9c.57-.16,1.07-.52,1.41-1.01.74-1.07,1.44-2.16,2.11-3.28.72-1.22.31-2.78-.91-3.5-.41-.24-.88-.36-1.35-.35h-6.47c-.85.01-1.55-.66-1.57-1.52-.01-.7.45-1.32,1.12-1.51l13.55-4.07c.78-.23,1.4-.81,1.71-1.56,4.14-10.72,6.76-21.97,7.78-33.42.2-3.18-2.21-5.91-5.39-6.12-.25-.02-.49-.02-.74,0-14.03,1.14-41.34,6.75-56.58,22-10.3,9.57-14.56,24.01-11.09,37.64.29.92,1.27,1.43,2.19,1.15.3-.1.58-.27.79-.51l27.57-27.51c1.03-1.05,2.73-1.07,3.78-.04.9.89,1.06,2.29.38,3.35l.02-.03Z"/>
    <path class="cls-2" d="m51.85,42.16c-2.74,2.74-5.49,5.49-8.23,8.23-5.67,5.67-11.35,11.35-17.02,17.02-4.88,4.88-9.76,9.76-14.64,14.63-.95.95-1.88,1.9-2.84,2.84-1.61,1.57-2.43,3.78-1.66,6,1.02,2.91,4.28,4.47,7.17,3.39,1.32-.49,2.22-1.53,3.18-2.49l3.58-3.58c2.51-2.51,5.01-5.01,7.52-7.52l.47-.47-1.82.23c3.28,2,7.13,2.71,10.92,3.05s7.3.11,10.88-.59,7.19-1.96,10.48-3.67c2.64-1.37,7.2-3.65,5.08-7.36-.77-1.34-2.11-1.91-3.6-1.94-.69-.01-1.92.27-2.53,0-.28-.12-.09-.06.16-.17.49-.22,1.09-.33,1.6-.48l11.56-3.47c.96-.29,1.93-.54,2.87-.86,1.74-.59,2.56-2.03,3.5-3.5s1.8-2.83,1.34-4.57c-.42-1.58-1.81-2.77-3.42-2.97-.66-.08-1.35-.04-2.01-.04h-3.22c-.28,0-1.58.2-1.79,0-.14-.13.3-.18.46-.23l2.02-.61,6.13-1.84c1.53-.46,3.06-.9,4.58-1.38,2.87-.9,3.44-3.61,4.34-6.19,2.78-7.9,4.74-16.08,5.87-24.37.46-3.35,1.52-7.35-.55-10.36-1.81-2.64-4.62-3.38-7.66-3.09-11.18,1.06-22.37,3.63-32.82,7.77-11.93,4.72-23.86,12.01-30.6,23.28-3.5,5.85-5.45,12.6-5.65,19.41-.1,3.49.28,7,1.08,10.4.65,2.72,3.55,3.82,5.66,1.83,4.44-4.17,8.64-8.62,12.95-12.92,4.76-4.75,9.44-9.61,14.3-14.26.09-.09.18-.2.28-.28,1.11-.88,2.5.24,1.8,1.5-.94,1.69,1.6,3.17,2.59,1.51l.02-.03c1-1.66-1.6-3.17-2.59-1.51l-.02.03,2.59,1.51c1.61-2.89-.43-6.66-3.91-6.35-1.27.11-2.2.82-3.07,1.68l-5.46,5.45-17.07,17.03-2.95,2.95c-.49.49-.96,1.1-1.51,1.51-.31.23-.39.35-.63-.06-.34-.58-.38-1.64-.5-2.3-.16-.89-.3-1.78-.39-2.68-.34-3.29-.27-6.65.29-9.92,1.1-6.48,3.88-12.66,8.12-17.69,4.01-4.76,9-8.68,14.36-11.82,10.29-6.02,22-9.58,33.68-11.7,2.36-.43,4.73-.8,7.11-1.08,2.23-.26,4.91-.94,6.78.68,1.13.98,1.53,2.36,1.43,3.81-.15,2.03-.42,4.06-.71,6.07-.58,3.99-1.35,7.95-2.32,11.86s-2.12,7.78-3.47,11.58c-.4,1.12-.74,3.29-1.91,3.8-.36.16-.78.23-1.15.35l-10.87,3.26c-1.47.44-3.07.8-3.57,2.5-.41,1.42.25,2.94,1.57,3.6.71.35,1.47.32,2.23.32,1.79,0,3.61-.1,5.4,0,1.25.07,1.52.95.93,1.97s-1.35,2.78-2.44,3.24c-.98.41-2.1.63-3.12.94l-5.85,1.75-5.43,1.63c-1.02.31-2.37.53-3.17,1.28-1.15,1.08-1.27,2.96-.25,4.17.77.9,1.79,1.1,2.92,1.1.74,0,1.74-.18,2.46,0,.59.14.9.76.56,1.29-.38.6-1.51,1.06-2.12,1.41-6.21,3.68-13.44,5.39-20.64,4.94-3.57-.22-7.34-.83-10.44-2.71-.57-.35-1.35-.23-1.82.23-4.09,4.09-8.22,8.14-12.27,12.27-.25.26-.49.57-.78.78-1.1.83-2.72.6-3.56-.5-.99-1.31-.39-2.7.65-3.7s2-2,3-3c10.13-10.13,20.27-20.26,30.4-30.39,3.08-3.08,6.17-6.17,9.25-9.25,1.37-1.37-.75-3.49-2.12-2.12Z"/>
  </g>
</svg>