<svg xmlns="http://www.w3.org/2000/svg" width="155.144" height="160.777" viewBox="0 0 155.144 160.777">
  <g id="グループ_937" data-name="グループ 937" transform="translate(-20.428 -2774.146)">
    <g id="楕円形_236" data-name="楕円形 236" transform="matrix(0.999, 0.035, -0.035, 0.999, 25.663, 2775.428)" fill="none" stroke="#fff" stroke-linecap="round" stroke-width="3" stroke-dasharray="0 26">
      <circle cx="75" cy="75" r="75" stroke="none"/>
      <circle cx="75" cy="75" r="73.5" fill="none"/>
    </g>
    <g id="グループ_931" data-name="グループ 931" transform="translate(-89.408 -160.84)">
      <path id="パス_2202" data-name="パス 2202" d="M10.506,10.386c.061,5.7-5.142,10.272-5.142,10.272S.062,15.977,0,10.272,5.143,0,5.143,0s5.3,4.682,5.363,10.386" transform="matrix(0.174, 0.985, -0.985, 0.174, 196.55, 2934.986)" fill="#e0815e"/>
      <path id="パス_2203" data-name="パス 2203" d="M10.506,10.386c.061,5.7-5.142,10.272-5.142,10.272S.062,15.977,0,10.272,5.143,0,5.143,0s5.3,4.682,5.363,10.386" transform="translate(196.426 3081.509) rotate(79)" fill="#e0815e"/>
      <path id="パス_2204" data-name="パス 2204" d="M10.506,10.386c.061,5.7-5.142,10.272-5.142,10.272S.062,15.977,0,10.272,5.143,0,5.143,0s5.3,4.682,5.363,10.386" transform="translate(125.874 2969.469) rotate(43)" fill="#e0815e"/>
      <path id="パス_2205" data-name="パス 2205" d="M10.506,10.386c.061,5.7-5.142,10.272-5.142,10.272S.062,15.977,0,10.272,5.143,0,5.143,0s5.3,4.682,5.363,10.386" transform="translate(255.111 3037.855) rotate(43)" fill="#e0815e"/>
      <path id="パス_2206" data-name="パス 2206" d="M10.506,10.386c.061,5.7-5.142,10.272-5.142,10.272S.062,15.977,0,10.272,5.143,0,5.143,0s5.3,4.682,5.363,10.386" transform="translate(262.724 2984.767) rotate(138)" fill="#e0815e"/>
      <path id="パス_2207" data-name="パス 2207" d="M10.506,10.386c.061,5.7-5.142,10.272-5.142,10.272S.062,15.977,0,10.272,5.143,0,5.143,0s5.3,4.682,5.363,10.386" transform="translate(133.486 3053.154) rotate(138)" fill="#e0815e"/>
    </g>
  </g>
</svg>
