<svg xmlns="http://www.w3.org/2000/svg" xmlns:xlink="http://www.w3.org/1999/xlink" width="480" height="270" viewBox="0 0 480 270">
  <defs>
    <clipPath id="clip-path">
      <rect id="長方形_735" data-name="長方形 735" width="480" height="270" rx="20" transform="translate(70 4213)" fill="#dce697"/>
    </clipPath>
    <clipPath id="clip-path-2">
      <rect id="長方形_722" data-name="長方形 722" width="99.815" height="96.468" fill="#153d26"/>
    </clipPath>
    <clipPath id="clip-path-3">
      <path id="パス_2402" data-name="パス 2402" d="M84.486,19.432,120.667-.984,34.311,211.6l-36.18,20.416Z" fill="#738d60"/>
    </clipPath>
    <clipPath id="clip-path-4">
      <path id="パス_2429" data-name="パス 2429" d="M38.766,19.45,60.162.1,21.752,192.586.356,211.936Z" fill="#b6cc29"/>
    </clipPath>
  </defs>
  <g id="マスクグループ_3" data-name="マスクグループ 3" transform="translate(-70 -4213)" clip-path="url(#clip-path)">
    <g id="グループ_1232" data-name="グループ 1232">
      <g id="グループ_1230" data-name="グループ 1230">
        <rect id="長方形_713" data-name="長方形 713" width="480" height="270" rx="20" transform="translate(70 4213)" fill="#dce697"/>
        <g id="グループ_1229" data-name="グループ 1229" transform="translate(-13.138 3.107)">
          <path id="パス_2479" data-name="パス 2479" d="M3.08-2.52A1.208,1.208,0,0,0,1.88-1.2,1.229,1.229,0,0,0,3.08.12H37A1.229,1.229,0,0,0,38.2-1.2,1.208,1.208,0,0,0,37-2.52H29.88l-.36-11.52c-.08-2.6-1.44-3.96-4.44-3.96H17.72c.64-3.04,1.12-6.08,1.6-9.16H34.84a1.229,1.229,0,0,0,1.2-1.32,1.208,1.208,0,0,0-1.2-1.32H5.32a1.208,1.208,0,0,0-1.2,1.32,1.229,1.229,0,0,0,1.2,1.32H16.28c-.48,3.08-1.04,6.12-1.6,9.16H8.24a1.2,1.2,0,0,0-1.2,1.28,1.208,1.208,0,0,0,1.2,1.32h5.92C13.24-11.08,12.24-6.76,11-2.52Zm10.96,0C15.2-6.8,16.32-11.08,17.2-15.4h7.2c1.8,0,2.16.4,2.2,1.96l.28,10.92Zm53.72-8.76v9.04C67.76-1,67.2-.6,66-.6a7.62,7.62,0,0,1-2.08-.24,2.008,2.008,0,0,0-.48-.08A1.409,1.409,0,0,0,62.04.56,1.5,1.5,0,0,0,63.16,2a11.313,11.313,0,0,0,3,.32c3.24,0,4.56-1.24,4.56-4.2v-25.8c0-2.8-1.28-4.28-5-4.28H55.28c-3.72,0-5,1.48-5,4.28v7.4c0,11.12-2.4,16.44-7.16,20.48a1.583,1.583,0,0,0-.64,1.24,1.334,1.334,0,0,0,1.36,1.28,1.708,1.708,0,0,0,1.04-.4,21.554,21.554,0,0,0,7.68-13.6Zm-14.8-2.56c.16-1.92.24-3.84.28-5.76v-.8H67.76v6.56Zm.28-9.12v-4.36c0-1.52.48-2,2.68-2h9.16c2.2,0,2.68.48,2.68,2v4.36Zm38.4-7.08c.28-.52.56-1.04.8-1.52a1.524,1.524,0,0,0,.16-.68,1.342,1.342,0,0,0-1.4-1.28,1.38,1.38,0,0,0-1.32.88,28.16,28.16,0,0,1-6.96,9.44,1.637,1.637,0,0,0-.68,1.2,1.206,1.206,0,0,0,1.24,1.16,1.789,1.789,0,0,0,1.08-.44,34.751,34.751,0,0,0,5.6-6.4H95c.8,0,1.2.16,1.2.52a1.5,1.5,0,0,1-.2.6,21.533,21.533,0,0,1-2.04,3.08,16.254,16.254,0,0,0-2.4-1.8,1.8,1.8,0,0,0-.84-.24,1.212,1.212,0,0,0-1.28,1.12,1.3,1.3,0,0,0,.72,1.12,21.854,21.854,0,0,1,2.24,1.64c-.68.72-1.36,1.4-2.08,2.04a19.694,19.694,0,0,0-2.52-1.84,1.8,1.8,0,0,0-.84-.24,1.212,1.212,0,0,0-1.28,1.12,1.277,1.277,0,0,0,.76,1.12c.52.36,1.2.84,1.96,1.48a30.324,30.324,0,0,1-5.76,3.56,1.516,1.516,0,0,0-1.04,1.28,1.206,1.206,0,0,0,1.24,1.16,2.136,2.136,0,0,0,.8-.2C89.68-15,95.6-20.28,98.52-25.6a3.737,3.737,0,0,0,.56-1.92c0-1.52-1.36-2.52-3.64-2.52Zm12.04-.16c-.28-.56-.52-1.16-.76-1.76a1.4,1.4,0,0,0-1.28-.96,1.293,1.293,0,0,0-1.36,1.2,1.381,1.381,0,0,0,.12.52,35.339,35.339,0,0,0,15.76,17.56,1.947,1.947,0,0,0,.88.24,1.459,1.459,0,0,0,1.44-1.44,1.54,1.54,0,0,0-.96-1.4,32.336,32.336,0,0,1-6.72-4.6A19.239,19.239,0,0,0,115.2-26a3.283,3.283,0,0,0,.52-1.72c0-1.44-1.28-2.48-3.32-2.48Zm8.04,2.4c.6,0,.88.16.88.48a1.075,1.075,0,0,1-.16.52,15.525,15.525,0,0,1-3.48,4.16A30.515,30.515,0,0,1,105-27.8ZM98.6-8.2V-.8C98.6.28,98.28.48,97.44.48a8.7,8.7,0,0,1-1.92-.2,1.354,1.354,0,0,0-1.68,1.36,1.461,1.461,0,0,0,1.24,1.4,9.591,9.591,0,0,0,2.4.24c2.72,0,3.96-.88,3.96-3.76V-8.2h14.28a1.132,1.132,0,0,0,1.16-1.24,1.12,1.12,0,0,0-1.16-1.2H84.04a1.143,1.143,0,0,0-1.16,1.2A1.154,1.154,0,0,0,84.04-8.2ZM90.92-6A25.3,25.3,0,0,1,83.96-.64,1.491,1.491,0,0,0,83,.72a1.255,1.255,0,0,0,1.28,1.24,1.947,1.947,0,0,0,.88-.24A30.506,30.506,0,0,0,93-4.16a1.559,1.559,0,0,0,.44-1.04,1.4,1.4,0,0,0-1.4-1.32A1.606,1.606,0,0,0,90.92-6Zm17.84.04a1.728,1.728,0,0,0-1.12-.48,1.286,1.286,0,0,0-1.32,1.2,1.322,1.322,0,0,0,.44.96,35.55,35.55,0,0,0,7.52,5.64,1.658,1.658,0,0,0,.8.24A1.459,1.459,0,0,0,116.52.16a1.451,1.451,0,0,0-.92-1.28A29.441,29.441,0,0,1,108.76-5.96ZM93.12-16.72a1.154,1.154,0,0,0-1.16,1.24,1.176,1.176,0,0,0,1.16,1.24h14.92a1.152,1.152,0,0,0,1.16-1.24,1.132,1.132,0,0,0-1.16-1.24Zm34.4,18.8a1.366,1.366,0,0,0,2.72,0V-14.16c1.04-.12,2.08-.28,3.08-.44a7.509,7.509,0,0,1,.48,1.2,1.279,1.279,0,0,0,1.2.92,1.408,1.408,0,0,0,1.4-1.36,1.57,1.57,0,0,0-.12-.56,18.628,18.628,0,0,0-2.8-4.8,1.206,1.206,0,0,0-1-.48,1.184,1.184,0,0,0-1.2,1.08,1.29,1.29,0,0,0,.24.72,9.8,9.8,0,0,1,.72,1.16c-1.52.2-3.08.36-4.6.44a83.614,83.614,0,0,0,6.24-9.6,1.947,1.947,0,0,0,.24-.88,1.339,1.339,0,0,0-1.36-1.32,1.335,1.335,0,0,0-1.24.84c-.68,1.44-1.6,3.08-2.56,4.72-.6-.72-1.16-1.48-1.8-2.16a46.644,46.644,0,0,0,3.28-6.64,1.989,1.989,0,0,0,.12-.64,1.349,1.349,0,0,0-1.4-1.32,1.324,1.324,0,0,0-1.24.92,42.385,42.385,0,0,1-2.56,5.8,8.237,8.237,0,0,0-.64-.6,1.583,1.583,0,0,0-.92-.36,1.246,1.246,0,0,0-1.24,1.24,1.441,1.441,0,0,0,.6,1.12,42.18,42.18,0,0,1,4.32,5.08c-.84,1.36-1.76,2.68-2.72,3.96-.72.04-1.48.08-2.2.08a1.13,1.13,0,0,0-1.2,1.2,1.227,1.227,0,0,0,1.28,1.32c1.56-.04,3.2-.16,4.88-.32Zm23.4-18.92c-2.36.24-4.76.44-7.12.6a43.115,43.115,0,0,0,3.44-7.12,1.989,1.989,0,0,0,.12-.64,1.271,1.271,0,0,0-1.32-1.28,1.412,1.412,0,0,0-1.36,1.04,46.711,46.711,0,0,1-3.84,8.16c-.52,0-1,.04-1.52.04a1.348,1.348,0,0,0-1.4,1.32,1.312,1.312,0,0,0,1.56,1.28,125.193,125.193,0,0,0,12.8-1.4c.24.4.52.84.76,1.28a1.523,1.523,0,0,0,1.32.84,1.273,1.273,0,0,0,1.28-1.32,1.845,1.845,0,0,0-.32-1.04,35.373,35.373,0,0,0-4.08-5.28,1.466,1.466,0,0,0-1.08-.48,1.13,1.13,0,0,0-1.2,1.08,1.472,1.472,0,0,0,.44,1A21.5,21.5,0,0,1,150.92-16.84Zm-8.88,15.8c0,2.68.92,3.64,5.64,3.64,4.28,0,5.8-1.4,6.08-4.96a1.333,1.333,0,0,0-1.4-1.44,1.2,1.2,0,0,0-1.24,1.2c-.2,2.12-1,2.72-3.36,2.72s-2.88-.16-2.88-1.72V-7.8a1.289,1.289,0,0,0-1.4-1.28,1.3,1.3,0,0,0-1.44,1.28Zm-1.48-5.12a1.343,1.343,0,0,0-1.28-1.76A1.3,1.3,0,0,0,138-6.8a18,18,0,0,1-1.92,4.88,1.68,1.68,0,0,0-.24.84A1.289,1.289,0,0,0,137.12.2a1.581,1.581,0,0,0,1.4-.96A23.814,23.814,0,0,0,140.56-6.16Zm1.36-25.2a27.451,27.451,0,0,1-4.88,7.8,1.76,1.76,0,0,0-.52,1.12,1.265,1.265,0,0,0,1.32,1.24,1.655,1.655,0,0,0,1.24-.6,30.49,30.49,0,0,0,5.48-8.48,1.524,1.524,0,0,0,.16-.68,1.452,1.452,0,0,0-1.44-1.4A1.5,1.5,0,0,0,141.92-31.36Zm15.68,6.8a22.928,22.928,0,0,1-6.12-7.04,1.6,1.6,0,0,0-1.36-.92,1.211,1.211,0,0,0-1.24,1.2,1.956,1.956,0,0,0,.2.76,28.31,28.31,0,0,0,6.72,8.4,1.649,1.649,0,0,0,1.08.44,1.5,1.5,0,0,0,1.44-1.52A1.657,1.657,0,0,0,157.6-24.56Zm-23.76,14a1.22,1.22,0,0,0-1.12-.72,1.152,1.152,0,0,0-1.16,1.12,1.571,1.571,0,0,0,.12.56A22.192,22.192,0,0,1,133.16-5a1.307,1.307,0,0,0,1.28,1.16,1.339,1.339,0,0,0,1.24-1.8A22.122,22.122,0,0,0,133.84-10.56ZM123.36-9.52a27.556,27.556,0,0,1-1.52,7.16,1.57,1.57,0,0,0-.12.56,1.22,1.22,0,0,0,1.24,1.24,1.394,1.394,0,0,0,1.32-1,27.127,27.127,0,0,0,1.64-7.8,1.287,1.287,0,0,0-1.28-1.44A1.235,1.235,0,0,0,123.36-9.52Zm32.16,1.2a1.4,1.4,0,0,0-1.12-.56,1.248,1.248,0,0,0-1.28,1.2,1.471,1.471,0,0,0,.32.84,23.985,23.985,0,0,1,2.6,4.44,1.642,1.642,0,0,0,1.44,1.08,1.351,1.351,0,0,0,1.32-1.4,2.1,2.1,0,0,0-.24-.92A32.3,32.3,0,0,0,155.52-8.32Zm-8.44-3.96a1.524,1.524,0,0,0-.88-.28,1.206,1.206,0,0,0-1.24,1.16,1.369,1.369,0,0,0,.56,1.04,21.592,21.592,0,0,1,2.68,2.72,1.51,1.51,0,0,0,1.16.6,1.341,1.341,0,0,0,1.32-1.36,1.728,1.728,0,0,0-.48-1.12A19.8,19.8,0,0,0,147.08-12.28Zm22.56-1.04c0-2.28-.92-3.24-3.48-3.24H163a1.2,1.2,0,0,0-1.2,1.28A1.2,1.2,0,0,0,163-14h2.56c1.12,0,1.36.2,1.36,1.12v8.36A23.7,23.7,0,0,1,162.2-.24a1.792,1.792,0,0,0-.84,1.4,1.306,1.306,0,0,0,1.32,1.32,1.541,1.541,0,0,0,1-.36,29.729,29.729,0,0,0,4.96-4.8c2.92,3.36,7.64,4.72,17.92,4.72,4.36,0,7.76-.12,10.88-.4A1.373,1.373,0,0,0,198.76.2a1.342,1.342,0,0,0-1.6-1.36c-3.04.28-6.44.44-10.72.44-5.48,0-9.12-.32-11.68-1.08a2.265,2.265,0,0,0,.72-.12,28.655,28.655,0,0,0,5.64-3,1.322,1.322,0,0,0,.6-1.08,1.4,1.4,0,0,0-1.4-1.32,1.433,1.433,0,0,0-.92.32,21.509,21.509,0,0,1-4.92,2.68A1.431,1.431,0,0,0,173.4-3a1.165,1.165,0,0,0,.52.92,9.427,9.427,0,0,1-4.28-2.96Zm8.96,0v2.96h-6.08a1.111,1.111,0,0,0-1.16,1.16,1.144,1.144,0,0,0,1.2,1.16h23.92a1.109,1.109,0,0,0,1.16-1.16,1.089,1.089,0,0,0-1.16-1.16h-7v-2.96h5.2a1.109,1.109,0,0,0,1.16-1.16,1.089,1.089,0,0,0-1.16-1.16h-5.2v-1.6a1.292,1.292,0,0,0-1.4-1.28,1.314,1.314,0,0,0-1.4,1.28v1.6H181.4v-1.6a1.292,1.292,0,0,0-1.4-1.28,1.314,1.314,0,0,0-1.4,1.28v1.6h-4.32a1.111,1.111,0,0,0-1.16,1.16,1.133,1.133,0,0,0,1.16,1.16Zm2.8,0h5.28v2.96H181.4ZM166-31a1.69,1.69,0,0,0-.96-.36,1.367,1.367,0,0,0-1.36,1.32,1.441,1.441,0,0,0,.6,1.12,24.356,24.356,0,0,1,3.16,3.24,1.708,1.708,0,0,0,1.28.72,1.472,1.472,0,0,0,1.4-1.52,1.879,1.879,0,0,0-.48-1.24A22.293,22.293,0,0,0,166-31Zm13.16,6.16c2.28,0,3.16-.92,3.16-2.48v-2.04c0-1.56-.88-2.48-3.16-2.48h-6.24a1.05,1.05,0,0,0-1.04,1.12,1.05,1.05,0,0,0,1.04,1.12h5.72c.92,0,1.12.16,1.12.72v1.16c0,.56-.2.72-1.12.72h-3.4c-2.2,0-2.96,1-2.96,2.36v2.36c0,2.56,1.04,3.08,5.28,3.08,4.6,0,5.8-.88,6.24-3.6a1.2,1.2,0,0,0-1.28-1.44,1.2,1.2,0,0,0-1.24.96c-.24,1.56-.8,1.84-3.72,1.84-2.24,0-2.64-.2-2.64-1.08v-1.6c0-.44.2-.72.96-.72Zm13.28,0c2.28,0,3.16-.92,3.16-2.48v-2.04c0-1.56-.88-2.48-3.16-2.48h-6.48a1.05,1.05,0,0,0-1.04,1.12,1.05,1.05,0,0,0,1.04,1.12h5.96c.92,0,1.12.16,1.12.72v1.16c0,.56-.2.72-1.12.72H188.2c-2.2,0-2.96,1-2.96,2.36v2.36c0,2.56,1.44,3.08,5.76,3.08,4.92,0,6.12-.88,6.56-3.6a1.233,1.233,0,0,0-1.36-1.44,1.2,1.2,0,0,0-1.24.96c-.24,1.56-.8,1.84-3.96,1.84-2.32,0-3.12-.2-3.12-1.08v-1.6c0-.44.2-.72.96-.72ZM188.72-7a1.821,1.821,0,0,0-.92-.32A1.414,1.414,0,0,0,186.36-6,1.322,1.322,0,0,0,187-4.92a27.233,27.233,0,0,0,5.8,3,1.989,1.989,0,0,0,.64.12,1.387,1.387,0,0,0,1.44-1.32,1.592,1.592,0,0,0-1.2-1.44A24.906,24.906,0,0,1,188.72-7Zm47.92-15.84a1.152,1.152,0,0,0,1.16-1.24,1.132,1.132,0,0,0-1.16-1.24H227.8a36.577,36.577,0,0,0,3.16-5.88,1.524,1.524,0,0,0,.16-.68,1.349,1.349,0,0,0-1.4-1.32,1.458,1.458,0,0,0-1.36,1,35.971,35.971,0,0,1-3.56,6.88H203.36a1.154,1.154,0,0,0-1.16,1.24,1.176,1.176,0,0,0,1.16,1.24h7.6a30.692,30.692,0,0,1-8.84,9.16,1.36,1.36,0,0,0-.72,1.16,1.3,1.3,0,0,0,1.32,1.28,1.74,1.74,0,0,0,.92-.28,34.134,34.134,0,0,0,10.4-11.32h11.68a31.979,31.979,0,0,0,10.6,10.72,2.224,2.224,0,0,0,1.04.32,1.417,1.417,0,0,0,1.4-1.4,1.653,1.653,0,0,0-.92-1.4,29.081,29.081,0,0,1-9.12-8.24Zm-18.12,9.6h-9.28a1.187,1.187,0,0,0-1.24,1.2,1.187,1.187,0,0,0,1.24,1.2h9.28v3.36h-14.2a1.187,1.187,0,0,0-1.24,1.2,1.187,1.187,0,0,0,1.24,1.2h14.2V-.56c0,.88-.36,1.2-1.04,1.2a10.261,10.261,0,0,1-2-.2,1.341,1.341,0,0,0-1.72,1.28,1.4,1.4,0,0,0,1.28,1.36,12.135,12.135,0,0,0,2.48.24c2.6,0,3.8-1.08,3.8-3.48V-5.08H235.6a1.164,1.164,0,0,0,1.24-1.2,1.164,1.164,0,0,0-1.24-1.2H221.32v-3.36h9.28a1.164,1.164,0,0,0,1.24-1.2,1.164,1.164,0,0,0-1.24-1.2h-9.28v-3.64c1.44-.24,2.84-.52,4.12-.84a1.33,1.33,0,0,0,1.16-1.24,1.466,1.466,0,0,0-1.92-1.32,52.869,52.869,0,0,1-11.16,1.68,1.233,1.233,0,0,0-1.32,1.2,1.337,1.337,0,0,0,1.52,1.28c1.56-.08,3.16-.2,4.8-.4Zm1.32-19.68a1.678,1.678,0,0,0-1.4-.84,1.184,1.184,0,0,0-1.28,1.12,1.6,1.6,0,0,0,.28.84,22.228,22.228,0,0,1,1.76,3.84,1.369,1.369,0,0,0,1.32,1.04,1.347,1.347,0,0,0,1.36-1.36,1.99,1.99,0,0,0-.12-.64A21.807,21.807,0,0,0,219.84-32.92Zm-8.6.84a1.682,1.682,0,0,0-1.4-.76,1.184,1.184,0,0,0-1.28,1.12,1.389,1.389,0,0,0,.32.84A37.811,37.811,0,0,1,211-27.32a1.564,1.564,0,0,0,1.4.92,1.342,1.342,0,0,0,1.4-1.28,1.658,1.658,0,0,0-.24-.8A28.16,28.16,0,0,0,211.24-32.08Z" transform="translate(261 4345)" fill="#153d26" stroke="rgba(0,0,0,0)" stroke-width="1"/>
          <path id="パス_2478" data-name="パス 2478" d="M-46.573-7.873c.309,1.08.639,2.27.992,3.329l3.064,9.39c.287.9.772,1.345,1.587,1.345A1.677,1.677,0,0,0-39.3,4.868l3.174-9.28c.375-1.1.749-2.27,1.124-3.439h.154c.088,1.168.154,2.381.242,3.549l.705,9.875a.948.948,0,0,0,1.036.992.945.945,0,0,0,1.014-.816,1.94,1.94,0,0,0-.022-.309L-32.994-8.093A1.661,1.661,0,0,0-34.8-9.747c-.816,0-1.411.485-1.785,1.565l-3.24,9.523c-.309.882-.617,1.874-.948,2.8h-.154c-.287-.926-.573-1.94-.86-2.844l-3.064-9.479a1.932,1.932,0,0,0-1.9-1.565,1.631,1.631,0,0,0-1.7,1.7l-1.146,13.49a1.8,1.8,0,0,0-.022.309.84.84,0,0,0,.948.816.918.918,0,0,0,.97-.992l.749-10.184c.088-1.058.154-2.2.22-3.262ZM-22.325-.29a14.239,14.239,0,0,0-3.769.441,3.477,3.477,0,0,0-2.888,3.461c0,1.785,1.256,3.108,3.637,3.108a3.776,3.776,0,0,0,3.351-1.675,2.019,2.019,0,0,0,1.124,1.3,2.522,2.522,0,0,0,.992.242.706.706,0,0,0,.683-.794c0-.309-.132-.463-.441-.639-.551-.309-.816-.749-.816-2.381V-1.15c0-2.292-1.389-3.527-3.858-3.527a5.71,5.71,0,0,0-3.813,1.433.638.638,0,0,0-.154.529.854.854,0,0,0,.816.749.9.9,0,0,0,.573-.242A3.564,3.564,0,0,1-24.4-3.134,1.933,1.933,0,0,1-22.325-1.15Zm0,2.866a2.667,2.667,0,0,1-2.689,2.733c-1.411,0-2.072-.772-2.072-1.874a2.053,2.053,0,0,1,1.609-1.918,9.922,9.922,0,0,1,3.152-.463Zm8.619,3.769-.2.485c-.772,1.9-1.323,2.513-2.337,2.513-.309,0-.551-.044-.772-.044a.708.708,0,0,0-.705.749.791.791,0,0,0,.705.882c.242.022.507.044.749.044,1.609,0,2.866-.838,3.924-3.527l4.21-10.735a1.333,1.333,0,0,0,.088-.485c0-.375-.463-.749-.992-.749a.813.813,0,0,0-.794.6L-11.414.481c-.441,1.234-.86,2.469-1.278,3.7h-.154c-.375-1.19-.749-2.4-1.19-3.593l-1.7-4.519a.874.874,0,0,0-.816-.6,1.019,1.019,0,0,0-1.08.816,1.935,1.935,0,0,0,.154.617ZM.776,5.507A.962.962,0,0,0,1.79,6.565.978.978,0,0,0,2.826,5.507V-1.15H8.447a.8.8,0,0,0,.882-.838c0-.529-.353-.794-.882-.794H2.826v-3.99a1.09,1.09,0,0,1,1.1-1.19H9.7a.8.8,0,0,0,.9-.816c0-.551-.375-.816-.9-.816H3.421c-1.9,0-2.645.772-2.645,2.755Zm19.376-3.99A1.564,1.564,0,0,0,21.915-.246a4.394,4.394,0,0,0-4.387-4.431c-2.777,0-4.849,2.16-4.849,5.665,0,3.637,1.984,5.731,5,5.731A5.974,5.974,0,0,0,21.5,5.4a.651.651,0,0,0,.287-.529.824.824,0,0,0-.838-.838.731.731,0,0,0-.551.22,3.8,3.8,0,0,1-2.689.9c-1.7,0-3.042-1.3-3.13-3.637ZM14.619.063c.11-1.874,1.256-3.262,2.91-3.262A2.647,2.647,0,0,1,20.108-.555a.556.556,0,0,1-.573.617ZM28.22,1.65c1.741.375,2.182.926,2.182,1.808,0,1.058-.727,1.763-2.226,1.763a3.405,3.405,0,0,1-2.822-1.19.755.755,0,0,0-.661-.331.859.859,0,0,0-.838.772.96.96,0,0,0,.242.639A5.138,5.138,0,0,0,28.176,6.72c2.6,0,4.056-1.367,4.056-3.262S31.284.57,29.035.107l-.749-.154C26.544-.4,26.059-.775,26.059-1.789c0-.882.816-1.411,1.94-1.411a2.994,2.994,0,0,1,2.4,1.014.833.833,0,0,0,.639.265.9.9,0,0,0,.838-.86.8.8,0,0,0-.265-.617A5.01,5.01,0,0,0,28-4.677c-2.2,0-3.747,1.168-3.747,2.888S25.09.966,27.514,1.5Zm8.068,1.94a1.488,1.488,0,1,0,1.477,1.477A1.482,1.482,0,0,0,36.288,3.589Zm9.743,1.631a1.367,1.367,0,0,0-.088.507c0,.507.485.838,1.08.838a.944.944,0,0,0,.882-.727L49.668.746H55.4l1.719,5.07a.928.928,0,0,0,.9.749c.639,0,1.124-.331,1.124-.926a1.367,1.367,0,0,0-.088-.507L54.187-8.49a1.613,1.613,0,0,0-1.631-1.256c-.749,0-1.234.353-1.565,1.256ZM52.621-7.719c.375,1.234.705,2.381,1.1,3.571L54.848-.819h-4.7l1.168-3.373c.4-1.168.749-2.315,1.146-3.527ZM67.412,1.1c.309-1.036.551-2.16.816-3.218h.154c.287,1.014.507,2.05.794,3.064l1.3,4.453a1.469,1.469,0,0,0,2.866.044L76.031-3.4a1.248,1.248,0,0,0,.066-.4c0-.419-.441-.727-.992-.727a.8.8,0,0,0-.794.617l-1.5,5.6c-.287,1.08-.507,2.16-.794,3.24h-.176c-.287-1.1-.551-2.248-.86-3.329L69.573-3.156a1.232,1.232,0,0,0-1.212-.926,1.2,1.2,0,0,0-1.19.948L65.715,1.8c-.309,1.014-.573,2.138-.86,3.13h-.176c-.22-1.036-.419-2.16-.683-3.24L62.673-3.861a.815.815,0,0,0-.86-.661c-.551,0-1.014.331-1.014.772a1.248,1.248,0,0,0,.066.4l2.4,8.729a1.4,1.4,0,0,0,1.411,1.19,1.462,1.462,0,0,0,1.455-1.146ZM84.628-.29a14.239,14.239,0,0,0-3.769.441,3.477,3.477,0,0,0-2.888,3.461c0,1.785,1.256,3.108,3.637,3.108a3.776,3.776,0,0,0,3.351-1.675,2.019,2.019,0,0,0,1.124,1.3,2.522,2.522,0,0,0,.992.242.706.706,0,0,0,.683-.794c0-.309-.132-.463-.441-.639-.551-.309-.816-.749-.816-2.381V-1.15c0-2.292-1.389-3.527-3.858-3.527a5.71,5.71,0,0,0-3.813,1.433.638.638,0,0,0-.154.529.854.854,0,0,0,.816.749.9.9,0,0,0,.573-.242,3.564,3.564,0,0,1,2.491-.926A1.933,1.933,0,0,1,84.628-1.15Zm0,2.866a2.667,2.667,0,0,1-2.689,2.733c-1.411,0-2.072-.772-2.072-1.874a2.053,2.053,0,0,1,1.609-1.918,9.922,9.922,0,0,1,3.152-.463Zm7.781-.992c0-2.513,1.3-4.409,3.24-4.409a.892.892,0,0,0,.97-.926c0-.573-.287-.926-.97-.926-1.345,0-2.6,1.036-3.328,2.755v-1.7a.851.851,0,0,0-.926-.9.834.834,0,0,0-.9.9V5.617a.85.85,0,0,0,.948.948.866.866,0,0,0,.97-.948Zm15.827-10.6a.86.86,0,0,0-.97-.926.834.834,0,0,0-.948.926v5.886a3.655,3.655,0,0,0-2.888-1.543c-3,0-5,2.138-5,5.643,0,3.7,2.028,5.753,4.805,5.753a3.479,3.479,0,0,0,3.2-2.116,9.914,9.914,0,0,0,.331,1.389.736.736,0,0,0,.772.573c.6,0,1.036-.265,1.036-.683a2.864,2.864,0,0,0-.088-.6,15.933,15.933,0,0,1-.242-3.13ZM106.318,1.032c0,2.557-1.389,4.166-2.866,4.166-1.763,0-3.042-1.345-3.042-4.232,0-2.711,1.323-4.056,3.02-4.056A3.27,3.27,0,0,1,106.318-1.3Zm9.06.617c1.741.375,2.182.926,2.182,1.808,0,1.058-.727,1.763-2.226,1.763a3.405,3.405,0,0,1-2.822-1.19.755.755,0,0,0-.661-.331.859.859,0,0,0-.838.772.96.96,0,0,0,.242.639,5.138,5.138,0,0,0,4.078,1.609c2.6,0,4.056-1.367,4.056-3.262s-.948-2.888-3.2-3.351l-.749-.154c-1.741-.353-2.226-.727-2.226-1.741,0-.882.816-1.411,1.94-1.411a2.994,2.994,0,0,1,2.4,1.014.833.833,0,0,0,.639.265.9.9,0,0,0,.838-.86.8.8,0,0,0-.265-.617,5.01,5.01,0,0,0-3.615-1.279c-2.2,0-3.747,1.168-3.747,2.888s.838,2.755,3.262,3.284Z" transform="translate(346.615 4369.28)" fill="#153d26"/>
        </g>
        <g id="グループ_1224" data-name="グループ 1224" transform="translate(129.185 4297)">
          <g id="グループ_1136" data-name="グループ 1136" transform="translate(-9 3)" clip-path="url(#clip-path-2)">
            <path id="パス_2394" data-name="パス 2394" d="M108.389,56.945a23.089,23.089,0,0,1-3.225.881,8.961,8.961,0,0,1-1.535.127l.051-.169c.333-1.136.62-2.318.824-3.287s.335-1.716.388-1.986a9.274,9.274,0,0,1,.444-1.762,1.286,1.286,0,0,1,.871-.771,7.472,7.472,0,0,0,4.444-3.275,10.391,10.391,0,0,0,1.566-6.4c-.114-1.528-.446-2.193-.89-2.32s-1.02.276-1.728.851a22.626,22.626,0,0,1-2.535,1.908,8.412,8.412,0,0,1-1.321.663c-.1-1.052-.241-2.112-.384-2.979-.149-.925-.29-1.631-.335-1.888-.266-1.505-.378-2.164.309-2.689a7.142,7.142,0,0,0,2.848-4.4,9.875,9.875,0,0,0-.736-6.2c-.6-1.314-1.118-1.789-1.554-1.754s-.819.582-1.261,1.326A21.8,21.8,0,0,1,103,25.358a8.212,8.212,0,0,1-.955,1.027c-.384-.79-.785-1.558-1.139-2.2-.429-.778-.783-1.363-.9-1.579-.717-1.259-1.024-1.813-.575-2.5a6.841,6.841,0,0,0,1.184-4.824,9.353,9.353,0,0,0-2.54-5.3C97.14,9,96.539,8.728,96.159,8.891s-.564.771-.738,1.575a21.714,21.714,0,0,1-.7,2.772,7.868,7.868,0,0,1-.537,1.2c-.425-.428-.841-.834-1.214-1.183-.648-.608-1.161-1.059-1.343-1.226-1.068-.978-1.53-1.409-1.313-2.2a6.833,6.833,0,0,0-.346-4.955A9.323,9.323,0,0,0,85.93.6c-1.195-.653-1.85-.727-2.163-.451s-.3.907-.219,1.725a23.148,23.148,0,0,1,.189,2.715,7.282,7.282,0,0,0-2.513-1.8,9.488,9.488,0,0,0-4.386-.779c-1.5.109-2.734.672-3.022,1.712s.408,2.138,1.358,3.1a12.041,12.041,0,0,0,3.155,2.264,7.491,7.491,0,0,0,2.659.763l-.123.1c-.8.607-1.6,1.113-2.219,1.578s-1.044.879-1.114,1.277.221.771,1.041,1.221a7.887,7.887,0,0,0,4.217.932,9.416,9.416,0,0,0,4.379-1.318c.7-.381,1.2-.049,2.18.858.166.154.614.6,1.169,1.2.316.343.665.739,1.02,1.158a11.956,11.956,0,0,1-1.146.467c-.944.33-1.865.565-2.594.816a2.569,2.569,0,0,0-1.453.871c-.188.361-.025.806.62,1.485a7.893,7.893,0,0,0,3.73,2.187,9.4,9.4,0,0,0,4.571.09c.784-.149,1.157.321,1.811,1.485.112.2.4.76.745,1.5.283.613.6,1.355.893,2.109a11.909,11.909,0,0,1-1.41.09c-1.051.014-2.047-.062-2.858-.054a2.735,2.735,0,0,0-1.737.383c-.309.295-.3.787.106,1.671a8.261,8.261,0,0,0,2.944,3.4,10.064,10.064,0,0,0,4.5,1.665c.829.13,1.036.725,1.273,2.106.039.235.129.891.2,1.747.071.8.126,1.779.138,2.742a13.05,13.05,0,0,1-1.389-.424c-1.041-.375-2-.814-2.8-1.1a2.866,2.866,0,0,0-1.854-.258c-.412.175-.584.658-.509,1.669a8.662,8.662,0,0,0,1.644,4.415,10.713,10.713,0,0,0,3.809,3.311,1.123,1.123,0,0,1,.625.894,5.256,5.256,0,0,1-.164,1.65c-.049.245-.208.923-.461,1.789s-.594,1.916-.977,2.917c-.021.051-.039.1-.059.148a14.2,14.2,0,0,1-1.179-.95c-.869-.775-1.633-1.574-2.306-2.164a3.059,3.059,0,0,0-1.713-.972c-.474.007-.826.407-1.143,1.406a9.026,9.026,0,0,0-.124,4.884,11.49,11.49,0,0,0,2.375,4.741c.567.738.281,1.372-.586,2.65-.148.217-.581.807-1.179,1.541s-1.363,1.6-2.148,2.412c-.125.132-.253.259-.378.385a15.551,15.551,0,0,1-.728-1.4c-.511-1.115-.91-2.206-1.313-3.058a3.247,3.247,0,0,0-1.246-1.661c-.457-.192-.962.037-1.682.857a9.4,9.4,0,0,0-2.164,4.616,12.314,12.314,0,0,0,.256,5.566c.228.954-.321,1.436-1.7,2.281-.236.142-.9.518-1.795.955s-2,.931-3.1,1.349-2.6,1.072-3.4,1.354c-10.417,3.67-22.957,5.254-30.72,10.973-1.21.891,1.195,4.323,2.256,4.057s8.693-4.855,27.8-10.091c.8-.283,4.68-1.55,5.865-2.119s2.378-1.213,3.326-1.767,1.657-1.015,1.919-1.173a10.023,10.023,0,0,1,1.773-.969,1.426,1.426,0,0,1,1.285.124,7.635,7.635,0,0,0,2.8,1.113,8.916,8.916,0,0,0,3.246-.026,10.694,10.694,0,0,0,3.354-1.261,12.24,12.24,0,0,0,3.042-2.494c1.142-1.3,1.414-2.089,1.17-2.54s-1.013-.591-2.02-.7a23.949,23.949,0,0,1-3.486-.512,9.38,9.38,0,0,1-1.517-.522q.194-.229.384-.462c.794-.963,1.562-1.99,2.159-2.842s1.03-1.53,1.193-1.77c.946-1.412,1.358-2.029,2.313-1.925a7.805,7.805,0,0,0,5.652-1.4,10.213,10.213,0,0,0,2.418-2.377,11.636,11.636,0,0,0,1.68-3.315c.494-1.554.427-2.342.045-2.641s-1.107-.13-2.024.16" transform="translate(-12.429 0)" fill="#153d26"/>
            <path id="パス_2395" data-name="パス 2395" d="M38.352,86.336c2.4-.931,4.94-1.721,7.511-2.456-2.762-.754-5.5-1.54-8.1-2.457-.8-.281-2.3-.929-3.4-1.353s-2.214-.91-3.1-1.35-1.558-.812-1.795-.955c-1.383-.844-1.932-1.327-1.7-2.28a12.325,12.325,0,0,0,.257-5.566A9.4,9.4,0,0,0,25.85,65.3c-.72-.821-1.225-1.049-1.682-.858a3.249,3.249,0,0,0-1.246,1.661c-.4.852-.8,1.943-1.313,3.058a15.744,15.744,0,0,1-.728,1.4c-.126-.126-.253-.254-.378-.385-.784-.807-1.553-1.68-2.148-2.412s-1.03-1.324-1.179-1.541c-.867-1.279-1.155-1.913-.586-2.651a11.481,11.481,0,0,0,2.375-4.741,9.026,9.026,0,0,0-.123-4.884c-.317-1-.669-1.4-1.143-1.406a3.07,3.07,0,0,0-1.713.972c-.672.59-1.436,1.389-2.306,2.164a14.507,14.507,0,0,1-1.179.95c-.019-.049-.038-.1-.056-.149-.386-1-.73-2.051-.979-2.917s-.412-1.543-.461-1.789a5.254,5.254,0,0,1-.164-1.65,1.125,1.125,0,0,1,.625-.894,10.737,10.737,0,0,0,3.811-3.311,8.661,8.661,0,0,0,1.642-4.415c.077-1.012-.1-1.494-.509-1.669a2.861,2.861,0,0,0-1.854.258c-.8.285-1.759.724-2.8,1.1a13.242,13.242,0,0,1-1.391.424c.015-.963.067-1.939.138-2.742.075-.856.165-1.513.2-1.748.238-1.381.444-1.976,1.273-2.106a10.081,10.081,0,0,0,4.5-1.665,8.261,8.261,0,0,0,2.944-3.4c.406-.884.415-1.376.106-1.671a2.725,2.725,0,0,0-1.737-.383c-.811-.008-1.807.067-2.858.054a11.909,11.909,0,0,1-1.41-.09c.294-.755.61-1.5.893-2.11.343-.741.633-1.3.745-1.5.654-1.164,1.026-1.633,1.811-1.485a9.386,9.386,0,0,0,4.571-.09A7.892,7.892,0,0,0,25.28,20.5c.645-.68.807-1.124.62-1.485a2.573,2.573,0,0,0-1.453-.871c-.729-.251-1.65-.486-2.594-.816a12.029,12.029,0,0,1-1.146-.467c.355-.419.7-.815,1.022-1.158.552-.6,1-1.047,1.167-1.2.979-.907,1.479-1.238,2.179-.858a9.408,9.408,0,0,0,4.379,1.318,7.879,7.879,0,0,0,4.217-.931c.82-.451,1.111-.822,1.041-1.222s-.5-.815-1.114-1.276-1.422-.972-2.219-1.578l-.123-.1a7.493,7.493,0,0,0,2.659-.764A12.025,12.025,0,0,0,37.07,6.828c.949-.963,1.65-2.055,1.36-3.1s-1.524-1.6-3.024-1.711a9.479,9.479,0,0,0-4.386.779,7.29,7.29,0,0,0-2.513,1.8A23.139,23.139,0,0,1,28.7,1.877c.081-.819.1-1.45-.219-1.725s-.968-.2-2.163.45a9.324,9.324,0,0,0-4.041,4.267,6.835,6.835,0,0,0-.347,4.955c.218.792-.245,1.224-1.312,2.2-.182.167-.7.617-1.343,1.226-.373.349-.789.754-1.213,1.183a7.79,7.79,0,0,1-.538-1.2,21.724,21.724,0,0,1-.7-2.772c-.174-.8-.353-1.408-.738-1.575S15.1,9,14.168,9.983a9.36,9.36,0,0,0-2.539,5.3,6.842,6.842,0,0,0,1.184,4.824c.45.687.143,1.241-.575,2.5-.12.216-.474.8-.9,1.578-.354.64-.755,1.408-1.139,2.2a8.212,8.212,0,0,1-.955-1.027A21.811,21.811,0,0,1,7.616,22.82c-.442-.743-.82-1.291-1.261-1.325s-.949.439-1.552,1.753a9.868,9.868,0,0,0-.738,6.2,7.14,7.14,0,0,0,2.848,4.4c.687.526.575,1.185.307,2.69-.043.257-.183.962-.335,1.888-.141.867-.283,1.928-.382,2.979a8.527,8.527,0,0,1-1.323-.663,22.7,22.7,0,0,1-2.533-1.909c-.708-.575-1.281-.978-1.728-.85s-.775.792-.89,2.32A10.39,10.39,0,0,0,1.6,46.7a7.467,7.467,0,0,0,4.443,3.275,1.289,1.289,0,0,1,.871.772,9.26,9.26,0,0,1,.444,1.762c.052.27.181,1.02.388,1.986s.49,2.151.824,3.287c.017.056.034.112.051.169a8.961,8.961,0,0,1-1.535-.128,23.12,23.12,0,0,1-3.225-.88c-.917-.289-1.637-.46-2.024-.16s-.449,1.087.045,2.641a11.645,11.645,0,0,0,1.68,3.315,10.209,10.209,0,0,0,2.418,2.376,7.8,7.8,0,0,0,5.652,1.4c.955-.1,1.367.514,2.313,1.926.163.24.6.916,1.193,1.77s1.365,1.879,2.159,2.842c.127.155.255.31.384.461a9.245,9.245,0,0,1-1.517.522,23.852,23.852,0,0,1-3.486.512c-1.007.111-1.775.246-2.02.7s.028,1.243,1.17,2.539a12.243,12.243,0,0,0,3.042,2.495,10.726,10.726,0,0,0,3.354,1.261,8.9,8.9,0,0,0,3.245.026,7.621,7.621,0,0,0,2.8-1.113,1.424,1.424,0,0,1,1.285-.124,10.009,10.009,0,0,1,1.773.968c.262.158.972.617,1.919,1.173s2.137,1.2,3.326,1.767c1.15.552,4.839,1.762,5.787,2.093" transform="translate(0 0)" fill="#153d26"/>
            <path id="パス_2396" data-name="パス 2396" d="M82.919,35.717a.142.142,0,0,0-.044,0h-7.73V32.376H46.8v3.341h-7.73a.148.148,0,0,0-.044,0c-.563.118-.582,5.081.721,9.378A21.682,21.682,0,0,0,46.261,55.1a23.592,23.592,0,0,0,3.194,2.212,20.624,20.624,0,0,0,3.154,1.436,33.959,33.959,0,0,0,6.475,5.557c-.035.971-.039,1.7-.034,2.2,0,.227.007.723.013,1.545,0,.274,0,.5,0,.65-.156.049-.391.122-.681.2-.408.108-.713.169-.812.19a17.878,17.878,0,0,0-1.857.514,10.4,10.4,0,0,0-2.129,1.126,20.572,20.572,0,0,0-5.1,5.789h-2.96v3.4H76.412v-3.4h-2.96a20.549,20.549,0,0,0-5.1-5.789,10.4,10.4,0,0,0-2.129-1.126,17.831,17.831,0,0,0-1.857-.514c-.1-.021-.4-.082-.812-.19-.29-.077-.526-.149-.682-.2,0-.151,0-.376,0-.65.006-.821.011-1.318.014-1.545,0-.5,0-1.228-.034-2.2a34.018,34.018,0,0,0,6.475-5.557,20.62,20.62,0,0,0,3.153-1.436,23.625,23.625,0,0,0,3.2-2.212A21.687,21.687,0,0,0,82.2,45.094c1.3-4.3,1.284-9.26.721-9.378" transform="translate(-11.063 -9.212)" fill="#153d26"/>
          </g>
        </g>
        <g id="グループ_1225" data-name="グループ 1225" transform="matrix(0.326, 0.946, -0.946, 0.326, 573.742, 4500.915)" opacity="0.999">
          <g id="グループ_1139" data-name="グループ 1139" transform="matrix(0.899, -0.438, 0.438, 0.899, -218.468, 20.053)" clip-path="url(#clip-path-3)">
            <path id="パス_2401" data-name="パス 2401" d="M-1.645,204.161C42.132,147.014,75.272,70.172,77.155,26.7,77.921,13.18,75.422,4.314,70.813-.578c4.2,8.827,5.363,22.507,2.347,41.728C65.873,87.264,36.878,150.11-1.645,204.161" transform="translate(13.673 20.009)" fill="#455439"/>
          </g>
        </g>
        <g id="グループ_1226" data-name="グループ 1226" transform="translate(422.974 4504.483) rotate(95)" opacity="0.999">
          <g id="グループ_1170" data-name="グループ 1170" transform="translate(-144.746 -98.947) rotate(-30)" clip-path="url(#clip-path-4)">
            <path id="パス_2428" data-name="パス 2428" d="M.307,182.79c23.369-51.73,38.457-120.5,36.284-158.885C36.03,11.963,33.757,4.222,30.451.051,33.8,7.7,35.6,19.73,35.175,36.77,34.12,77.65,20.579,133.951.307,182.79" transform="translate(8.268 21.713)" fill="#35995f"/>
          </g>
        </g>
        <g id="パス_2477" data-name="パス 2477" transform="translate(85 4228)" fill="none">
          <path d="M20.455,0H429.545C440.842,0,450,8.683,450,19.394V220.606C450,231.317,440.842,240,429.545,240H20.455C9.158,240,0,231.317,0,220.606V19.394C0,8.683,9.158,0,20.455,0Z" stroke="none"/>
          <path d="M 20.45452880859375 4 C 16.01934814453125 4 11.86016845703125 5.627593994140625 8.7431640625 8.582992553710938 C 5.684478759765625 11.48312377929688 4 15.32246398925781 4 19.39393615722656 L 4 220.6060638427734 C 4 224.6775360107422 5.684478759765625 228.5168762207031 8.7431640625 231.4169921875 C 11.86016845703125 234.3724060058594 16.01934814453125 236 20.45452880859375 236 L 429.5454711914062 236 C 433.9806518554688 236 438.1398315429688 234.3724060058594 441.2568359375 231.4169921875 C 444.3155212402344 228.5168762207031 446 224.6775360107422 446 220.6060638427734 L 446 19.39393615722656 C 446 15.32246398925781 444.3155212402344 11.48312377929688 441.2568359375 8.582992553710938 C 438.1398315429688 5.627593994140625 433.9806518554688 4 429.5454711914062 4 L 20.45452880859375 4 M 20.45452880859375 0 L 429.5454711914062 0 C 440.8421630859375 0 450 8.682937622070312 450 19.39393615722656 L 450 220.6060638427734 C 450 231.3170623779297 440.8421630859375 240 429.5454711914062 240 L 20.45452880859375 240 C 9.1578369140625 240 0 231.3170623779297 0 220.6060638427734 L 0 19.39393615722656 C 0 8.682937622070312 9.1578369140625 0 20.45452880859375 0 Z" stroke="none" fill="#fef6b7"/>
        </g>
        <circle id="楕円形_269" data-name="楕円形 269" cx="9" cy="9" r="9" transform="translate(474.862 4393.871)" fill="#455439"/>
        <circle id="楕円形_270" data-name="楕円形 270" cx="6" cy="6" r="6" transform="translate(492.862 4387.871)" fill="#35995f"/>
        <circle id="楕円形_271" data-name="楕円形 271" cx="6.5" cy="6.5" r="6.5" transform="translate(495.862 4437.371)" fill="#455439"/>
        <circle id="楕円形_272" data-name="楕円形 272" cx="4" cy="4" r="4" transform="translate(483.862 4443.871)" fill="#738d60"/>
        <circle id="楕円形_277" data-name="楕円形 277" cx="4" cy="4" r="4" transform="translate(437.443 4425.432)" fill="#35995f"/>
        <circle id="楕円形_279" data-name="楕円形 279" cx="6.5" cy="6.5" r="6.5" transform="translate(418.835 4426.932)" fill="#738d60"/>
      </g>
    </g>
  </g>
</svg>
