<svg xmlns="http://www.w3.org/2000/svg" xmlns:xlink="http://www.w3.org/1999/xlink" width="320" height="100" viewBox="0 0 320 100">
  <defs>
    <clipPath id="clip-path">
      <rect id="長方形_734" data-name="長方形 734" width="320" height="100" rx="15" transform="translate(28 2159)" fill="#dce697"/>
    </clipPath>
    <clipPath id="clip-path-2">
      <rect id="長方形_722" data-name="長方形 722" width="52.77" height="51" fill="#153d26"/>
    </clipPath>
    <clipPath id="clip-path-3">
      <path id="パス_2402" data-name="パス 2402" d="M15.276,6.761,39.378.22,24.762,109.06.659,115.6Z" fill="#455439"/>
    </clipPath>
    <clipPath id="clip-path-4">
      <path id="パス_2429" data-name="パス 2429" d="M6.721,5.795l11.9-10.46L-.922,101.4l-11.9,10.46Z" fill="#b6cc29"/>
    </clipPath>
  </defs>
  <g id="グループ_1233" data-name="グループ 1233" transform="translate(-169 -480)">
    <g id="マスクグループ_2" data-name="マスクグループ 2" transform="translate(141 -1679)" clip-path="url(#clip-path)">
      <g id="グループ_1231" data-name="グループ 1231">
        <path id="パス_2476" data-name="パス 2476" d="M15,0H305a15,15,0,0,1,15,15V85a15,15,0,0,1-15,15H15A15,15,0,0,1,0,85V15A15,15,0,0,1,15,0Z" transform="translate(28 2159)" fill="#dce697"/>
        <g id="グループ_1165" data-name="グループ 1165" transform="translate(68.369 2183)">
          <g id="グループ_1136" data-name="グループ 1136" transform="translate(-9 3)" clip-path="url(#clip-path-2)">
            <path id="パス_2394" data-name="パス 2394" d="M77.772,30.106a12.206,12.206,0,0,1-1.7.466,4.737,4.737,0,0,1-.812.067l.027-.089c.176-.6.328-1.226.435-1.738s.177-.907.2-1.05a4.9,4.9,0,0,1,.235-.932.68.68,0,0,1,.46-.408,3.95,3.95,0,0,0,2.349-1.732,5.494,5.494,0,0,0,.828-3.386c-.06-.808-.236-1.159-.471-1.227s-.539.146-.914.45a11.962,11.962,0,0,1-1.34,1.009,4.448,4.448,0,0,1-.7.351c-.052-.556-.128-1.117-.2-1.575-.079-.489-.153-.862-.177-1-.141-.8-.2-1.144.163-1.422a3.776,3.776,0,0,0,1.506-2.325,5.221,5.221,0,0,0-.389-3.276c-.32-.695-.591-.946-.822-.927s-.433.308-.666.7a11.527,11.527,0,0,1-.859,1.341,4.341,4.341,0,0,1-.5.543c-.2-.418-.415-.823-.6-1.162-.227-.411-.414-.721-.477-.835-.379-.666-.542-.959-.3-1.322a3.617,3.617,0,0,0,.626-2.551,4.945,4.945,0,0,0-1.343-2.8c-.495-.522-.812-.664-1.014-.578s-.3.408-.39.833A11.479,11.479,0,0,1,70.548,7a4.159,4.159,0,0,1-.284.632c-.225-.226-.445-.441-.642-.625-.343-.322-.614-.56-.71-.648-.565-.517-.809-.745-.694-1.164a3.613,3.613,0,0,0-.183-2.62A4.929,4.929,0,0,0,65.9.319c-.632-.345-.978-.384-1.143-.238S64.6.56,64.639.992a12.238,12.238,0,0,1,.1,1.435,3.85,3.85,0,0,0-1.329-.95,5.016,5.016,0,0,0-2.319-.412c-.793.057-1.445.355-1.6.905a1.828,1.828,0,0,0,.718,1.639,6.366,6.366,0,0,0,1.668,1.2,3.961,3.961,0,0,0,1.406.4l-.065.051c-.422.321-.847.589-1.173.834s-.552.464-.589.675.117.408.55.646a4.169,4.169,0,0,0,2.23.492,4.978,4.978,0,0,0,2.315-.7c.37-.2.634-.026,1.153.454.088.081.325.317.618.635.167.182.351.391.539.612a6.32,6.32,0,0,1-.606.247c-.5.174-.986.3-1.371.432a1.358,1.358,0,0,0-.768.46c-.1.191-.013.426.328.785a4.173,4.173,0,0,0,1.972,1.156,4.967,4.967,0,0,0,2.417.048c.415-.079.612.169.957.785.059.105.213.4.394.794.149.324.317.716.472,1.115a6.3,6.3,0,0,1-.745.048c-.555.007-1.082-.033-1.511-.029a1.446,1.446,0,0,0-.919.2c-.163.156-.159.416.056.883a4.368,4.368,0,0,0,1.556,1.8,5.321,5.321,0,0,0,2.38.88c.439.068.548.383.673,1.114.021.124.068.471.108.924.038.425.066.941.073,1.45a6.9,6.9,0,0,1-.734-.224c-.551-.2-1.057-.43-1.48-.581a1.515,1.515,0,0,0-.98-.136c-.218.092-.309.348-.269.882a4.579,4.579,0,0,0,.869,2.334,5.664,5.664,0,0,0,2.014,1.751.594.594,0,0,1,.331.472,2.779,2.779,0,0,1-.087.872c-.026.13-.11.488-.244.946s-.314,1.013-.517,1.542l-.031.078a7.511,7.511,0,0,1-.623-.5c-.46-.41-.863-.832-1.219-1.144a1.617,1.617,0,0,0-.906-.514c-.251,0-.437.215-.6.743a4.772,4.772,0,0,0-.065,2.582,6.075,6.075,0,0,0,1.256,2.507c.3.39.148.725-.31,1.4-.078.115-.307.427-.623.815s-.72.848-1.136,1.275c-.066.07-.134.137-.2.2a8.221,8.221,0,0,1-.385-.74c-.27-.59-.481-1.166-.694-1.617a1.717,1.717,0,0,0-.659-.878c-.242-.1-.509.02-.889.453A4.972,4.972,0,0,0,65,36.964a6.51,6.51,0,0,0,.135,2.942c.121.5-.169.759-.9,1.206-.125.075-.478.274-.949.5s-1.058.492-1.64.713-1.376.567-1.8.716c-5.507,1.94-12.137,2.778-16.241,5.8-.64.471.632,2.285,1.193,2.145a80.862,80.862,0,0,1,14.695-5.335c.424-.15,2.474-.82,3.1-1.12s1.257-.641,1.758-.934.876-.537,1.015-.62a5.3,5.3,0,0,1,.937-.512.754.754,0,0,1,.679.065,4.036,4.036,0,0,0,1.48.589,4.713,4.713,0,0,0,1.716-.014,5.654,5.654,0,0,0,1.773-.667,6.471,6.471,0,0,0,1.608-1.319c.6-.686.748-1.1.619-1.343s-.535-.312-1.068-.371a12.661,12.661,0,0,1-1.843-.271,4.959,4.959,0,0,1-.8-.276q.1-.121.2-.244c.42-.509.826-1.052,1.142-1.5s.545-.809.631-.936c.5-.746.718-1.073,1.223-1.018a4.126,4.126,0,0,0,2.988-.738A5.4,5.4,0,0,0,77.93,33.17a6.152,6.152,0,0,0,.888-1.752c.261-.822.226-1.238.024-1.4s-.585-.068-1.07.084" transform="translate(-27.04 0)" fill="#153d26"/>
            <path id="パス_2395" data-name="パス 2395" d="M20.276,45.643c1.27-.492,2.611-.91,3.971-1.3-1.46-.4-2.907-.814-4.283-1.3-.423-.149-1.217-.491-1.8-.715s-1.17-.481-1.64-.714-.824-.429-.949-.5c-.731-.446-1.022-.7-.9-1.206a6.516,6.516,0,0,0,.136-2.942,4.969,4.969,0,0,0-1.145-2.44c-.38-.434-.648-.555-.889-.454a1.718,1.718,0,0,0-.659.878c-.213.451-.425,1.027-.694,1.617a8.324,8.324,0,0,1-.385.74c-.066-.067-.134-.134-.2-.2-.415-.427-.821-.888-1.136-1.275s-.545-.7-.623-.815c-.458-.676-.611-1.011-.31-1.4A6.07,6.07,0,0,0,10.027,31.1a4.772,4.772,0,0,0-.065-2.582c-.168-.528-.354-.739-.6-.743a1.623,1.623,0,0,0-.906.514c-.355.312-.759.735-1.219,1.144a7.669,7.669,0,0,1-.623.5c-.01-.026-.02-.052-.03-.079-.2-.529-.386-1.084-.518-1.542s-.218-.816-.244-.946a2.778,2.778,0,0,1-.087-.872.6.6,0,0,1,.331-.472,5.676,5.676,0,0,0,2.015-1.75,4.579,4.579,0,0,0,.868-2.334c.041-.535-.051-.79-.269-.882a1.513,1.513,0,0,0-.98.136c-.424.151-.93.383-1.479.581A7,7,0,0,1,5.481,22c.008-.509.035-1.025.073-1.45.04-.452.087-.8.108-.924.126-.73.235-1.045.673-1.113a5.33,5.33,0,0,0,2.38-.88,4.368,4.368,0,0,0,1.556-1.8c.215-.468.22-.727.056-.883a1.441,1.441,0,0,0-.919-.2c-.429,0-.956.036-1.511.029a6.3,6.3,0,0,1-.745-.048c.155-.4.323-.791.472-1.115.182-.392.335-.688.394-.794.346-.615.543-.864.957-.785a4.962,4.962,0,0,0,2.417-.048,4.172,4.172,0,0,0,1.972-1.156c.341-.359.427-.594.328-.785a1.36,1.36,0,0,0-.768-.461c-.385-.133-.872-.257-1.371-.432a6.359,6.359,0,0,1-.606-.247c.188-.221.372-.431.54-.612.292-.318.529-.553.617-.635.517-.479.782-.655,1.152-.454a4.974,4.974,0,0,0,2.315.7,4.166,4.166,0,0,0,2.23-.492c.434-.238.587-.435.55-.646s-.263-.431-.589-.675-.752-.514-1.173-.834l-.065-.051a3.961,3.961,0,0,0,1.406-.4A6.357,6.357,0,0,0,19.6,3.61a1.831,1.831,0,0,0,.719-1.639c-.154-.55-.806-.847-1.6-.9a5.011,5.011,0,0,0-2.319.412,3.854,3.854,0,0,0-1.329.949,12.233,12.233,0,0,1,.1-1.435c.043-.433.052-.766-.116-.912s-.512-.107-1.143.238a4.93,4.93,0,0,0-2.136,2.256,3.614,3.614,0,0,0-.183,2.619c.115.419-.129.647-.694,1.164-.1.088-.368.326-.71.648-.2.185-.417.4-.642.625A4.119,4.119,0,0,1,9.263,7a11.485,11.485,0,0,1-.368-1.466C8.8,5.108,8.708,4.789,8.5,4.7s-.519.056-1.014.577a4.949,4.949,0,0,0-1.342,2.8,3.617,3.617,0,0,0,.626,2.55c.238.363.075.656-.3,1.322-.063.114-.251.424-.477.834-.187.339-.4.744-.6,1.162a4.341,4.341,0,0,1-.5-.543,11.531,11.531,0,0,1-.859-1.342c-.234-.393-.434-.683-.666-.7s-.5.232-.82.927a5.217,5.217,0,0,0-.39,3.276,3.775,3.775,0,0,0,1.506,2.325c.363.278.3.626.162,1.422-.023.136-.1.509-.177,1-.074.458-.149,1.019-.2,1.575a4.508,4.508,0,0,1-.7-.35A12,12,0,0,1,1.4,20.527c-.374-.3-.677-.517-.914-.449S.076,20.5.015,21.3A5.493,5.493,0,0,0,.843,24.69a3.948,3.948,0,0,0,2.349,1.732.682.682,0,0,1,.46.408,4.9,4.9,0,0,1,.235.932c.028.143.1.539.2,1.05s.259,1.137.435,1.738l.027.089a4.737,4.737,0,0,1-.812-.068,12.223,12.223,0,0,1-1.7-.465c-.485-.153-.865-.243-1.07-.084s-.237.575.024,1.4A6.156,6.156,0,0,0,1.88,33.17a5.4,5.4,0,0,0,1.278,1.256,4.123,4.123,0,0,0,2.988.738c.5-.054.723.272,1.223,1.018.086.127.315.484.631.936s.722.993,1.142,1.5c.067.082.135.164.2.244a4.887,4.887,0,0,1-.8.276,12.61,12.61,0,0,1-1.843.271c-.532.059-.939.13-1.068.371s.015.657.619,1.342a6.473,6.473,0,0,0,1.608,1.319,5.671,5.671,0,0,0,1.773.667,4.7,4.7,0,0,0,1.716.014,4.029,4.029,0,0,0,1.48-.588.753.753,0,0,1,.679-.065,5.292,5.292,0,0,1,.937.512c.138.084.514.326,1.015.62s1.13.634,1.758.934c.608.292,2.558.932,3.059,1.106" transform="translate(0 0)" fill="#153d26"/>
            <path id="パス_2396" data-name="パス 2396" d="M62.058,34.142a.075.075,0,0,0-.023,0H57.948V32.376H42.961v1.766H38.874a.078.078,0,0,0-.023,0c-.3.062-.308,2.686.381,4.958a11.463,11.463,0,0,0,3.446,5.292,12.472,12.472,0,0,0,1.689,1.17,10.9,10.9,0,0,0,1.667.759,17.953,17.953,0,0,0,3.423,2.938c-.018.513-.02.9-.018,1.163,0,.12,0,.382.007.817,0,.145,0,.264,0,.344-.082.026-.207.064-.36.1-.216.057-.377.089-.429.1a9.452,9.452,0,0,0-.982.272,5.5,5.5,0,0,0-1.126.6,10.876,10.876,0,0,0-2.694,3.06H42.291v1.8H58.617v-1.8H57.052a10.864,10.864,0,0,0-2.694-3.06,5.5,5.5,0,0,0-1.126-.6,9.427,9.427,0,0,0-.982-.272c-.053-.011-.214-.043-.429-.1-.153-.04-.278-.079-.36-.1,0-.08,0-.2,0-.344,0-.434.006-.7.007-.817,0-.264,0-.649-.018-1.163a17.984,17.984,0,0,0,3.423-2.938,10.9,10.9,0,0,0,1.667-.759,12.49,12.49,0,0,0,1.689-1.17A11.466,11.466,0,0,0,61.677,39.1c.689-2.272.679-4.9.381-4.958" transform="translate(-24.069 -20.13)" fill="#153d26"/>
          </g>
        </g>
        <g id="グループ_1168" data-name="グループ 1168" transform="matrix(0.326, 0.946, -0.946, 0.326, 265.448, 2327.229)" opacity="0.999">
          <g id="グループ_1139" data-name="グループ 1139" transform="translate(-112.924 -116.828) rotate(-14)" clip-path="url(#clip-path-3)">
            <path id="パス_2401" data-name="パス 2401" d="M.606,106.361C21.273,79.986,28.123,40.914,18.27,16.443,15.354,8.858,11,3.463,5.965.033c5.73,5.611,10.26,13.558,12.839,24.072,6.145,25.215-1,56.906-18.2,82.256" transform="translate(9.311 6.727)" fill="#455439"/>
          </g>
        </g>
        <g id="グループ_1169" data-name="グループ 1169" transform="matrix(-0.105, 0.995, -0.995, -0.105, 217.3, 2329.554)" opacity="0.999">
          <g id="グループ_1170" data-name="グループ 1170" transform="translate(-125.888 -116.673) rotate(-30)" clip-path="url(#clip-path-4)">
            <path id="パス_2428" data-name="パス 2428" d="M-11.577,99.468C1.068,71.113,8.824,33.236,7.15,11.97,6.694,5.355,5.316,1.046,3.4-1.3,5.382,2.973,6.54,9.649,6.5,19.072,6.37,41.68-.653,72.677-11.577,99.468" transform="translate(3.326 8.375)" fill="#35995f"/>
          </g>
        </g>
        <g id="パス_2427" data-name="パス 2427" transform="translate(33 2164)" fill="none">
          <path d="M12.834,0H297.166A12.645,12.645,0,0,1,310,12.447V77.553A12.645,12.645,0,0,1,297.166,90H12.834A12.645,12.645,0,0,1,0,77.553V12.447A12.645,12.645,0,0,1,12.834,0Z" stroke="none"/>
          <path d="M 12.83441162109375 1.699996948242188 C 6.69488525390625 1.699996948242188 1.70001220703125 6.521003723144531 1.70001220703125 12.44679260253906 L 1.70001220703125 77.55316925048828 C 1.70001220703125 83.47900390625 6.69488525390625 88.30000305175781 12.83441162109375 88.30000305175781 L 297.1656188964844 88.30000305175781 C 303.3051147460938 88.30000305175781 308.2999877929688 83.47900390625 308.2999877929688 77.55316925048828 L 308.2999877929688 12.44679260253906 C 308.2999877929688 6.521003723144531 303.3051147460938 1.699996948242188 297.1656188964844 1.699996948242188 L 12.83441162109375 1.699996948242188 M 12.83441162109375 0 L 297.1656188964844 0 C 304.25390625 0 310 5.572624206542969 310 12.44679260253906 L 310 77.55316925048828 C 310 84.42737579345703 304.25390625 90 297.1656188964844 90 L 12.83441162109375 90 C 5.74615478515625 90 0 84.42737579345703 0 77.55316925048828 L 0 12.44679260253906 C 0 5.572624206542969 5.74615478515625 0 12.83441162109375 0 Z" stroke="none" fill="#fef6b7"/>
        </g>
        <circle id="楕円形_273" data-name="楕円形 273" cx="3" cy="3" r="3" transform="translate(324 2238)" fill="#455439"/>
        <circle id="楕円形_274" data-name="楕円形 274" cx="1.5" cy="1.5" r="1.5" transform="translate(319 2241)" fill="#738d60"/>
        <circle id="楕円形_275" data-name="楕円形 275" cx="2" cy="2" r="2" transform="translate(318 2218)" fill="#35995f"/>
        <circle id="楕円形_276" data-name="楕円形 276" cx="3.5" cy="3.5" r="3.5" transform="translate(312 2222)" fill="#455439"/>
        <circle id="楕円形_280" data-name="楕円形 280" cx="1.5" cy="1.5" r="1.5" transform="translate(293 2238)" fill="#35995f"/>
        <circle id="楕円形_281" data-name="楕円形 281" cx="2.5" cy="2.5" r="2.5" transform="translate(286 2238)" fill="#738d60"/>
      </g>
    </g>
    <text id="May_Fes._Awards" data-name="May Fes. Awards" transform="translate(275 537)" fill="#393332" stroke="rgba(0,0,0,0)" stroke-width="1" font-size="20" font-family="DNPShueiMGoStd-L, DNP ShueiMGoStd"><tspan x="0" y="0">May Fes. Awards</tspan></text>
  </g>
</svg>
