<svg xmlns="http://www.w3.org/2000/svg" xmlns:xlink="http://www.w3.org/1999/xlink" width="360" height="487" viewBox="0 0 360 487">
  <defs>
    <clipPath id="clip-path">
      <rect id="長方形_732" data-name="長方形 732" width="41.246" height="261.81" transform="translate(0)" fill="#455439"/>
    </clipPath>
    <clipPath id="clip-path-2">
      <rect id="長方形_722" data-name="長方形 722" width="99.815" height="96.468" fill="#153d26"/>
    </clipPath>
    <clipPath id="clip-path-3">
      <rect id="長方形_736" data-name="長方形 736" width="211" height="105" transform="translate(797.054 4008)" fill="#fff" stroke="#707070" stroke-width="1"/>
    </clipPath>
    <clipPath id="clip-path-4">
      <path id="パス_2480" data-name="パス 2480" d="M0,0,31.109-.34,28.557,243.494l-31.109.34Z" transform="translate(0 0)" fill="none"/>
    </clipPath>
    <clipPath id="clip-path-5">
      <rect id="長方形_732-2" data-name="長方形 732" width="41.246" height="261.81" transform="translate(0 0)" fill="#455439"/>
    </clipPath>
    <clipPath id="clip-path-6">
      <rect id="長方形_737" data-name="長方形 737" width="211" height="105" transform="translate(0 0)" fill="#fff" stroke="#707070" stroke-width="1"/>
    </clipPath>
    <clipPath id="clip-path-7">
      <path id="パス_2482" data-name="パス 2482" d="M2.552.34,33.662,0,31.109,243.834,0,244.174Z" fill="none"/>
    </clipPath>
  </defs>
  <g id="グループ_1237" data-name="グループ 1237" transform="translate(-638 -3638)">
    <rect id="長方形_734" data-name="長方形 734" width="360" height="480" rx="20" transform="translate(638 3642)" fill="#dce697"/>
    <text id="May_Fes._Awards" data-name="May Fes. 
Awards" transform="translate(806 3876)" fill="#153d26" stroke="rgba(0,0,0,0)" stroke-width="1" font-size="35" font-family="DNPShueiMGoStd-L, DNP ShueiMGoStd"><tspan x="0" y="0">May Fes. </tspan><tspan x="0" y="40">Awards</tspan></text>
    <g id="グループ_1228" data-name="グループ 1228" transform="translate(760.72 4125) rotate(-115)">
      <g id="グループ_1216" data-name="グループ 1216" transform="translate(0)" clip-path="url(#clip-path)">
        <path id="パス_2474" data-name="パス 2474" d="M25.4,0C-5.01,51.841-7.857,144.743,15.477,212.507c6.989,20.91,16.013,37.331,25.768,49.3-11.514-17.89-21.455-40.8-28.543-68.792C-4.224,125.907.9,51.632,25.4,0" transform="translate(0 0)" fill="#455439"/>
      </g>
    </g>
    <g id="グループ_1229" data-name="グループ 1229" transform="translate(684.175 3831)">
      <g id="グループ_1136" data-name="グループ 1136" transform="translate(-9 3)" clip-path="url(#clip-path-2)">
        <path id="パス_2394" data-name="パス 2394" d="M108.389,56.945a23.089,23.089,0,0,1-3.225.881,8.961,8.961,0,0,1-1.535.127l.051-.169c.333-1.136.62-2.318.824-3.287s.335-1.716.388-1.986a9.274,9.274,0,0,1,.444-1.762,1.286,1.286,0,0,1,.871-.771,7.472,7.472,0,0,0,4.444-3.275,10.391,10.391,0,0,0,1.566-6.4c-.114-1.528-.446-2.193-.89-2.32s-1.02.276-1.728.851a22.626,22.626,0,0,1-2.535,1.908,8.412,8.412,0,0,1-1.321.663c-.1-1.052-.241-2.112-.384-2.979-.149-.925-.29-1.631-.335-1.888-.266-1.505-.378-2.164.309-2.689a7.142,7.142,0,0,0,2.848-4.4,9.875,9.875,0,0,0-.736-6.2c-.6-1.314-1.118-1.789-1.554-1.754s-.819.582-1.261,1.326A21.8,21.8,0,0,1,103,25.358a8.212,8.212,0,0,1-.955,1.027c-.384-.79-.785-1.558-1.139-2.2-.429-.778-.783-1.363-.9-1.579-.717-1.259-1.024-1.813-.575-2.5a6.841,6.841,0,0,0,1.184-4.824,9.353,9.353,0,0,0-2.54-5.3C97.14,9,96.539,8.728,96.159,8.891s-.564.771-.738,1.575a21.714,21.714,0,0,1-.7,2.772,7.868,7.868,0,0,1-.537,1.2c-.425-.428-.841-.834-1.214-1.183-.648-.608-1.161-1.059-1.343-1.226-1.068-.978-1.53-1.409-1.313-2.2a6.833,6.833,0,0,0-.346-4.955A9.323,9.323,0,0,0,85.93.6c-1.195-.653-1.85-.727-2.163-.451s-.3.907-.219,1.725a23.148,23.148,0,0,1,.189,2.715,7.282,7.282,0,0,0-2.513-1.8,9.488,9.488,0,0,0-4.386-.779c-1.5.109-2.734.672-3.022,1.712s.408,2.138,1.358,3.1a12.041,12.041,0,0,0,3.155,2.264,7.491,7.491,0,0,0,2.659.763l-.123.1c-.8.607-1.6,1.113-2.219,1.578s-1.044.879-1.114,1.277.221.771,1.041,1.221a7.887,7.887,0,0,0,4.217.932,9.416,9.416,0,0,0,4.379-1.318c.7-.381,1.2-.049,2.18.858.166.154.614.6,1.169,1.2.316.343.665.739,1.02,1.158a11.956,11.956,0,0,1-1.146.467c-.944.33-1.865.565-2.594.816a2.569,2.569,0,0,0-1.453.871c-.188.361-.025.806.62,1.485a7.893,7.893,0,0,0,3.73,2.187,9.4,9.4,0,0,0,4.571.09c.784-.149,1.157.321,1.811,1.485.112.2.4.76.745,1.5.283.613.6,1.355.893,2.109a11.909,11.909,0,0,1-1.41.09c-1.051.014-2.047-.062-2.858-.054a2.735,2.735,0,0,0-1.737.383c-.309.295-.3.787.106,1.671a8.261,8.261,0,0,0,2.944,3.4,10.064,10.064,0,0,0,4.5,1.665c.829.13,1.036.725,1.273,2.106.039.235.129.891.2,1.747.071.8.126,1.779.138,2.742a13.05,13.05,0,0,1-1.389-.424c-1.041-.375-2-.814-2.8-1.1a2.866,2.866,0,0,0-1.854-.258c-.412.175-.584.658-.509,1.669a8.662,8.662,0,0,0,1.644,4.415,10.713,10.713,0,0,0,3.809,3.311,1.123,1.123,0,0,1,.625.894,5.256,5.256,0,0,1-.164,1.65c-.049.245-.208.923-.461,1.789s-.594,1.916-.977,2.917c-.021.051-.039.1-.059.148a14.2,14.2,0,0,1-1.179-.95c-.869-.775-1.633-1.574-2.306-2.164a3.059,3.059,0,0,0-1.713-.972c-.474.007-.826.407-1.143,1.406a9.026,9.026,0,0,0-.124,4.884,11.49,11.49,0,0,0,2.375,4.741c.567.738.281,1.372-.586,2.65-.148.217-.581.807-1.179,1.541s-1.363,1.6-2.148,2.412c-.125.132-.253.259-.378.385a15.551,15.551,0,0,1-.728-1.4c-.511-1.115-.91-2.206-1.313-3.058a3.247,3.247,0,0,0-1.246-1.661c-.457-.192-.962.037-1.682.857a9.4,9.4,0,0,0-2.164,4.616,12.314,12.314,0,0,0,.256,5.566c.228.954-.321,1.436-1.7,2.281-.236.142-.9.518-1.795.955s-2,.931-3.1,1.349-2.6,1.072-3.4,1.354c-10.417,3.67-22.957,5.254-30.72,10.973-1.21.891,1.195,4.323,2.256,4.057s8.693-4.855,27.8-10.091c.8-.283,4.68-1.55,5.865-2.119s2.378-1.213,3.326-1.767,1.657-1.015,1.919-1.173a10.023,10.023,0,0,1,1.773-.969,1.426,1.426,0,0,1,1.285.124,7.635,7.635,0,0,0,2.8,1.113,8.916,8.916,0,0,0,3.246-.026,10.694,10.694,0,0,0,3.354-1.261,12.24,12.24,0,0,0,3.042-2.494c1.142-1.3,1.414-2.089,1.17-2.54s-1.013-.591-2.02-.7a23.949,23.949,0,0,1-3.486-.512,9.38,9.38,0,0,1-1.517-.522q.194-.229.384-.462c.794-.963,1.562-1.99,2.159-2.842s1.03-1.53,1.193-1.77c.946-1.412,1.358-2.029,2.313-1.925a7.805,7.805,0,0,0,5.652-1.4,10.213,10.213,0,0,0,2.418-2.377,11.636,11.636,0,0,0,1.68-3.315c.494-1.554.427-2.342.045-2.641s-1.107-.13-2.024.16" transform="translate(-12.429 0)" fill="#153d26"/>
        <path id="パス_2395" data-name="パス 2395" d="M38.352,86.336c2.4-.931,4.94-1.721,7.511-2.456-2.762-.754-5.5-1.54-8.1-2.457-.8-.281-2.3-.929-3.4-1.353s-2.214-.91-3.1-1.35-1.558-.812-1.795-.955c-1.383-.844-1.932-1.327-1.7-2.28a12.325,12.325,0,0,0,.257-5.566A9.4,9.4,0,0,0,25.85,65.3c-.72-.821-1.225-1.049-1.682-.858a3.249,3.249,0,0,0-1.246,1.661c-.4.852-.8,1.943-1.313,3.058a15.744,15.744,0,0,1-.728,1.4c-.126-.126-.253-.254-.378-.385-.784-.807-1.553-1.68-2.148-2.412s-1.03-1.324-1.179-1.541c-.867-1.279-1.155-1.913-.586-2.651a11.481,11.481,0,0,0,2.375-4.741,9.026,9.026,0,0,0-.123-4.884c-.317-1-.669-1.4-1.143-1.406a3.07,3.07,0,0,0-1.713.972c-.672.59-1.436,1.389-2.306,2.164a14.507,14.507,0,0,1-1.179.95c-.019-.049-.038-.1-.056-.149-.386-1-.73-2.051-.979-2.917s-.412-1.543-.461-1.789a5.254,5.254,0,0,1-.164-1.65,1.125,1.125,0,0,1,.625-.894,10.737,10.737,0,0,0,3.811-3.311,8.661,8.661,0,0,0,1.642-4.415c.077-1.012-.1-1.494-.509-1.669a2.861,2.861,0,0,0-1.854.258c-.8.285-1.759.724-2.8,1.1a13.242,13.242,0,0,1-1.391.424c.015-.963.067-1.939.138-2.742.075-.856.165-1.513.2-1.748.238-1.381.444-1.976,1.273-2.106a10.081,10.081,0,0,0,4.5-1.665,8.261,8.261,0,0,0,2.944-3.4c.406-.884.415-1.376.106-1.671a2.725,2.725,0,0,0-1.737-.383c-.811-.008-1.807.067-2.858.054a11.909,11.909,0,0,1-1.41-.09c.294-.755.61-1.5.893-2.11.343-.741.633-1.3.745-1.5.654-1.164,1.026-1.633,1.811-1.485a9.386,9.386,0,0,0,4.571-.09A7.892,7.892,0,0,0,25.28,20.5c.645-.68.807-1.124.62-1.485a2.573,2.573,0,0,0-1.453-.871c-.729-.251-1.65-.486-2.594-.816a12.029,12.029,0,0,1-1.146-.467c.355-.419.7-.815,1.022-1.158.552-.6,1-1.047,1.167-1.2.979-.907,1.479-1.238,2.179-.858a9.408,9.408,0,0,0,4.379,1.318,7.879,7.879,0,0,0,4.217-.931c.82-.451,1.111-.822,1.041-1.222s-.5-.815-1.114-1.276-1.422-.972-2.219-1.578l-.123-.1a7.493,7.493,0,0,0,2.659-.764A12.025,12.025,0,0,0,37.07,6.828c.949-.963,1.65-2.055,1.36-3.1s-1.524-1.6-3.024-1.711a9.479,9.479,0,0,0-4.386.779,7.29,7.29,0,0,0-2.513,1.8A23.139,23.139,0,0,1,28.7,1.877c.081-.819.1-1.45-.219-1.725s-.968-.2-2.163.45a9.324,9.324,0,0,0-4.041,4.267,6.835,6.835,0,0,0-.347,4.955c.218.792-.245,1.224-1.312,2.2-.182.167-.7.617-1.343,1.226-.373.349-.789.754-1.213,1.183a7.79,7.79,0,0,1-.538-1.2,21.724,21.724,0,0,1-.7-2.772c-.174-.8-.353-1.408-.738-1.575S15.1,9,14.168,9.983a9.36,9.36,0,0,0-2.539,5.3,6.842,6.842,0,0,0,1.184,4.824c.45.687.143,1.241-.575,2.5-.12.216-.474.8-.9,1.578-.354.64-.755,1.408-1.139,2.2a8.212,8.212,0,0,1-.955-1.027A21.811,21.811,0,0,1,7.616,22.82c-.442-.743-.82-1.291-1.261-1.325s-.949.439-1.552,1.753a9.868,9.868,0,0,0-.738,6.2,7.14,7.14,0,0,0,2.848,4.4c.687.526.575,1.185.307,2.69-.043.257-.183.962-.335,1.888-.141.867-.283,1.928-.382,2.979a8.527,8.527,0,0,1-1.323-.663,22.7,22.7,0,0,1-2.533-1.909c-.708-.575-1.281-.978-1.728-.85s-.775.792-.89,2.32A10.39,10.39,0,0,0,1.6,46.7a7.467,7.467,0,0,0,4.443,3.275,1.289,1.289,0,0,1,.871.772,9.26,9.26,0,0,1,.444,1.762c.052.27.181,1.02.388,1.986s.49,2.151.824,3.287c.017.056.034.112.051.169a8.961,8.961,0,0,1-1.535-.128,23.12,23.12,0,0,1-3.225-.88c-.917-.289-1.637-.46-2.024-.16s-.449,1.087.045,2.641a11.645,11.645,0,0,0,1.68,3.315,10.209,10.209,0,0,0,2.418,2.376,7.8,7.8,0,0,0,5.652,1.4c.955-.1,1.367.514,2.313,1.926.163.24.6.916,1.193,1.77s1.365,1.879,2.159,2.842c.127.155.255.31.384.461a9.245,9.245,0,0,1-1.517.522,23.852,23.852,0,0,1-3.486.512c-1.007.111-1.775.246-2.02.7s.028,1.243,1.17,2.539a12.243,12.243,0,0,0,3.042,2.495,10.726,10.726,0,0,0,3.354,1.261,8.9,8.9,0,0,0,3.245.026,7.621,7.621,0,0,0,2.8-1.113,1.424,1.424,0,0,1,1.285-.124,10.009,10.009,0,0,1,1.773.968c.262.158.972.617,1.919,1.173s2.137,1.2,3.326,1.767c1.15.552,4.839,1.762,5.787,2.093" transform="translate(0 0)" fill="#153d26"/>
        <path id="パス_2396" data-name="パス 2396" d="M82.919,35.717a.142.142,0,0,0-.044,0h-7.73V32.376H46.8v3.341h-7.73a.148.148,0,0,0-.044,0c-.563.118-.582,5.081.721,9.378A21.682,21.682,0,0,0,46.261,55.1a23.592,23.592,0,0,0,3.194,2.212,20.624,20.624,0,0,0,3.154,1.436,33.959,33.959,0,0,0,6.475,5.557c-.035.971-.039,1.7-.034,2.2,0,.227.007.723.013,1.545,0,.274,0,.5,0,.65-.156.049-.391.122-.681.2-.408.108-.713.169-.812.19a17.878,17.878,0,0,0-1.857.514,10.4,10.4,0,0,0-2.129,1.126,20.572,20.572,0,0,0-5.1,5.789h-2.96v3.4H76.412v-3.4h-2.96a20.549,20.549,0,0,0-5.1-5.789,10.4,10.4,0,0,0-2.129-1.126,17.831,17.831,0,0,0-1.857-.514c-.1-.021-.4-.082-.812-.19-.29-.077-.526-.149-.682-.2,0-.151,0-.376,0-.65.006-.821.011-1.318.014-1.545,0-.5,0-1.228-.034-2.2a34.018,34.018,0,0,0,6.475-5.557,20.62,20.62,0,0,0,3.153-1.436,23.625,23.625,0,0,0,3.2-2.212A21.687,21.687,0,0,0,82.2,45.094c1.3-4.3,1.284-9.26.721-9.378" transform="translate(-11.063 -9.212)" fill="#153d26"/>
      </g>
    </g>
    <g id="マスクグループ_2" data-name="マスクグループ 2" transform="matrix(1, 0.017, -0.017, 1, 52.949, -13.133)" clip-path="url(#clip-path-3)">
      <g id="グループ_1231" data-name="グループ 1231" transform="translate(765.27 4117.482) rotate(-103)">
        <g id="グループ_1216-2" data-name="グループ 1216" transform="translate(0 0)" clip-path="url(#clip-path-4)">
          <path id="パス_2474-2" data-name="パス 2474" d="M19.16-.21c-23.444,48.533-26.5,135.079-9.557,198,5.068,19.417,11.714,34.636,18.955,45.7-8.51-16.567-15.785-37.821-20.858-63.833C-4.413,117.3.176,48.079,19.16-.21" transform="translate(0 0)" fill="#35995f"/>
        </g>
      </g>
    </g>
    <circle id="楕円形_282" data-name="楕円形 282" cx="5" cy="5" r="5" transform="translate(861 4058)" fill="#738d60"/>
    <circle id="楕円形_283" data-name="楕円形 283" cx="7" cy="7" r="7" transform="translate(931 4071)" fill="#153d26"/>
    <circle id="楕円形_284" data-name="楕円形 284" cx="5.5" cy="5.5" r="5.5" transform="translate(916 4078)" fill="#738d60"/>
    <circle id="楕円形_285" data-name="楕円形 285" cx="8.5" cy="8.5" r="8.5" transform="translate(925 4003.167)" fill="#455439"/>
    <circle id="楕円形_286" data-name="楕円形 286" cx="5.5" cy="5.5" r="5.5" transform="translate(944.5 3992.167)" fill="#738d60"/>
    <circle id="楕円形_287" data-name="楕円形 287" cx="7.5" cy="7.5" r="7.5" transform="translate(840 4060)" fill="#35995f"/>
    <g id="グループ_1233" data-name="グループ 1233" transform="translate(876.415 3638) rotate(65)">
      <g id="グループ_1216-3" data-name="グループ 1216" transform="translate(0 0)" clip-path="url(#clip-path-5)">
        <path id="パス_2474-3" data-name="パス 2474" d="M25.4,0C-5.01,51.841-7.857,144.743,15.477,212.507c6.989,20.91,16.013,37.331,25.768,49.3-11.514-17.89-21.455-40.8-28.543-68.792C-4.224,125.907.9,51.632,25.4,0" transform="translate(0 0)" fill="#455439"/>
      </g>
    </g>
    <g id="マスクグループ_3" data-name="マスクグループ 3" transform="matrix(-1, -0.017, 0.017, -1, 853.812, 3755.833)" clip-path="url(#clip-path-6)">
      <g id="グループ_1235" data-name="グループ 1235" transform="translate(-31.541 112.046) rotate(-103)">
        <g id="グループ_1234" data-name="グループ 1234" transform="translate(0)" clip-path="url(#clip-path-7)">
          <path id="パス_2481" data-name="パス 2481" d="M20.292,0C-3.152,48.533-6.2,135.079,10.734,198c5.068,19.417,11.714,34.636,18.955,45.7C21.179,227.137,13.9,205.883,8.831,179.87-3.281,117.507,1.309,48.289,20.292,0" transform="translate(1.42 0.131)" fill="#35995f"/>
        </g>
      </g>
    </g>
    <g id="長方形_735" data-name="長方形 735" transform="translate(653 3657)" fill="none" stroke="#fef6b7" stroke-width="5">
      <rect width="330" height="450" rx="20" stroke="none"/>
      <rect x="2.5" y="2.5" width="325" height="445" rx="17.5" fill="none"/>
    </g>
  </g>
</svg>
