<svg id="グループ_716" data-name="グループ 716" xmlns="http://www.w3.org/2000/svg" xmlns:xlink="http://www.w3.org/1999/xlink" width="37.429" height="43.459" viewBox="0 0 37.429 43.459">
  <defs>
    <clipPath id="clip-path">
      <rect id="長方形_616" data-name="長方形 616" width="35.766" height="41.185" fill="none"/>
    </clipPath>
    <clipPath id="clip-path-3">
      <rect id="長方形_612" data-name="長方形 612" width="5.044" height="5.044" fill="none"/>
    </clipPath>
    <clipPath id="clip-path-4">
      <rect id="長方形_613" data-name="長方形 613" width="11.036" height="11.036" fill="none"/>
    </clipPath>
  </defs>
  <g id="グループ_707" data-name="グループ 707" transform="translate(1.663 2.274)">
    <g id="グループ_715" data-name="グループ 715" transform="translate(0 0)" clip-path="url(#clip-path)">
      <g id="グループ_714" data-name="グループ 714">
        <g id="グループ_713" data-name="グループ 713" clip-path="url(#clip-path)">
          <g id="グループ_709" data-name="グループ 709" transform="translate(31.244 21.146)" opacity="0.64" style="isolation: isolate">
            <g id="グループ_708" data-name="グループ 708">
              <g id="グループ_707-2" data-name="グループ 707" clip-path="url(#clip-path-3)">
                <path id="パス_1608" data-name="パス 1608" d="M30.95,26.494l5.043-5.043Z" transform="translate(-30.95 -21.451)" fill="#b6cc29"/>
              </g>
            </g>
          </g>
          <g id="グループ_712" data-name="グループ 712" transform="translate(16.764 29.634)" opacity="0.64" style="isolation: isolate">
            <g id="グループ_711" data-name="グループ 711">
              <g id="グループ_710" data-name="グループ 710" clip-path="url(#clip-path-4)">
                <path id="パス_1609" data-name="パス 1609" d="M27.487,29.95,16.451,40.986Z" transform="translate(-16.451 -29.95)" fill="#b6cc29"/>
              </g>
            </g>
          </g>
          <path id="パス_1610" data-name="パス 1610" d="M7.99,0A8,8,0,0,0,0,7.99v.555L8.545,0Z" transform="translate(0.334 -0.277)" fill="#dce697"/>
          <path id="パス_1611" data-name="パス 1611" d="M4.993,10.486a1.5,1.5,0,0,1,1.5-1.5H9.323L18.311,0H8.545L0,8.545v9.766l4.993-4.993Z" transform="translate(0.334 -0.277)" fill="#fefadb"/>
          <path id="パス_1612" data-name="パス 1612" d="M6.492,18.993a1.5,1.5,0,0,1-1.5-1.5v-4.16L0,18.328v9.652c0,.036,0,.071,0,.107l9.1-9.1Z" transform="translate(0.334 -0.294)" fill="#dce697"/>
          <path id="パス_1613" data-name="パス 1613" d="M13.495,8.988a1.5,1.5,0,0,1,1.5,1.5V13.1L28.082.006C28.047,0,28.012,0,27.976,0H18.323L9.335,8.988Z" transform="translate(0.322 -0.277)" fill="#dce697"/>
          <path id="パス_1614" data-name="パス 1614" d="M14.98,17.477a1.5,1.5,0,0,1-1.5,1.5H9.1l-9.1,9.1a7.976,7.976,0,0,0,3.366,6.4l4.52-4.52a2.992,2.992,0,1,1,3.084-3.084l10-10V10.486a1.5,1.5,0,0,1,1.5-1.5h6.384l5.617-5.617a7.976,7.976,0,0,0-6.4-3.366L14.98,13.1Z" transform="translate(0.334 -0.277)" fill="#fefadb"/>
          <rect id="長方形_614" data-name="長方形 614" width="18.513" height="0.001" transform="translate(12.604 6.273)" fill="#fefadb"/>
          <path id="パス_1615" data-name="パス 1615" d="M9.1,19l-9.1,9.1v0L9.1,19Z" transform="translate(0.334 -0.302)" fill="#fefadb"/>
          <path id="パス_1616" data-name="パス 1616" d="M29.5,8.993a1.5,1.5,0,0,1,1.5,1.5v6.164l4.993-4.993V7.994a7.955,7.955,0,0,0-1.482-4.618L28.892,8.993Z" transform="translate(0.297 -0.281)" fill="#dce697"/>
          <path id="パス_1617" data-name="パス 1617" d="M20.977,17.5v-.607l-10,10c0,.033.01.064.01.1a3,3,0,0,1-3,3c-.034,0-.064-.009-.1-.01l-4.52,4.52a7.948,7.948,0,0,0,4.618,1.482h2.361L4,40.968H6.667L28.638,19H22.475a1.5,1.5,0,0,1-1.5-1.5" transform="translate(0.33 -0.299)" fill="#dce697"/>
          <path id="パス_1618" data-name="パス 1618" d="M30.968,16.664v.828a1.5,1.5,0,0,1-1.5,1.5h-.828L6.671,40.961h9.767L27.474,29.925a2.991,2.991,0,1,1,3.444-3.443l5.043-5.043V11.671Z" transform="translate(0.326 -0.292)" fill="#fefadb"/>
          <path id="パス_1619" data-name="パス 1619" d="M30.981,26.993a3,3,0,0,1-3,3,3.032,3.032,0,0,1-.5-.05L16.451,40.974h9.766l2.536-2.536-3.129-2.458h2.361a7.957,7.957,0,0,0,4.973-1.748l1.268-1.268a7.955,7.955,0,0,0,1.748-4.973v-6.54l-5.043,5.043a3.032,3.032,0,0,1,.05.5" transform="translate(0.313 -0.305)" fill="#dce697"/>
          <path id="パス_1620" data-name="パス 1620" d="M28.765,38.461,26.23,41h5.762Z" transform="translate(0.3 -0.327)" fill="#fefadb"/>
          <path id="パス_1621" data-name="パス 1621" d="M34.248,32.981,32.98,34.248a8.054,8.054,0,0,0,1.268-1.267" transform="translate(0.291 -0.32)" fill="#fefadb"/>
        </g>
      </g>
    </g>
  </g>
  <g id="前面オブジェクトで型抜き_11" data-name="前面オブジェクトで型抜き 11" transform="translate(0 0)" fill="none">
    <path d="M31.959,40.946H3.994l6.356-4.993H7.989A8,8,0,0,1,0,27.963V7.989A8,8,0,0,1,7.989,0H27.963a8,8,0,0,1,7.99,7.989V27.963a8,8,0,0,1-7.99,7.99H25.6l6.354,4.991Zm-4-16.978a3,3,0,1,0,3,3A3,3,0,0,0,27.963,23.969Zm-19.974,0a3,3,0,1,0,3,3A3,3,0,0,0,7.989,23.969ZM22.472,8.988a1.5,1.5,0,0,0-1.5,1.5v6.987a1.5,1.5,0,0,0,1.5,1.5h6.987a1.5,1.5,0,0,0,1.5-1.5V10.489a1.5,1.5,0,0,0-1.5-1.5Zm-15.979,0a1.5,1.5,0,0,0-1.5,1.5v6.987a1.5,1.5,0,0,0,1.5,1.5H13.48a1.5,1.5,0,0,0,1.5-1.5V10.489a1.5,1.5,0,0,0-1.5-1.5Z" stroke="none"/>
    <path d="M 29.0673885345459 39.9463996887207 L 22.71158981323242 34.95320129394531 L 27.9630012512207 34.95320129394531 C 31.81741142272949 34.95320129394531 34.95320129394531 31.81740951538086 34.95320129394531 27.96299934387207 L 34.95320129394531 7.989299774169922 C 34.95320129394531 4.135389804840088 31.81741142272949 0.9999998211860657 27.9630012512207 0.9999998211860657 L 7.989300727844238 0.9999998211860657 C 4.135390758514404 0.9999998211860657 1.000000596046448 4.135389804840088 1.000000596046448 7.989299774169922 L 1.000000596046448 27.96299934387207 C 1.000000596046448 31.81740951538086 4.135390758514404 34.95320129394531 7.989300727844238 34.95320129394531 L 13.24161052703857 34.95320129394531 L 6.885812282562256 39.9463996887207 L 29.0673885345459 39.9463996887207 M 27.9630012512207 22.96879959106445 C 30.16646003723145 22.96879959106445 31.9591007232666 24.76144027709961 31.9591007232666 26.96489906311035 C 31.9591007232666 29.16835975646973 30.16646003723145 30.96100044250488 27.9630012512207 30.96100044250488 C 25.75954055786133 30.96100044250488 23.96689987182617 29.16835975646973 23.96689987182617 26.96489906311035 C 23.96689987182617 24.76144027709961 25.75954055786133 22.96879959106445 27.9630012512207 22.96879959106445 M 7.989300727844238 22.96879959106445 C 10.1927604675293 22.96879959106445 11.98540019989014 24.76144027709961 11.98540019989014 26.96489906311035 C 11.98540019989014 29.16835975646973 10.1927604675293 30.96100044250488 7.989300727844238 30.96100044250488 C 5.785840511322021 30.96100044250488 3.993200540542603 29.16835975646973 3.993200540542603 26.96489906311035 C 3.993200540542603 24.76144027709961 5.785840511322021 22.96879959106445 7.989300727844238 22.96879959106445 M 22.47210121154785 7.98829984664917 L 29.45880126953125 7.98829984664917 C 30.83747100830078 7.98829984664917 31.9591007232666 9.109930038452148 31.9591007232666 10.48859977722168 L 31.9591007232666 17.47529983520508 C 31.9591007232666 18.85396957397461 30.83747100830078 19.97559928894043 29.45880126953125 19.97559928894043 L 22.47210121154785 19.97559928894043 C 21.09393119812012 19.97559928894043 19.97270011901855 18.85396957397461 19.97270011901855 17.47529983520508 L 19.97270011901855 10.48859977722168 C 19.97270011901855 9.109930038452148 21.09393119812012 7.98829984664917 22.47210121154785 7.98829984664917 M 6.493500709533691 7.98829984664917 L 13.48020076751709 7.98829984664917 C 14.85887050628662 7.98829984664917 15.98050022125244 9.109930038452148 15.98050022125244 10.48859977722168 L 15.98050022125244 17.47529983520508 C 15.98050022125244 18.85396957397461 14.85887050628662 19.97559928894043 13.48020076751709 19.97559928894043 L 6.493500709533691 19.97559928894043 C 5.114830493927002 19.97559928894043 3.993200540542603 18.85396957397461 3.993200540542603 17.47529983520508 L 3.993200540542603 10.48859977722168 C 3.993200540542603 9.109930038452148 5.114830493927002 7.98829984664917 6.493500709533691 7.98829984664917 M 31.9589900970459 40.9463996887207 L 3.994200706481934 40.9463996887207 L 10.35000038146973 35.95320129394531 L 7.989300727844238 35.95320129394531 C 3.583990573883057 35.95320129394531 6.469726372415607e-07 32.36880874633789 6.469726372415607e-07 27.96299934387207 L 6.469726372415607e-07 7.989299774169922 C 6.469726372415607e-07 3.583989858627319 3.583990573883057 -1.556396540536298e-07 7.989300727844238 -1.556396540536298e-07 L 27.9630012512207 -1.556396540536298e-07 C 32.36880874633789 -1.556396540536298e-07 35.95320129394531 3.583989858627319 35.95320129394531 7.989299774169922 L 35.95320129394531 27.96299934387207 C 35.95320129394531 32.36880874633789 32.36880874633789 35.95320129394531 27.9630012512207 35.95320129394531 L 25.60320091247559 35.95320129394531 L 31.9589900970459 40.9463996887207 Z M 27.9630012512207 23.96879959106445 C 26.31093978881836 23.96879959106445 24.96689987182617 25.31283950805664 24.96689987182617 26.96489906311035 C 24.96689987182617 28.6169605255127 26.31093978881836 29.96100044250488 27.9630012512207 29.96100044250488 C 29.61506080627441 29.96100044250488 30.9591007232666 28.6169605255127 30.9591007232666 26.96489906311035 C 30.9591007232666 25.31283950805664 29.61506080627441 23.96879959106445 27.9630012512207 23.96879959106445 Z M 7.989300727844238 23.96879959106445 C 6.337240695953369 23.96879959106445 4.993200778961182 25.31283950805664 4.993200778961182 26.96489906311035 C 4.993200778961182 28.6169605255127 6.337240695953369 29.96100044250488 7.989300727844238 29.96100044250488 C 9.641360282897949 29.96100044250488 10.98540019989014 28.6169605255127 10.98540019989014 26.96489906311035 C 10.98540019989014 25.31283950805664 9.641360282897949 23.96879959106445 7.989300727844238 23.96879959106445 Z M 22.47210121154785 8.988299369812012 C 21.64533042907715 8.988299369812012 20.97270011901855 9.661330223083496 20.97270011901855 10.48859977722168 L 20.97270011901855 17.47529983520508 C 20.97270011901855 18.30257034301758 21.64533042907715 18.97559928894043 22.47210121154785 18.97559928894043 L 29.45880126953125 18.97559928894043 C 30.28606986999512 18.97559928894043 30.9591007232666 18.30257034301758 30.9591007232666 17.47529983520508 L 30.9591007232666 10.48859977722168 C 30.9591007232666 9.661330223083496 30.28606986999512 8.988299369812012 29.45880126953125 8.988299369812012 L 22.47210121154785 8.988299369812012 Z M 6.493500709533691 8.988299369812012 C 5.66623067855835 8.988299369812012 4.993200778961182 9.661330223083496 4.993200778961182 10.48859977722168 L 4.993200778961182 17.47529983520508 C 4.993200778961182 18.30257034301758 5.66623067855835 18.97559928894043 6.493500709533691 18.97559928894043 L 13.48020076751709 18.97559928894043 C 14.30747032165527 18.97559928894043 14.98050022125244 18.30257034301758 14.98050022125244 17.47529983520508 L 14.98050022125244 10.48859977722168 C 14.98050022125244 9.661330223083496 14.30747032165527 8.988299369812012 13.48020076751709 8.988299369812012 L 6.493500709533691 8.988299369812012 Z" stroke="none" fill="#153d26"/>
  </g>
</svg>
