<svg id="グループ_722" data-name="グループ 722" xmlns="http://www.w3.org/2000/svg" xmlns:xlink="http://www.w3.org/1999/xlink" width="38.354" height="39.535" viewBox="0 0 38.354 39.535">
  <defs>
    <clipPath id="clip-path">
      <rect id="長方形_619" data-name="長方形 619" width="36.398" height="36.395" fill="none"/>
    </clipPath>
  </defs>
  <g id="グループ_721" data-name="グループ 721" transform="translate(1.181 3.139)">
    <g id="グループ_720" data-name="グループ 720" transform="translate(0 0)" clip-path="url(#clip-path)">
      <path id="パス_1626" data-name="パス 1626" d="M5.709,11.137,2.777,20.418,16.855,6.34,7.574,9.272a2.857,2.857,0,0,0-1.865,1.865" transform="translate(0.503 1.149)" fill="#dce697"/>
      <path id="パス_1627" data-name="パス 1627" d="M28.479,1.384a4.725,4.725,0,0,0-6.682,0L17.621,5.561l5.011,5.011L30.15,3.055Z" transform="translate(3.193 0)" fill="#fefadb"/>
      <path id="パス_1628" data-name="パス 1628" d="M19.5,5.767l-2.138.676L3.279,20.524,0,30.9l1.3,1.305,9.568-9.568a2.864,2.864,0,0,1-.175-.986,2.777,2.777,0,0,1,.04-.474,2.844,2.844,0,0,1,4.9-1.464l8.905-8.9Z" transform="translate(0 1.045)" fill="#fefadb"/>
      <rect id="長方形_618" data-name="長方形 618" width="19.911" height="0.003" transform="translate(3.278 21.566) rotate(-45)" fill="#fefadb"/>
      <path id="パス_1629" data-name="パス 1629" d="M31.051,10.938a4.725,4.725,0,0,0,0-6.682l-1.67-1.67L21.864,10.1l5.011,5.012Z" transform="translate(3.962 0.468)" fill="#dce697"/>
      <path id="パス_1630" data-name="パス 1630" d="M29.074,15.077l-5.041-5.04-8.905,8.9a2.849,2.849,0,0,1-2.56,4.757L2.813,33.452l1.128,1.125h0L14.325,31.3,28.394,17.226Z" transform="translate(0.51 1.819)" fill="#dce697"/>
      <path id="パス_1631" data-name="パス 1631" d="M23.7,25.4l2.931-9.274L12.559,30.192l9.274-2.931A2.862,2.862,0,0,0,23.7,25.4" transform="translate(2.276 2.922)" fill="#fefadb"/>
    </g>
  </g>
  <g id="グループ_718" data-name="グループ 718" transform="translate(0 0)">
    <g id="長方形_617" data-name="長方形 617" transform="translate(28.331 0) rotate(45)" fill="none" stroke="#153d26" stroke-width="1">
      <path d="M4,0h6.175a4,4,0,0,1,4,4V9.112a0,0,0,0,1,0,0H0a0,0,0,0,1,0,0V4A4,4,0,0,1,4,0Z" stroke="none"/>
      <path d="M4,.5h6.175a3.5,3.5,0,0,1,3.5,3.5V8.612a0,0,0,0,1,0,0H.5a0,0,0,0,1,0,0V4A3.5,3.5,0,0,1,4,.5Z" fill="none"/>
    </g>
    <g id="前面オブジェクトで型抜き_16" data-name="前面オブジェクトで型抜き 16" transform="translate(0 8.77)" fill="none">
      <path d="M4.451,29.584h0L3.322,28.457,13.077,18.7a2.859,2.859,0,1,0-2.385-2.82,2.849,2.849,0,0,0,.175.987L1.3,26.435,0,25.134,6.212,5.474A2.858,2.858,0,0,1,8.077,3.609L19.5,0,29.584,10.084l-3.61,11.423a2.862,2.862,0,0,1-1.865,1.865L4.452,29.583Z" stroke="none"/>
      <path d="M 4.754313945770264 28.4390869140625 L 23.80771446228027 22.41859436035156 C 24.38485527038574 22.23604393005371 24.83817481994629 21.78278350830078 25.02038383483887 21.20606422424316 L 28.44705581665039 10.36220645904541 L 19.22111892700195 1.136497139930725 L 8.377494812011719 4.562973976135254 C 7.801004886627197 4.744613647460938 7.348114967346191 5.197613716125488 7.165884971618652 5.775163650512695 L 1.136431813240051 24.8560848236084 L 1.300612211227417 25.02037811279297 L 9.752898216247559 16.56893920898438 C 9.712366104125977 16.34360694885254 9.691954612731934 16.11427307128906 9.691954612731934 15.88256359100342 C 9.691954612731934 13.7548942565918 11.42322444915771 12.0239143371582 13.55124473571777 12.0239143371582 C 15.6787052154541 12.0239143371582 17.40952491760254 13.7548942565918 17.40952491760254 15.88256359100342 C 17.40952491760254 18.01023292541504 15.6787052154541 19.74121475219727 13.55124473571777 19.74121475219727 C 13.51866817474365 19.74121475219727 13.48606491088867 19.74080085754395 13.45345973968506 19.7399787902832 L 4.754313945770264 28.4390869140625 M 4.45096492767334 29.58366394042969 L 4.449944972991943 29.58153343200684 L 3.322384834289551 28.45679473876953 L 13.07714462280273 18.70207405090332 C 13.23225498199463 18.72793388366699 13.39144515991211 18.74121475219727 13.55124473571777 18.74121475219727 C 15.12730503082275 18.74121475219727 16.40952491760254 17.45883369445801 16.40952491760254 15.88256359100342 C 16.40952491760254 14.30629348754883 15.12730503082275 13.0239143371582 13.55124473571777 13.0239143371582 C 11.97462463378906 13.0239143371582 10.69195461273193 14.30629348754883 10.69195461273193 15.88256359100342 C 10.69195461273193 16.22176361083984 10.7507848739624 16.55372428894043 10.86684513092041 16.86924362182617 L 1.300334692001343 26.43479347229004 L 4.749756044475362e-06 25.13357353210449 L 6.21235466003418 5.473854064941406 C 6.492544651031494 4.585864067077637 7.189594745635986 3.8887939453125 8.076974868774414 3.609193801879883 L 19.49883460998535 3.877563358400948e-06 L 29.58355522155762 10.08447360992432 L 25.97390556335449 21.50737380981445 C 25.69370460510254 22.39429473876953 24.99665451049805 23.09136390686035 24.10928535461426 23.37203407287598 L 4.45096492767334 29.58366394042969 Z" stroke="none" fill="#153d26"/>
    </g>
  </g>
</svg>
