<svg xmlns="http://www.w3.org/2000/svg" xmlns:xlink="http://www.w3.org/1999/xlink" width="45.519" height="45.441" viewBox="0 0 45.519 45.441">
  <defs>
    <clipPath id="clip-path">
      <rect id="長方形_535" data-name="長方形 535" width="44.021" height="43.942" fill="#fefadb"/>
    </clipPath>
  </defs>
  <g id="グループ_1144" data-name="グループ 1144" transform="translate(-36.595 -1544.064)">
    <g id="グループ_586" data-name="グループ 586" transform="translate(38.094 1545.563)">
      <g id="グループ_585" data-name="グループ 585" transform="translate(0 0)" clip-path="url(#clip-path)">
        <path id="パス_1398" data-name="パス 1398" d="M16.412,0a5.484,5.484,0,0,0-5.486,5.482c0,.168.007.335.022.5h-.022l.481,3.972,8.588-8.588A5.435,5.435,0,0,0,16.412,0" transform="translate(1.099 0)" fill="#fefadb"/>
        <path id="パス_1399" data-name="パス 1399" d="M18.064,10.574A5.458,5.458,0,0,0,19.951,1.24L11.363,9.828l1.162,9.6L18.2,13.751Z" transform="translate(1.142 0.125)" fill="#dce697"/>
        <path id="パス_1400" data-name="パス 1400" d="M9.642,20.219,9.057,15.4A13.946,13.946,0,0,0,.306,31.365l4.513-4.513a9.27,9.27,0,0,1,4.823-6.632" transform="translate(0 1.548)" fill="#dce697"/>
        <path id="パス_1401" data-name="パス 1401" d="M5.711,31.726a9.241,9.241,0,0,1-.92-5.919L.278,30.319a13.914,13.914,0,0,0,3.795,6.968l3.3-3.3a9.313,9.313,0,0,1-1.663-2.258" transform="translate(0.028 2.595)" fill="#fefadb"/>
        <path id="パス_1402" data-name="パス 1402" d="M13.431,26.649h1.384l5.989-5.989H18.438l-.11-2.548h5.025l5.422-5.422H18.255a.537.537,0,0,0-.156.023l0-.1-5.676,5.676Z" transform="translate(1.249 1.268)" fill="#fefadb"/>
        <path id="パス_1403" data-name="パス 1403" d="M4.791,25.805.278,30.319h0l4.513-4.512v0" transform="translate(0.028 2.594)" fill="#fff"/>
        <rect id="長方形_534" data-name="長方形 534" width="8.026" height="0.001" transform="translate(12.492 16.714)" fill="#fff"/>
        <path id="パス_1404" data-name="パス 1404" d="M28.224,18.1a.478.478,0,0,0,.5-.452V13.134a.478.478,0,0,0-.5-.452h-.448L22.354,18.1Z" transform="translate(2.248 1.275)" fill="#dce697"/>
        <path id="パス_1405" data-name="パス 1405" d="M20.994,28.77l.232-.232h-.183c-.012.079-.035.154-.05.232" transform="translate(2.111 2.869)" fill="#dce697"/>
        <path id="パス_1406" data-name="パス 1406" d="M25.359,25.913l5.389-5.39a2.377,2.377,0,0,1-.234-.587c-.01.007-.017.007-.017,0s-.291-.012-.645-.012H20.586L14.6,25.913Z" transform="translate(1.468 2.003)" fill="#dce697"/>
        <path id="パス_1407" data-name="パス 1407" d="M7.028,33.237l-3.3,3.3a13.892,13.892,0,0,0,6.992,3.77l4.5-4.5a9.315,9.315,0,0,1-8.195-2.568" transform="translate(0.375 3.342)" fill="#dce697"/>
        <path id="パス_1408" data-name="パス 1408" d="M25.622,25.858a1.213,1.213,0,0,1,.956.563l2.848,5.149,4.152-4.153c-1.648-2.9-3.234-5.748-3.812-6.95l-5.389,5.39Z" transform="translate(2.451 2.058)" fill="#fefadb"/>
        <path id="パス_1409" data-name="パス 1409" d="M12.947,41.073a14,14,0,0,0,13.036-8.936l-1.778-3.6H22.324l-.232.232a9.273,9.273,0,0,1-7.508,7.507l-4.5,4.5a13.963,13.963,0,0,0,2.841.292Z" transform="translate(1.013 2.869)" fill="#fefadb"/>
        <path id="パス_1410" data-name="パス 1410" d="M32.643,37.588a.626.626,0,0,0,.216.217L39.767,30.9l-.891-1.646,0-.007a.355.355,0,0,0-.484-.131L35.416,30.8c-.708-1.23-1.509-2.629-2.3-4.019l-4.152,4.153Z" transform="translate(2.912 2.693)" fill="#dce697"/>
        <path id="パス_1411" data-name="パス 1411" d="M32.533,37.459v0a.376.376,0,0,0,.248.1.352.352,0,0,0,.1-.014.631.631,0,0,0,.278-.079l3.951-2.185.051-.031,3.4-1.837a.361.361,0,0,0,.145-.489l-1.3-2.4L32.5,37.429c.012.008.018.023.03.03" transform="translate(3.268 3.069)" fill="#fefadb"/>
      </g>
    </g>
    <path id="前面オブジェクトで型抜き_9" data-name="前面オブジェクトで型抜き 9" d="M14.372,43.943a14.353,14.353,0,0,1-5.05-27.791l.591-.223.7,5.759-.3.159A8.744,8.744,0,1,0,18.45,37.326a8.778,8.778,0,0,0,4.572-6.409l.064-.42h2.784l2,4.04-.078.2A14.325,14.325,0,0,1,14.372,43.943ZM9.083,17.317a13.367,13.367,0,1,0,17.7,17.265l-1.533-3.094H23.926a9.716,9.716,0,0,1-12.435,7.395A9.735,9.735,0,0,1,9.546,21.135ZM35.243,41.373h0a.865.865,0,0,1-.542-.194,1.13,1.13,0,0,1-.384-.408L27.83,29.047a.71.71,0,0,0-.545-.305H13.56L10.867,6.5a3.391,3.391,0,0,1-.005-.412l0-.155A5.957,5.957,0,0,1,16.812,0h.013a5.953,5.953,0,0,1,5.932,5.96,5.906,5.906,0,0,1-3.75,5.513l.1,2.4h10.6a.971.971,0,0,1,.975.92v4.522a.969.969,0,0,1-.969.946H19.386l.067,1.541h11.09c.2,0,.366,0,.512.009l.016-.011h.33l.57,1.072c.255.511.663,1.279,1.213,2.282l1,1.885.034-.018c.914,1.633,2.081,3.686,3.47,6.1l2.522-1.435a.85.85,0,0,1,1.156.316l.065.127,2.121,3.89a.86.86,0,0,1-.339,1.157l-3.389,1.83L35.86,41.217a1.159,1.159,0,0,1-.441.136A.855.855,0,0,1,35.243,41.373Zm0-.991.372.4-.241-.433,7.24-3.975-2.045-3.75-3.25,1.849-.245-.428c-3.69-6.41-5.727-10.089-6.228-11.25H18.5l-.15-3.525H29.7V14.822l-10.9.045-.6.17-.051-.623-.155-3.639.358-.116A4.956,4.956,0,0,0,16.823.991h-.011a4.963,4.963,0,0,0-4.956,4.944l0,.183v.021a2.522,2.522,0,0,0,0,.259L14.44,27.752H27.313a1.7,1.7,0,0,1,1.371.793l6.649,11.872A.124.124,0,0,0,35.247,40.382Z" transform="translate(37.095 1544.564)" fill="#153d26" stroke="rgba(0,0,0,0)" stroke-miterlimit="10" stroke-width="1"/>
  </g>
</svg>
