<svg xmlns="http://www.w3.org/2000/svg" xmlns:xlink="http://www.w3.org/1999/xlink" width="34.023" height="43.902" viewBox="0 0 34.023 43.902">
  <defs>
    <clipPath id="clip-path">
      <rect id="長方形_577" data-name="長方形 577" width="32.463" height="41.697" fill="none"/>
    </clipPath>
    <clipPath id="clip-path-2">
      <rect id="長方形_664" data-name="長方形 664" width="32.078" height="42.7" transform="translate(0 0)" fill="none"/>
    </clipPath>
  </defs>
  <g id="グループ_1142" data-name="グループ 1142" transform="translate(-171.461 -1445.511)">
    <g id="グループ_622" data-name="グループ 622" transform="translate(173.021 1447.716)">
      <path id="パス_1471" data-name="パス 1471" d="M24.716,41.75l1.739-1.739Z" transform="translate(-0.032 -0.052)" fill="#35995f"/>
      <g id="グループ_621" data-name="グループ 621">
        <g id="グループ_620" data-name="グループ 620" clip-path="url(#clip-path)">
          <path id="パス_1472" data-name="パス 1472" d="M3,.542A.52.52,0,0,0,2.5,0H.5A.52.52,0,0,0,0,.542L.006,7.778,3,4.788Z" transform="translate(0 0)" fill="#dce697"/>
          <path id="パス_1473" data-name="パス 1473" d="M7.5,0h-2A.5.5,0,0,0,5,.5V2.79L7.724.066A.491.491,0,0,0,7.5,0" transform="translate(-0.007 0)" fill="#dce697"/>
          <path id="パス_1474" data-name="パス 1474" d="M13,.542A.52.52,0,0,0,12.5,0h-2a.52.52,0,0,0-.5.538V7.563l2.984-2.984Z" transform="translate(-0.013 0)" fill="#fefadb"/>
          <path id="パス_1475" data-name="パス 1475" d="M7.99.5A.494.494,0,0,0,7.718.066L4.993,2.79v8H3v-6L.006,7.777l0,3.017H0a31.349,31.349,0,0,0,.387,4.354c.337.337.7.643,1.055.959L7.99,9.561Z" transform="translate(0 0)" fill="#fefadb"/>
          <path id="パス_1476" data-name="パス 1476" d="M8.988,18.111v.251l1.056-1.056c-.351.271-.69.555-1.056.8" transform="translate(-0.012 -0.023)" fill="#dce697"/>
          <path id="パス_1477" data-name="パス 1477" d="M10.034,17.289l2.7-2.7c.142-1.1.228-3.806.228-3.806h0V10.76l.018-6.175L9.989,7.569V10.79h-2V9.566L1.444,16.113a24.338,24.338,0,0,0,2.541,2.008v5.217l4.993-4.993v-.251c.366-.25.705-.534,1.056-.8" transform="translate(-0.002 -0.006)" fill="#dce697"/>
          <path id="パス_1478" data-name="パス 1478" d="M24.249,0c-4.366,0-7.928,4.988-8.2,11.29L26.76.576A5.879,5.879,0,0,0,24.249,0" transform="translate(-0.021 0)" fill="#dce697"/>
          <path id="パス_1479" data-name="パス 1479" d="M8.982,18.364,3.988,23.358v9.765L8.982,28.13Z" transform="translate(-0.005 -0.024)" fill="#fefadb"/>
          <path id="パス_1480" data-name="パス 1480" d="M12.678,14.977a2.813,2.813,0,0,0,.066-.372L10.051,17.3a23.1,23.1,0,0,0,2.627-2.321" transform="translate(-0.013 -0.019)" fill="#fefadb"/>
          <path id="パス_1481" data-name="パス 1481" d="M16.019,12.07a8.929,8.929,0,0,0,2.02,5.349,6.1,6.1,0,0,0,.715.93L31.281,5.822A9.707,9.707,0,0,0,26.761.578L16.046,11.293c-.011.258-.027.514-.027.777" transform="translate(-0.021 -0.001)" fill="#fefadb"/>
          <path id="パス_1482" data-name="パス 1482" d="M10.044,17.306,8.988,18.362h0L10.05,17.3l-.006,0" transform="translate(-0.012 -0.023)" fill="#fefadb"/>
          <path id="パス_1483" data-name="パス 1483" d="M10.051,17.3l2.692-2.692v0l-2.7,2.7.006,0" transform="translate(-0.013 -0.019)" fill="#fefadb"/>
          <rect id="長方形_576" data-name="長方形 576" width="7.062" height="0.001" transform="translate(3.983 23.333) rotate(-45)" fill="#fefadb"/>
          <path id="パス_1484" data-name="パス 1484" d="M16.046,11.291h0L26.761.578h0Z" transform="translate(-0.021 -0.001)" fill="#fefadb"/>
          <path id="パス_1485" data-name="パス 1485" d="M26.456,20.453l.333-.333c-.111.024-.22.053-.333.071Z" transform="translate(-0.035 -0.026)" fill="#dce697"/>
          <path id="パス_1486" data-name="パス 1486" d="M8.981,28.142,3.988,33.135v7.6a1,1,0,0,0,1,1h.169l3.826-3.826Z" transform="translate(-0.005 -0.037)" fill="#dce697"/>
          <path id="パス_1487" data-name="パス 1487" d="M22.058,20.2v4.62l4.389-4.389v-.262c.112-.018.222-.047.333-.071l5.368-5.368a8.611,8.611,0,0,0,.335-2.657,16.4,16.4,0,0,0-1.2-6.248L18.758,18.356a6.126,6.126,0,0,0,3.3,1.848" transform="translate(-0.025 -0.008)" fill="#dce697"/>
          <path id="パス_1488" data-name="パス 1488" d="M8.983,40.748V37.922L5.157,41.747H7.984a1,1,0,0,0,1-1" transform="translate(-0.007 -0.05)" fill="#fefadb"/>
          <path id="パス_1489" data-name="パス 1489" d="M22.062,34.608l4.389-4.389V20.453l-4.389,4.389Z" transform="translate(-0.029 -0.027)" fill="#fefadb"/>
          <path id="パス_1490" data-name="パス 1490" d="M30.852,17.437a8.641,8.641,0,0,0,1.306-2.692L26.79,20.113a6.657,6.657,0,0,0,4.062-2.675" transform="translate(-0.035 -0.019)" fill="#fefadb"/>
          <path id="パス_1491" data-name="パス 1491" d="M22.062,34.621v6.117a1,1,0,0,0,1,1h1.652L26.451,40V30.232Z" transform="translate(-0.029 -0.04)" fill="#dce697"/>
          <path id="パス_1492" data-name="パス 1492" d="M25.455,41.75a1,1,0,0,0,1-1v-.739L24.716,41.75Z" transform="translate(-0.032 -0.052)" fill="#fefadb"/>
        </g>
      </g>
    </g>
    <g id="グループ_1025" data-name="グループ 1025" transform="translate(171.461 1445.511)">
      <g id="グループ_1024" data-name="グループ 1024" clip-path="url(#clip-path-2)">
        <path id="パス_2239" data-name="パス 2239" d="M12.977,0h-2.02a1.012,1.012,0,0,0-.71.327,1,1,0,0,0-.27.712v9.742h-1V1a1,1,0,0,0-1-1H6A1,1,0,0,0,5,1v9.782H4V1.04A1,1,0,0,0,3.731.328,1.016,1.016,0,0,0,3.021,0H1A1.026,1.026,0,0,0,0,1.054l.03,10.2a37.59,37.59,0,0,0,.314,4.343l.034.117.085.088a23.69,23.69,0,0,0,3.55,3.048V41.2a1.5,1.5,0,0,0,1.5,1.5H8.465a1.5,1.5,0,0,0,1.5-1.5V18.847A23.683,23.683,0,0,0,13.514,15.8l.085-.088.035-.117a37.812,37.812,0,0,0,.313-4.343l.03-10.2a1.025,1.025,0,0,0-1-1.054m-.03,11.258c-.04,1.261-.141,3.344-.25,3.949a22.668,22.668,0,0,1-3.515,2.965l-.217.149V41.2a.5.5,0,0,1-.5.5H5.513a.5.5,0,0,1-.5-.5V18.321L4.8,18.172A22.762,22.762,0,0,1,1.28,15.207c-.109-.6-.209-2.688-.25-3.949L1,1.036,3,1V11.782H6V1H7.977V11.782h3V1l2,.036Z" fill="#153d26"/>
        <path id="パス_2240" data-name="パス 2240" d="M23.406,0V0h-.027V0c-4.785.046-8.671,5.665-8.672,12.587a9.4,9.4,0,0,0,2.1,5.6,6.655,6.655,0,0,0,3.94,2.91V41.2a1.5,1.5,0,0,0,1.5,1.5h2.3a1.5,1.5,0,0,0,1.5-1.5v-20.1a6.661,6.661,0,0,0,3.941-2.91,9.41,9.41,0,0,0,2.094-5.6C32.077,5.667,28.192.048,23.406,0m5.766,17.6a5.711,5.711,0,0,1-3.727,2.6l-.4.079V41.2a.5.5,0,0,1-.5.5h-2.3a.5.5,0,0,1-.5-.5V20.287l-.4-.079a5.716,5.716,0,0,1-3.727-2.6,8.467,8.467,0,0,1-1.906-5.032c0-6.359,3.445-11.534,7.686-11.571,4.241.037,7.684,5.212,7.685,11.571A8.46,8.46,0,0,1,29.172,17.6" fill="#153d26"/>
      </g>
    </g>
  </g>
</svg>
