<svg xmlns="http://www.w3.org/2000/svg" xmlns:xlink="http://www.w3.org/1999/xlink" width="60.644" height="79.253" viewBox="0 0 60.644 79.253">
  <defs>
    <clipPath id="clip-path">
      <rect id="長方形_743" data-name="長方形 743" width="55.911" height="74.495" fill="none"/>
    </clipPath>
  </defs>
  <g id="グループ_1177" data-name="グループ 1177" transform="translate(-820.995 -1490.161)">
    <g id="グループ_1161" data-name="グループ 1161" transform="translate(825.728 1494.919)">
      <path id="パス_2416" data-name="パス 2416" d="M17.246,18.558,34.48,1.324Z" transform="translate(15.265 1.172)" fill="#393332"/>
      <path id="パス_2417" data-name="パス 2417" d="M21.811,15.326,1.738,35.4Z" transform="translate(1.538 13.566)" fill="#393332"/>
      <rect id="長方形_741" data-name="長方形 741" width="0.002" height="22.097" transform="translate(48.041 14.878)" fill="#35995f"/>
      <rect id="長方形_742" data-name="長方形 742" width="19.854" height="0.003" transform="translate(3.46 60.579)" fill="#35995f"/>
      <g id="グループ_1160" data-name="グループ 1160">
        <g id="グループ_1159" data-name="グループ 1159" clip-path="url(#clip-path)">
          <path id="パス_2418" data-name="パス 2418" d="M10.2,7.915C4.991,9.043,1.014,15,.107,23.481L15.23,8.358A8.6,8.6,0,0,0,10.2,7.915" transform="translate(0.095 6.838)" fill="#fefadb"/>
          <path id="パス_2419" data-name="パス 2419" d="M17.174,15.777c-.021,1.321.034,2.639.14,3.953L34.548,2.5a9.675,9.675,0,0,0-4.53-2.33c-6.053-1.21-12.5,4.193-12.843,15.611" transform="translate(15.198 0)" fill="#dce697"/>
          <path id="パス_2420" data-name="パス 2420" d="M15.325,8.06.2,23.185a36.056,36.056,0,0,0-.156,5.652A31.836,31.836,0,0,0,3.275,41.83L23.348,21.757c-.679-7.5-4.03-12.11-8.023-13.7" transform="translate(0 7.134)" fill="#dce697"/>
          <path id="パス_2421" data-name="パス 2421" d="M.107,23.183h0L15.23,8.06Z" transform="translate(0.095 7.134)" fill="#dce697"/>
          <path id="パス_2422" data-name="パス 2422" d="M34.482,1.325,17.246,18.561a41.8,41.8,0,0,0,3.422,13.567l4.3.437L40.59,16.94C40.233,9.917,37.9,4.345,34.482,1.325" transform="translate(15.265 1.173)" fill="#fefadb"/>
          <path id="パス_2423" data-name="パス 2423" d="M2.069,36.139l16.614-1.985a42.013,42.013,0,0,0,3.233-17.581c-.023-.43-.068-.833-.1-1.246L1.737,35.4c.119.241.207.5.332.737" transform="translate(1.537 13.567)" fill="#fefadb"/>
          <path id="パス_2424" data-name="パス 2424" d="M2.51,30.584v.366l1.636,11.5L18.183,28.412Z" transform="translate(2.221 25.149)" fill="#fefadb"/>
          <path id="パス_2425" data-name="パス 2425" d="M17.246,18.56,34.482,1.325h0L17.246,18.559Z" transform="translate(15.265 1.172)" fill="#fefadb"/>
          <path id="パス_2426" data-name="パス 2426" d="M21.812,15.329v0L1.737,35.4l0,0Z" transform="translate(1.538 13.566)" fill="#fefadb"/>
          <path id="パス_2427" data-name="パス 2427" d="M33.679,26.489a31.994,31.994,0,0,0,3.329-13.8c.032-1.056.008-2.076-.043-3.075L21.341,25.233Z" transform="translate(18.89 8.505)" fill="#dce697"/>
          <path id="パス_2428" data-name="パス 2428" d="M35.843,22.713,19.266,20.7a.786.786,0,0,0-.062.366l-1.41,11.686a7.84,7.84,0,0,0,3.6,7.524L35.454,26.212l.388-3.133Z" transform="translate(15.703 18.324)" fill="#dce697"/>
          <path id="パス_2429" data-name="パス 2429" d="M3.4,42.648a7.852,7.852,0,0,0,8.83,6.685l1.058-.153a7.858,7.858,0,0,0,6.685-8.828L18.367,28.7a.731.731,0,0,0-.06-.353l-.888.123L3.378,42.51Z" transform="translate(2.99 25.091)" fill="#dce697"/>
          <path id="パス_2430" data-name="パス 2430" d="M22.916,38.88,23.975,39a7.849,7.849,0,0,0,8.711-6.836l1.054-8.543L19.677,37.688a7.767,7.767,0,0,0,3.239,1.191" transform="translate(17.417 20.912)" fill="#fefadb"/>
        </g>
      </g>
    </g>
    <g id="グループ_1157" data-name="グループ 1157" transform="translate(822 1491.187)">
      <path id="パス_2412" data-name="パス 2412" d="M84.557,51.889a31.963,31.963,0,0,0,3.338-13.805c.347-11.42-4.317-19.769-10.681-21.024-6.053-1.211-12.506,4.192-12.844,15.612A41.834,41.834,0,0,0,67.93,50.2Z" transform="translate(-32.001 -16.893)" fill="none" stroke="#153d26" stroke-width="2"/>
      <path id="パス_2413" data-name="パス 2413" d="M83.675,62.752v.365L82.233,74.795a7.851,7.851,0,0,1-8.714,6.836l-1.059-.125a7.86,7.86,0,0,1-6.836-8.714L67.03,61.1a.773.773,0,0,1,.062-.365Z" transform="translate(-32.134 -21.712)" fill="none" stroke="#153d26" stroke-width="2"/>
      <path id="パス_2414" data-name="パス 2414" d="M31.614,68.4a31.874,31.874,0,0,1-3.56-13.734c-.57-11.42,3.943-19.858,10.254-21.22,6.079-1.308,12.6,3.97,13.156,15.39a42,42,0,0,1-3.231,17.579Z" transform="translate(-28.006 -18.691)" fill="none" stroke="#153d26" stroke-width="2"/>
      <path id="パス_2415" data-name="パス 2415" d="M33.32,79.226v.365l1.656,11.642a7.851,7.851,0,0,0,8.83,6.685l1.059-.151a7.86,7.86,0,0,0,6.685-8.83l-1.6-11.651a.721.721,0,0,0-.062-.356Z" transform="translate(-28.59 -23.492)" fill="none" stroke="#153d26" stroke-width="2"/>
    </g>
  </g>
</svg>
