<?xml version="1.0" encoding="UTF-8"?>
<svg id="_レイヤー_1" data-name="レイヤー 1" xmlns="http://www.w3.org/2000/svg" xmlns:xlink="http://www.w3.org/1999/xlink" viewBox="0 0 60 60">
  <defs>
    <style>
      .cls-1 {
        fill: #fefadb;
      }

      .cls-2 {
        fill: #dce697;
      }

      .cls-3 {
        clip-path: url(#clippath);
      }

      .cls-4, .cls-5 {
        fill: none;
      }

      .cls-5 {
        stroke: #153d26;
        stroke-width: .96px;
      }
    </style>
    <clipPath id="clippath">
      <rect class="cls-4" x="9.72" y="9" width="41.36" height="42"/>
    </clipPath>
  </defs>
  <g id="_グループ_1246" data-name="グループ 1246">
    <path id="_パス_2553" data-name="パス 2553" d="m31.66,11.58h0l-10.36,10.36,10.36-10.36Z"/>
    <g id="_グループ_1245" data-name="グループ 1245">
      <g class="cls-3">
        <g id="_グループ_1244" data-name="グループ 1244">
          <path id="_パス_2554" data-name="パス 2554" class="cls-1" d="m11.64,31.28c0,.1.01.2.02.3l9.64-9.64,10.36-10.36c-.1,0-.19-.02-.3-.02-10.89,0-19.72,8.82-19.72,19.71,0,0,0,0,0,0"/>
          <path id="_パス_2555" data-name="パス 2555" class="cls-2" d="m11.66,31.58c.04,2.66.61,5.28,1.7,7.71l12.56-12.56s-.08-.02-.12-.03c-.92-.35-1.4-1.36-1.1-2.3l.03-.1h-.01c.61-1.73,2.24-2.88,4.07-2.88h2.44l8.15-8.15c-2.43-1.08-5.05-1.66-7.71-1.69L11.66,31.58Z"/>
          <path id="_パス_2556" data-name="パス 2556" class="cls-2" d="m11.66,31.58h0l9.64-9.64-9.64,9.64Z"/>
          <path id="_パス_2557" data-name="パス 2557" class="cls-1" d="m29.52,31.9v-1.04c0-.66.36-1.27.93-1.6l3.41-1.96c.56-.32.75-1.03.43-1.59-.21-.36-.59-.59-1.01-.59h-4.49c-.26,0-.49.16-.58.41l-.03.1c-.35.9-1.34,1.38-2.26,1.1l-12.56,12.56c.93,2.08,2.21,3.98,3.79,5.62l12.47-12.47c-.06-.18-.09-.36-.1-.55"/>
          <path id="_パス_2558" data-name="パス 2558" class="cls-1" d="m33.28,21.42c1.93,0,3.67,1.15,4.45,2.91l7.27-7.27c-1.64-1.58-3.55-2.86-5.62-3.79l-8.15,8.15h2.05Z"/>
          <rect id="_長方形_788" data-name="長方形 788" class="cls-1" x="35.3" y="11.59" width="0" height="11.52"/>
          <path id="_パス_2559" data-name="パス 2559" class="cls-1" d="m25.92,26.73l-12.56,12.56h0l12.56-12.56h0"/>
          <path id="_パス_2560" data-name="パス 2560" class="cls-2" d="m28.9,38.68h0c0-1.36,1.09-2.46,2.45-2.47,1.03,0,1.95.64,2.31,1.6l15.32-15.32c-1.01-2.02-2.36-3.86-3.99-5.42l-7.27,7.27c1.01,2.27.13,4.93-2.02,6.17l-2.49,1.43c-.03,1.02-.87,1.82-1.89,1.79-.78-.02-1.46-.53-1.71-1.27l-12.47,12.47c1.57,1.63,3.4,2.98,5.42,3.99l7.93-7.93c-.96-.36-1.6-1.28-1.6-2.3"/>
          <path id="_パス_2561" data-name="パス 2561" class="cls-1" d="m51.01,29.88c-.18-2.57-.87-5.09-2.02-7.39l-15.32,15.33c.11.28.16.57.16.87,0,1.35-1.08,2.46-2.43,2.46-.31,0-.61-.05-.9-.16l-7.93,7.93c2.31,1.15,4.82,1.84,7.39,2.02l21.05-21.06Z"/>
          <path id="_パス_2562" data-name="パス 2562" class="cls-2" d="m31.36,51c4.4,0,8.68-1.48,12.14-4.2l3.38-3.38c2.72-3.46,4.2-7.73,4.2-12.14,0-.47-.04-.94-.07-1.4l-21.05,21.05c.46.03.93.07,1.4.07"/>
          <path id="_パス_2563" data-name="パス 2563" class="cls-1" d="m46.88,43.42l-3.38,3.38c1.26-.99,2.39-2.12,3.38-3.38"/>
          <path id="_パス_2564" data-name="パス 2564" class="cls-1" d="m43.5,46.8l3.38-3.38-3.38,3.38Z"/>
          <path id="_パス_2565" data-name="パス 2565" class="cls-5" d="m29.92,48.92c10.89,0,19.72-8.83,19.72-19.72s-8.83-19.72-19.72-19.72S10.2,18.31,10.2,29.2h0c0,10.89,8.83,19.72,19.72,19.72Zm-6.64-26.7c.61-1.72,2.24-2.87,4.07-2.87h4.49c2.69,0,4.86,2.18,4.86,4.87,0,1.74-.93,3.35-2.44,4.21l-2.49,1.43c-.03,1.02-.88,1.82-1.9,1.79-.99-.03-1.78-.83-1.79-1.82v-1.04c0-.66.36-1.27.93-1.6l3.41-1.96c.56-.32.75-1.03.43-1.59-.21-.36-.59-.59-1.01-.59h-4.49c-.26,0-.49.16-.58.41l-.03.1c-.36.95-1.43,1.43-2.38,1.07-.92-.35-1.4-1.36-1.1-2.3l.03-.1h0Zm4.18,14.37c0-1.36,1.1-2.46,2.46-2.46s2.46,1.1,2.46,2.46-1.1,2.46-2.46,2.46c-1.36,0-2.46-1.1-2.46-2.46Z"/>
        </g>
      </g>
    </g>
  </g>
</svg>