<svg xmlns="http://www.w3.org/2000/svg" xmlns:xlink="http://www.w3.org/1999/xlink" width="60" height="60" viewBox="0 0 60 60">
  <defs>
    <clipPath id="clip-path">
      <rect id="長方形_791" data-name="長方形 791" width="42" height="42" transform="translate(0 0)" fill="none"/>
    </clipPath>
    <clipPath id="clip-path-2">
      <rect id="長方形_544" data-name="長方形 544" width="43.353" height="43.353" fill="none"/>
    </clipPath>
  </defs>
  <g id="グループ_1252" data-name="グループ 1252" transform="translate(940 -1319)">
    <g id="グループ_1251" data-name="グループ 1251" transform="translate(-866.324 -378.324)">
      <g id="グループ_1249" data-name="グループ 1249" transform="translate(-63 1708)">
        <g id="グループ_1248" data-name="グループ 1248" clip-path="url(#clip-path)">
          <path id="パス_2567" data-name="パス 2567" d="M6.151,6.15A20.853,20.853,0,0,0,1.51,13.176L13.175,1.51A20.852,20.852,0,0,0,6.151,6.15" fill="#dce697"/>
          <path id="パス_2568" data-name="パス 2568" d="M21,0a20.846,20.846,0,0,0-7.825,1.51L1.51,13.176A20.607,20.607,0,0,0,.263,24.2L24.2.264A20.8,20.8,0,0,0,21,0" fill="#fefadb"/>
          <path id="パス_2569" data-name="パス 2569" d="M18,12.5a3.489,3.489,0,0,1,6.085-2.342L31.447,2.8A20.845,20.845,0,0,0,24.2.264L.263,24.2A20.815,20.815,0,0,0,2.8,31.447L19.158,15.085A3.48,3.48,0,0,1,18,12.5" fill="#dce697"/>
          <path id="パス_2570" data-name="パス 2570" d="M18.992,23.506a.507.507,0,0,0-.5-.506H17.5a.5.5,0,0,1-.5-.5V19.509a.5.5,0,0,1,.5-.5h6a.5.5,0,0,1,.5.5v.518L36.812,7.21c-.314-.359-.623-.721-.963-1.059a20.809,20.809,0,0,0-4.4-3.354l-7.362,7.362a3.487,3.487,0,0,1-4.926,4.927L2.8,31.448a20.828,20.828,0,0,0,3.354,4.4c.338.34.7.65,1.059.964L18.992,25.03Z" fill="#fefadb"/>
          <path id="パス_2571" data-name="パス 2571" d="M19.158,15.085,2.8,31.447h0L19.159,15.086h0" fill="#fefadb"/>
          <path id="パス_2572" data-name="パス 2572" d="M24.085,10.158h0L31.448,2.8h0Z" fill="#fefadb"/>
          <path id="パス_2573" data-name="パス 2573" d="M17.5,31.994a.5.5,0,0,1-.5-.5V28.5a.505.505,0,0,1,.5-.5l.992,0a.5.5,0,0,0,.5-.5V25.03L7.209,36.813a20.823,20.823,0,0,0,6.067,3.713l8.532-8.532Z" fill="#dce697"/>
          <path id="パス_2574" data-name="パス 2574" d="M24,27.5a.506.506,0,0,0,.506.5h.99a.5.5,0,0,1,.239.071l14.8-14.795A20.805,20.805,0,0,0,36.812,7.21L24,20.027Z" fill="#dce697"/>
          <path id="パス_2575" data-name="パス 2575" d="M21.61,41.971,41.972,21.609c.005-.2.028-.4.028-.609a20.883,20.883,0,0,0-1.474-7.724L25.73,28.071a.5.5,0,0,1,.262.434v2.988a.5.5,0,0,1-.5.5H21.808l-8.531,8.532A20.842,20.842,0,0,0,21,42c.2,0,.406-.024.61-.029" fill="#fefadb"/>
          <path id="パス_2576" data-name="パス 2576" d="M35.849,35.849a20.841,20.841,0,0,0,6.122-14.24L21.609,41.971a20.848,20.848,0,0,0,14.24-6.122" fill="#dce697"/>
        </g>
      </g>
      <g id="グループ_1250" data-name="グループ 1250" transform="translate(-65.676 1705.324)">
        <g id="グループ_596" data-name="グループ 596" transform="translate(0 0)" clip-path="url(#clip-path-2)">
          <circle id="楕円形_159" data-name="楕円形 159" cx="20.973" cy="20.973" r="20.973" transform="translate(0.657 0.393)" fill="none" stroke="#153d26" stroke-miterlimit="10" stroke-width="1"/>
          <circle id="楕円形_160" data-name="楕円形 160" cx="3.495" cy="3.495" r="3.495" transform="translate(18.633 9.381)" fill="none" stroke="#153d26" stroke-miterlimit="10" stroke-width="1"/>
          <path id="パス_1429" data-name="パス 1429" d="M18,32.483a.505.505,0,0,1-.5-.5V28.993a.505.505,0,0,1,.5-.5h1a.505.505,0,0,0,.5-.5V24a.505.505,0,0,0-.5-.5H18a.505.505,0,0,1-.5-.5V20a.5.5,0,0,1,.5-.5h5.992a.5.5,0,0,1,.5.5v7.98a.506.506,0,0,0,.5.509h1a.505.505,0,0,1,.5.5v2.986a.505.505,0,0,1-.5.5Z" transform="translate(0.134 -0.132)" fill="none" stroke="#153d26" stroke-miterlimit="10" stroke-width="1"/>
        </g>
      </g>
    </g>
    <rect id="長方形_792" data-name="長方形 792" width="60" height="60" transform="translate(-940 1319)" fill="none"/>
  </g>
</svg>
