<svg xmlns="http://www.w3.org/2000/svg" xmlns:xlink="http://www.w3.org/1999/xlink" width="50" height="11.922" viewBox="0 0 50 11.922">
  <defs>
    <clipPath id="clip-path">
      <rect id="長方形_547" data-name="長方形 547" width="47.917" height="10.838" fill="none"/>
    </clipPath>
  </defs>
  <g id="グループ_1062" data-name="グループ 1062" transform="translate(-289.379 -1563.044)">
    <g id="グループ_601" data-name="グループ 601" transform="translate(291.462 1564.128)">
      <g id="グループ_600" data-name="グループ 600" transform="translate(0 0)" clip-path="url(#clip-path)">
        <path id="パス_1448" data-name="パス 1448" d="M8.93,1.347A5.316,5.316,0,0,0,5.4,0,5.445,5.445,0,0,0,0,5.493a5.522,5.522,0,0,0,1.324,3.6Z" transform="translate(0.154 -0.312)" fill="#fefadb"/>
        <path id="パス_1449" data-name="パス 1449" d="M10.818,5.495A5.517,5.517,0,0,0,8.955,1.349L1.349,9.091a5.341,5.341,0,0,0,4.073,1.9,5.445,5.445,0,0,0,5.4-5.493" transform="translate(0.129 -0.313)" fill="#dce697"/>
        <path id="パス_1450" data-name="パス 1450" d="M19,5.493a5.527,5.527,0,0,0,1.584,3.888l7.633-7.768A5.333,5.333,0,0,0,24.4,0,5.445,5.445,0,0,0,19,5.493" transform="translate(-0.203 -0.312)" fill="#fefadb"/>
        <path id="パス_1451" data-name="パス 1451" d="M29.823,5.495a5.524,5.524,0,0,0-1.577-3.88L20.614,9.383a5.334,5.334,0,0,0,3.813,1.6,5.445,5.445,0,0,0,5.4-5.493" transform="translate(-0.233 -0.314)" fill="#dce697"/>
        <path id="パス_1452" data-name="パス 1452" d="M38,5.493a5.515,5.515,0,0,0,1.871,4.153L47.476,1.9A5.34,5.34,0,0,0,43.4,0,5.445,5.445,0,0,0,38,5.493" transform="translate(-0.56 -0.312)" fill="#fefadb"/>
        <path id="パス_1453" data-name="パス 1453" d="M39.907,9.648a5.315,5.315,0,0,0,3.525,1.34,5.446,5.446,0,0,0,5.4-5.493,5.522,5.522,0,0,0-1.317-3.588Z" transform="translate(-0.596 -0.314)" fill="#dce697"/>
        <path id="パス_1454" data-name="パス 1454" d="M48.988,11v-.654L48.345,11Z" transform="translate(-0.755 -0.325)" fill="#fefadb"/>
        <path id="パス_1455" data-name="パス 1455" d="M48.345,11l.643-.654Z" transform="translate(-0.755 -0.325)" fill="#fefadb"/>
      </g>
    </g>
    <g id="楕円形_161" data-name="楕円形 161" transform="translate(289.379 1563.044)" fill="none" stroke="#153d26" stroke-width="1">
      <circle cx="5.5" cy="5.5" r="5.5" stroke="none"/>
      <circle cx="5.5" cy="5.5" r="5" fill="none"/>
    </g>
    <g id="楕円形_161-2" data-name="楕円形 161" transform="translate(308.379 1563.044)" fill="none" stroke="#153d26" stroke-width="1">
      <circle cx="5.5" cy="5.5" r="5.5" stroke="none"/>
      <circle cx="5.5" cy="5.5" r="5" fill="none"/>
    </g>
    <g id="楕円形_161-3" data-name="楕円形 161" transform="translate(327.379 1563.044)" fill="none" stroke="#153d26" stroke-width="1">
      <circle cx="5.5" cy="5.5" r="5.5" stroke="none"/>
      <circle cx="5.5" cy="5.5" r="5" fill="none"/>
    </g>
  </g>
</svg>
