<svg xmlns="http://www.w3.org/2000/svg" xmlns:xlink="http://www.w3.org/1999/xlink" width="39.636" height="46.09" viewBox="0 0 39.636 46.09">
  <defs>
    <clipPath id="clip-path">
      <rect id="長方形_645" data-name="長方形 645" width="39.636" height="46.09" transform="translate(0 0)" fill="none"/>
    </clipPath>
  </defs>
  <g id="グループ_965" data-name="グループ 965" transform="translate(0 0)">
    <g id="グループ_964" data-name="グループ 964" clip-path="url(#clip-path)">
      <path id="パス_2212" data-name="パス 2212" d="M26.964,20.732A10.366,10.366,0,1,1,37.33,10.366,10.378,10.378,0,0,1,26.964,20.732m0-16.232a5.866,5.866,0,1,0,5.866,5.866A5.872,5.872,0,0,0,26.964,4.5" fill="#153d26"/>
      <path id="パス_2213" data-name="パス 2213" d="M26.915,26.367l-6.193-7.461,12.4,0Z" fill="#153d26"/>
      <path id="パス_2214" data-name="パス 2214" d="M20.8,15.7l4.356,4.838L23.414,22.11l-4.232-4.9Z" fill="#153d26"/>
      <path id="パス_2215" data-name="パス 2215" d="M29.965,22.61l-1.742-1.568L32.579,16.2l1.627,1.435Z" fill="#153d26"/>
      <path id="パス_2216" data-name="パス 2216" d="M38.779,30.53,31.715,20.442l-1.08,1.351,5.531,7.9-16.574,11.6L1.362,15.259,17.936,3.65l.635.907A10.3,10.3,0,0,1,19.618,3.32a4.747,4.747,0,0,0-6.049-.51L2.028,10.893A4.752,4.752,0,0,0,.86,17.511v0l18.59,26.55a4.748,4.748,0,0,0,6.612,1.169l.007,0,11.542-8.079a4.757,4.757,0,0,0,1.167-6.618M30.13,40.441a1.74,1.74,0,1,1,1.74-1.74,1.74,1.74,0,0,1-1.74,1.74" fill="#153d26"/>
    </g>
  </g>
</svg>
