<svg xmlns="http://www.w3.org/2000/svg" width="108.84" height="104.543" viewBox="0 0 108.84 104.543">
  <g id="グループ_555" data-name="グループ 555" transform="translate(0)">
    <path id="パス_1150" data-name="パス 1150" d="M3.206,3.135A4.767,4.767,0,0,0,1.637,0,5.024,5.024,0,0,0,0,3.17,4.767,4.767,0,0,0,1.57,6.3a5.024,5.024,0,0,0,1.637-3.17" transform="translate(89.303 9.758) rotate(151)" fill="#738d60"/>
    <path id="パス_1227" data-name="パス 1227" d="M12.859,111.056c24.684-21.99,26.995-61.4,8.056-90.143A69.042,69.042,0,0,0,0,0C9.345,7.589,17.994,17.175,23.747,29.05c13.738,28.467,9,60.1-10.888,82.006" transform="translate(88.693 10.972) rotate(53)" fill="#738d60"/>
    <circle id="楕円形_136" data-name="楕円形 136" cx="2.496" cy="2.496" r="2.496" transform="matrix(0.358, 0.934, -0.934, 0.358, 77.382, 41.01)" fill="#738d60"/>
    <circle id="楕円形_137" data-name="楕円形 137" cx="2.496" cy="2.496" r="2.496" transform="matrix(0.358, 0.934, -0.934, 0.358, 75.734, 64.307)" fill="#738d60"/>
    <circle id="楕円形_140" data-name="楕円形 140" cx="2.496" cy="2.496" r="2.496" transform="matrix(0.358, 0.934, -0.934, 0.358, 31.16, 79.34)" fill="#738d60"/>
    <path id="パス_1228" data-name="パス 1228" d="M4.991,4.88C5.02,2.17,2.548,0,2.548,0S.029,2.224,0,4.934s2.443,4.88,2.443,4.88S4.962,7.59,4.991,4.88" transform="translate(59.408 72.522) rotate(-178)" fill="#738d60"/>
    <path id="パス_1229" data-name="パス 1229" d="M4.991,4.88C5.02,2.17,2.548,0,2.548,0S.029,2.224,0,4.934s2.443,4.88,2.443,4.88S4.962,7.59,4.991,4.88" transform="translate(50.801 84.929) rotate(89)" fill="#738d60"/>
    <path id="パス_1230" data-name="パス 1230" d="M4.991,4.88C5.02,2.17,2.548,0,2.548,0S.029,2.224,0,4.934s2.443,4.88,2.443,4.88S4.962,7.59,4.991,4.88" transform="matrix(0.342, 0.94, -0.94, 0.342, 94.67, 34.99)" fill="#738d60"/>
    <path id="パス_1231" data-name="パス 1231" d="M2.366,2.313A3.518,3.518,0,0,0,1.208,0,3.707,3.707,0,0,0,0,2.339,3.518,3.518,0,0,0,1.158,4.652,3.707,3.707,0,0,0,2.366,2.313" transform="translate(93.564 7.259) rotate(66)" fill="#738d60"/>
    <path id="パス_1234" data-name="パス 1234" d="M4.068,3.978A6.049,6.049,0,0,0,2.077,0,6.374,6.374,0,0,0,0,4.022,6.048,6.048,0,0,0,1.991,8,6.374,6.374,0,0,0,4.068,3.978" transform="translate(91.899 8.488) rotate(-172)" fill="#738d60"/>
  </g>
</svg>
