<svg xmlns="http://www.w3.org/2000/svg" width="375.5" height="666.851" viewBox="0 0 375.5 666.851">
  <g id="グループ_1208" data-name="グループ 1208" transform="translate(-1108.5 1143.973)">
    <path id="前面オブジェクトで型抜き_33" data-name="前面オブジェクトで型抜き 33" d="M194.945,98c-20.414,0-40.648-.468-60.14-1.391-18.895-.895-37.06-2.214-53.991-3.921C47.365,89.314,19.42,84.491,0,78.743V40.283c19.423-5.749,47.368-10.571,80.814-13.945,16.933-1.708,35.1-3.027,53.991-3.921,19.481-.922,39.715-1.39,60.14-1.39,30.381,0,59.848,1.017,87.581,3.024,26.8,1.939,50.859,4.714,71.519,8.249,7.554,1.292,14.6,2.68,20.956,4.126V82.6c-6.358,1.447-13.409,2.835-20.956,4.126-20.661,3.534-44.724,6.309-71.519,8.248C254.784,96.982,225.318,98,194.945,98Z" transform="translate(1109 -1165)" fill="#153d26"/>
    <path id="パス_2456" data-name="パス 2456" d="M0,0H375V630H0Z" transform="translate(1108.945 -1124)" fill="#153d26"/>
    <path id="前面オブジェクトで型抜き_30" data-name="前面オブジェクトで型抜き 30" d="M94.085,563.839c-3.373,0-8.207-.548-12.085-3.156V544.217a18.736,18.736,0,0,1,9.278,3.458,16.359,16.359,0,0,1,4.085,4.695,23.967,23.967,0,0,1,2.257,5.185,28.023,28.023,0,0,1,1.165,5.923l-.01,0A29.042,29.042,0,0,1,94.085,563.839Z" transform="translate(1027 -1098)" fill="#455439" stroke="rgba(0,0,0,0)" stroke-miterlimit="10" stroke-width="1"/>
    <path id="パス_2458" data-name="パス 2458" d="M16,15.817c.093,8.687-7.831,15.644-7.831,15.644S.094,24.331,0,15.644,7.832,0,7.832,0,15.906,7.13,16,15.817" transform="translate(1274.425 -1009.629) rotate(-45)" fill="#455439"/>
    <path id="パス_2459" data-name="パス 2459" d="M16,15.817c.093,8.687-7.831,15.644-7.831,15.644S.094,24.331,0,15.644,7.832,0,7.832,0,15.906,7.13,16,15.817" transform="translate(1116.782 -1103.401) rotate(-45)" fill="#455439"/>
    <path id="パス_2460" data-name="パス 2460" d="M16,15.817c.093,8.687-7.831,15.644-7.831,15.644S.094,24.331,0,15.644,7.832,0,7.832,0,15.906,7.13,16,15.817" transform="matrix(0.574, 0.819, -0.819, 0.574, 1446.053, -1079.755)" fill="#455439"/>
    <path id="パス_2461" data-name="パス 2461" d="M16,15.817c.093,8.687-7.831,15.644-7.831,15.644S.094,24.331,0,15.644,7.832,0,7.832,0,15.906,7.13,16,15.817" transform="matrix(-0.588, -0.809, 0.809, -0.588, 1358.086, -767.748)" fill="#455439"/>
    <path id="前面オブジェクトで型抜き_28" data-name="前面オブジェクトで型抜き 28" d="M-12319.532-176.309h-15.166a16.116,16.116,0,0,1,1.907-6.616,15.177,15.177,0,0,1,3.786-4.359,22.229,22.229,0,0,1,4.472-2.743,25.871,25.871,0,0,1,5.292-1.835,27.6,27.6,0,0,1,1.053,5.19,24.364,24.364,0,0,1,.05,5.023,16.593,16.593,0,0,1-1.394,5.34Z" transform="translate(13691.398 -317.69)" fill="#455439" stroke="rgba(0,0,0,0)" stroke-miterlimit="10" stroke-width="1"/>
    <path id="前面オブジェクトで型抜き_32" data-name="前面オブジェクトで型抜き 32" d="M187.445,76.973C111.952,76.973,41.879,70.547,0,59.783V17.191C41.882,6.426,111.955,0,187.445,0c30.373,0,59.839,1.018,87.58,3.025,26.786,1.937,50.848,4.712,71.519,8.248,10.646,1.821,20.22,3.819,28.456,5.94V59.761c-8.239,2.121-17.813,4.119-28.456,5.94-20.667,3.535-44.73,6.31-71.519,8.249C247.28,75.956,217.814,76.973,187.445,76.973Z" transform="translate(1109 -554.096)" fill="#153d26"/>
  </g>
</svg>
