<svg xmlns="http://www.w3.org/2000/svg" width="1920.5" height="1513.409" viewBox="0 0 1920.5 1513.409">
  <g id="グループ_1207" data-name="グループ 1207" transform="translate(-1822.5 3056.206)">
    <g id="グループ_1206" data-name="グループ 1206">
      <path id="前面オブジェクトで型抜き_22" data-name="前面オブジェクトで型抜き 22" d="M-12418-197h1919.994V1204H-12418Z" transform="translate(14240.999 -2803.002)" fill="#153d26"/>
      <path id="パス_2449" data-name="パス 2449" d="M40,39.543c.232,21.719-19.576,39.11-19.576,39.11S.234,60.828,0,39.11,19.58,0,19.58,0,39.766,17.825,40,39.543" transform="translate(1862.53 -2931.08) rotate(-45)" fill="#455439"/>
      <path id="パス_2450" data-name="パス 2450" d="M40,39.543c.232,21.719-19.576,39.11-19.576,39.11S.234,60.828,0,39.11,19.58,0,19.58,0,39.766,17.825,40,39.543" transform="matrix(-0.588, -0.809, 0.809, -0.588, 3258.522, -2796.656)" fill="#455439"/>
      <path id="パス_2451" data-name="パス 2451" d="M40,39.543c.232,21.719-19.576,39.11-19.576,39.11S.234,60.828,0,39.11,19.58,0,19.58,0,39.766,17.825,40,39.543" transform="translate(2122.998 -2424.51) rotate(-151)" fill="#455439"/>
      <path id="前面オブジェクトで型抜き_23" data-name="前面オブジェクトで型抜き 23" d="M61.641,62.982h0a59.678,59.678,0,0,1-13.07-1.367,41.092,41.092,0,0,1-13.035-5.26c-.178-.113-.357-.229-.533-.345V16.5c8.916.45,16.547,2.652,22.68,6.543a40.891,40.891,0,0,1,11.2,10.8,59.915,59.915,0,0,1,6.75,12.421,70.029,70.029,0,0,1,4.191,14.5l-.006,0A76.619,76.619,0,0,1,61.641,62.982Z" transform="translate(1788 -2214)" fill="#455439" stroke="rgba(0,0,0,0)" stroke-miterlimit="10" stroke-width="1"/>
      <path id="パス_2453" data-name="パス 2453" d="M40,39.543c.232,21.719-19.576,39.11-19.576,39.11S.234,60.828,0,39.11,19.58,0,19.58,0,39.766,17.825,40,39.543" transform="matrix(0.875, -0.485, 0.485, 0.875, 3564.432, -2407.005)" fill="#455439"/>
      <path id="パス_2454" data-name="パス 2454" d="M40,39.543c.232,21.719-19.576,39.11-19.576,39.11S.234,60.828,0,39.11,19.58,0,19.58,0,39.766,17.825,40,39.543" transform="translate(3440.401 -1724.093) rotate(34)" fill="#455439"/>
      <path id="パス_2455" data-name="パス 2455" d="M40,39.543c.232,21.719-19.576,39.11-19.576,39.11S.234,60.828,0,39.11,19.58,0,19.58,0,39.766,17.825,40,39.543" transform="translate(2056.299 -1723.978) rotate(-19)" fill="#455439"/>
    </g>
    <path id="前面オブジェクトで型抜き_25" data-name="前面オブジェクトで型抜き 25" d="M960,112.412c-109.081,0-216.411-.956-319.007-2.84-99.238-1.824-192.541-4.486-277.316-7.914-83.787-3.387-157.52-7.449-219.154-12.073C82.159,84.906,33.535,79.752,0,74.266V38.146c33.543-5.487,82.166-10.64,144.519-15.319,61.633-4.624,135.367-8.686,219.154-12.073,84.775-3.427,178.078-6.09,277.316-7.914C743.585.956,850.915,0,960,0c136.814,0,269.536,1.486,394.479,4.417,60.019,1.408,117.938,3.151,172.148,5.182,53.656,2.01,104.12,4.319,149.988,6.863,45.838,2.541,87.474,5.34,123.751,8.318,36.607,3.005,68.045,6.218,93.439,9.547,9.511,1.247,18.326,2.533,26.2,3.821V74.263c-7.883,1.29-16.7,2.575-26.2,3.821-25.394,3.33-56.831,6.542-93.439,9.547-36.262,2.977-77.9,5.776-123.751,8.319-45.829,2.542-96.292,4.851-149.988,6.863-54.172,2.03-112.091,3.773-172.148,5.181C1229.532,110.926,1096.81,112.412,960,112.412Z" transform="translate(1823 -3056.206)" fill="#153d26"/>
    <path id="前面オブジェクトで型抜き_27" data-name="前面オブジェクトで型抜き 27" d="M1074,196.2c-136.825,0-269.547-1.486-394.479-4.417-60.076-1.409-118-3.153-172.149-5.182-53.681-2.011-104.145-4.32-149.987-6.863s-87.489-5.341-123.751-8.318c-36.608-3.006-68.045-6.218-93.439-9.548-9.506-1.246-18.318-2.531-26.191-3.82V121.939c7.877-1.289,16.689-2.574,26.191-3.82,25.389-3.329,56.827-6.542,93.439-9.548,36.245-2.975,77.88-5.774,123.751-8.318,45.837-2.543,96.3-4.852,149.987-6.863,54.153-2.03,112.073-3.773,172.149-5.182C804.45,85.277,937.171,83.791,1074,83.791c109.072,0,216.4.956,319.007,2.84,99.2,1.823,192.507,4.486,277.319,7.915,83.772,3.386,157.507,7.448,219.157,12.074,62.361,4.679,110.984,9.833,144.52,15.32v36.117c-33.557,5.488-82.18,10.642-144.52,15.319-61.633,4.625-135.368,8.687-219.157,12.074-84.789,3.428-178.093,6.09-277.319,7.914C1290.419,195.248,1183.089,196.2,1074,196.2Z" transform="translate(1709 -1739)" fill="#153d26"/>
  </g>
</svg>
