<svg xmlns="http://www.w3.org/2000/svg" width="395.881" height="254.468" viewBox="0 0 395.881 254.468">
  <g id="グループ_821" data-name="グループ 821" transform="matrix(0.97, -0.242, 0.242, 0.97, -672.845, -2018.119)">
    <path id="パス_1752" data-name="パス 1752" d="M44.594-1.231C-14.745,60.891-20.051,174.53,25.778,258.557c13.729,25.919,31.425,46.435,50.54,61.528-22.57-22.423-42.079-50.922-56.022-85.519C-13,151.627-3.183,60.9,44.594-1.231" transform="translate(498.616 2402.099) rotate(140)" fill="#fff"/>
    <path id="パス_1753" data-name="パス 1753" d="M34.3-.255c-48.14,66.582-45.756,191.391-.4,285.131,13.632,28.9,30.4,51.98,48.085,69.135-21.161-25.317-40.016-57.225-54.372-95.677C-6.7,166.157-3.712,66.674,34.3-.255" transform="translate(497.252 2333.779) rotate(121)" fill="#fff"/>
    <circle id="楕円形_178" data-name="楕円形 178" cx="3" cy="3" r="3" transform="translate(140.015 2219.678)" fill="#fff"/>
    <circle id="楕円形_179" data-name="楕円形 179" cx="3" cy="3" r="3" transform="translate(219.153 2205.299)" fill="#fff"/>
    <circle id="楕円形_180" data-name="楕円形 180" cx="3" cy="3" r="3" transform="translate(367.416 2270.412)" fill="#fff"/>
    <circle id="楕円形_181" data-name="楕円形 181" cx="3" cy="3" r="3" transform="translate(322.212 2216.413)" fill="#fff"/>
  </g>
</svg>
