<?xml version="1.0" encoding="UTF-8"?>
<svg id="_レイヤー_1" data-name="レイヤー 1" xmlns="http://www.w3.org/2000/svg" viewBox="0 0 100 100">
  <defs>
    <style>
      .cls-1 {
        fill: #393332;
      }
    </style>
  </defs>
  <path class="cls-1" d="m25.15,13.92c1.12-2.16,3.67-3.16,5.96-2.33l18.89,6.89,18.89-6.89c2.28-.83,4.84.17,5.96,2.33l11.91,23.11c4.35,8.43,1.56,18.49-5.82,23.67l4.75,13.03,6.2-2.27c2.51-.91,5.29.38,6.2,2.89s-.38,5.29-2.89,6.2l-10.75,3.91-10.75,3.93c-2.51.92-5.29-.38-6.2-2.89s.38-5.29,2.89-6.2l6.2-2.27-4.73-13.03c-8.98.79-17.56-5.14-19.65-14.39l-2.21-9.78-2.21,9.78c-2.09,9.27-10.67,15.18-19.65,14.39l-4.73,13.03,6.2,2.27c2.51.91,3.81,3.69,2.89,6.2s-3.69,3.81-6.2,2.89l-10.73-3.91-10.75-3.91c-2.51-.92-3.81-3.69-2.89-6.2s3.69-3.81,6.2-2.89l6.2,2.27,4.73-13.03c-7.38-5.2-10.16-15.25-5.8-23.69l11.9-23.11Zm6.65,8.22l-4.11,7.98,13.48,4.91,1.98-8.75-11.35-4.14Zm36.41,0l-11.35,4.14,1.98,8.75,13.48-4.91-4.11-7.98Z"/>
</svg>