<?xml version="1.0" encoding="UTF-8"?>
<svg id="_レイヤー_1" data-name="レイヤー 1" xmlns="http://www.w3.org/2000/svg" viewBox="0 0 100 100">
  <defs>
    <style>
      .cls-1 {
        fill: #393332;
      }
    </style>
  </defs>
  <path class="cls-1" d="m33.74,27.35c3.75,0,6.79-3.04,6.79-6.79s-3.04-6.79-6.79-6.79-6.79,3.04-6.79,6.79,3.04,6.79,6.79,6.79Zm-11.93,14.79c.14-.06.27-.11.41-.17l-2.39,8.99c-.79,2.99-.01,6.17,2.08,8.45l10.01,10.91,3.11,12.47c.61,2.42,3.07,3.91,5.49,3.3s3.91-3.07,3.3-5.49l-3.25-13.03c-.27-1.1-.82-2.11-1.58-2.94l-7.01-7.64,2.73-9.27,1.36,3.25c.62,1.5,1.77,2.73,3.23,3.47l3.78,1.88c2.24,1.12,4.95.21,6.07-2.02,1.12-2.24.21-4.95-2.02-6.07l-3.04-1.51-2.17-5.21c-2.43-5.82-8.12-9.61-14.43-9.61-3.23,0-6.41.68-9.35,1.98l-1.13.5c-4.66,2.07-8.22,6-9.82,10.83l-.37,1.1c-.79,2.38.5,4.94,2.86,5.73,2.36.79,4.94-.5,5.73-2.86l.37-1.1c.81-2.42,2.59-4.37,4.91-5.41l1.13-.5h.01Zm-4.27,19.1l-3.54,8.83-8.39,8.41c-1.77,1.77-1.77,4.64,0,6.41,1.77,1.77,4.64,1.77,6.41,0l8.72-8.73c.65-.65,1.16-1.43,1.5-2.28l2.05-5.12-5.76-6.28c-.35-.38-.68-.79-.99-1.22h0Zm64.68-25.73c-1.77-1.77-4.64-1.77-6.41,0s-1.77,4.64,0,6.41l3.59,3.58h-21.89c-.65,0-1.53.4-1.95.9-3.21,3.83-.58,8.15,3.08,8.15h20.76l-4.38,4.38c-.53.53-.8,1.25-.75,2,.38,5.01,5.35,6.22,7.94,3.63l12.75-12.75c.98-.98.98-2.57,0-3.55l-12.75-12.75h0Z"/>
</svg>