<?xml version="1.0" encoding="UTF-8"?>
<svg id="_レイヤー_1" data-name="レイヤー 1" xmlns="http://www.w3.org/2000/svg" viewBox="0 0 100 100">
  <defs>
    <style>
      .cls-1 {
        fill: #fefadb;
      }
    </style>
  </defs>
  <path class="cls-1" d="m65.82,50c0,3.66-.2,7.19-.54,10.55h-30.56c-.36-3.36-.54-6.89-.54-10.55s.2-7.19.54-10.55h30.56c.36,3.36.54,6.89.54,10.55Zm4.75-10.55h20.29c.87,3.38,1.34,6.91,1.34,10.55s-.46,7.17-1.34,10.55h-20.29c.35-3.4.53-6.92.53-10.55s-.18-7.15-.53-10.55Zm18.56-5.27h-19.24c-1.65-10.53-4.91-19.35-9.11-24.99,12.91,3.41,23.41,12.77,28.33,24.99h.02Zm-24.58,0h-29.11c1.01-6,2.55-11.31,4.45-15.61,1.73-3.89,3.66-6.71,5.52-8.49,1.85-1.75,3.38-2.27,4.58-2.27s2.74.53,4.58,2.27c1.86,1.78,3.79,4.6,5.52,8.49,1.91,4.29,3.46,9.59,4.45,15.61Zm-34.45,0H10.87c4.94-12.21,15.43-21.58,28.35-24.99-4.2,5.64-7.47,14.46-9.11,24.99h0Zm-20.97,5.27h20.29c-.35,3.4-.53,6.92-.53,10.55s.18,7.15.53,10.55H9.14c-.87-3.38-1.34-6.91-1.34-10.55s.46-7.17,1.34-10.55Zm30.81,41.96c-1.91-4.29-3.44-9.59-4.45-15.59h29.11c-1.01,6-2.55,11.31-4.45,15.59-1.73,3.89-3.66,6.71-5.52,8.49-1.85,1.76-3.38,2.29-4.58,2.29s-2.74-.53-4.58-2.27c-1.86-1.78-3.79-4.6-5.52-8.49v-.02Zm-9.84-15.59c1.65,10.53,4.91,19.35,9.11,24.99-12.92-3.41-23.41-12.77-28.35-24.99h19.24Zm59.02,0c-4.94,12.21-15.43,21.58-28.33,24.99,4.2-5.64,7.45-14.46,9.11-24.99h19.22Z"/>
</svg>
