<?xml version="1.0" encoding="UTF-8"?>
<svg id="_レイヤー_1" data-name="レイヤー 1" xmlns="http://www.w3.org/2000/svg" viewBox="0 0 100 100">
  <defs>
    <style>
      .cls-1 {
        fill: #393332;
      }
    </style>
  </defs>
  <path class="cls-1" d="m27.35,30.83c8.54-8.53,22.72-8.53,31.25,0,7.68,7.68,8.81,19.91,2.5,28.74l-.17.25c-1.58,2.2-4.65,2.72-6.85,1.14-2.21-1.58-2.73-4.65-1.15-6.85l.17-.25c3.52-4.93,2.96-11.67-1.32-15.95-4.82-4.82-12.66-4.82-17.5,0l-17.22,17.24c-4.84,4.7-4.84,12.66,0,17.5,4.27,4.28,11.02,4.84,15.93,1.32l.25-.31c2.21-1.44,5.28-.94,6.85,1.27,1.58,2.21,1.07,5.28-1.14,6.86l-.25.17c-8.96,6.31-20.92,5.3-28.6-2.36-8.67-8.67-8.67-22.73,0-31.39l17.24-17.38Zm45.29,38.21c-8.67,8.67-22.72,8.67-31.39,0-7.68-7.68-8.67-19.77-2.36-28.6l.17-.25c1.44-2.2,4.51-2.72,6.85-1.14,2.21,1.44,2.73,4.51,1.15,6.85l-.17.25c-3.52,4.79-2.96,11.67,1.32,15.95,4.82,4.82,12.66,4.82,17.5,0l17.22-17.24c4.84-4.84,4.84-12.8,0-17.5-4.27-4.28-11.02-4.84-15.93-1.32l-.25.17c-2.21,1.58-5.28.94-6.85-1.14-1.58-2.21-1.07-5.28,1.14-6.85l.25-.17c8.83-6.31,20.92-5.31,28.6,2.37,8.67,8.67,8.67,22.73,0,31.39l-17.24,17.24Z"/>
</svg>