<?xml version="1.0" encoding="UTF-8"?>
<svg id="_レイヤー_1" data-name="レイヤー 1" xmlns="http://www.w3.org/2000/svg" viewBox="0 0 100 100">
  <defs>
    <style>
      .cls-1 {
        fill: #393332;
      }
    </style>
  </defs>
  <path class="cls-1" d="m97.25,82.92l-6.85-5.39c.15-.69.23-1.4.23-2.13v-40.64c0-5.6-4.56-10.16-10.16-10.16h-11.86l-1.65-4.95c-1.03-3.11-3.94-5.21-7.22-5.21h-19.49c-3.29,0-6.19,2.1-7.22,5.21l-1.65,4.95h-8.2L6.91,11.8c-1.46-1.15-3.57-.9-4.72.56s-.9,3.57.56,4.72l11.47,9.03s-.03.02-.04.02l24.23,19.07s.02-.02.03-.03l23.91,18.82s-.02.03-.03.04l24.51,19.29s.02-.02.04-.03l6.23,4.91c.62.49,1.35.72,2.08.72,1,0,1.98-.44,2.64-1.28,1.15-1.46.9-3.58-.56-4.72Zm-53.17-41.86c1.82-.77,3.81-1.22,5.92-1.22,8.42,0,15.24,6.82,15.24,15.24,0,.84-.07,1.67-.2,2.48l-20.95-16.5Z"/>
  <path class="cls-1" d="m50,70.32c-8.42,0-15.24-6.82-15.24-15.24,0-1.31.18-2.57.49-3.79L9.95,31.38c-.38,1.06-.59,2.2-.59,3.38v40.64c0,5.6,4.56,10.16,10.16,10.16h59.26l-21.63-17.02c-2.13,1.14-4.57,1.79-7.15,1.79Z"/>
</svg>