<?xml version="1.0" encoding="UTF-8"?>
<svg id="_レイヤー_1" data-name="レイヤー 1" xmlns="http://www.w3.org/2000/svg" viewBox="0 0 100 100">
  <defs>
    <style>
      .cls-1 {
        fill: #393332;
      }
    </style>
  </defs>
  <path id="person-walking-arrow-right-solid" class="cls-1" d="m56.26,28.97c3.48,0,6.31-2.82,6.31-6.31,0-3.48-2.82-6.31-6.31-6.31-3.48,0-6.31,2.82-6.31,6.31,0,3.48,2.82,6.31,6.31,6.31h0Zm-11.08,13.73c.13-.05.25-.1.38-.16l-2.22,8.34c-.74,2.77,0,5.73,1.93,7.84l9.29,10.13,2.89,11.58c.58,2.25,2.88,3.6,5.13,3.01,2.22-.58,3.56-2.82,3.03-5.05l-3.02-12.1c-.25-1.02-.76-1.96-1.47-2.73l-6.5-7.1,2.54-8.61,1.26,3.02c.58,1.4,1.64,2.54,3,3.22l3.51,1.75c2.06,1.07,4.6.28,5.67-1.78,1.07-2.06.28-4.6-1.78-5.67-.04-.02-.09-.04-.13-.07l-2.83-1.41-2.01-4.84c-2.26-5.4-7.55-8.92-13.4-8.92-2.99,0-5.95.63-8.69,1.84l-1.05.46c-4.32,1.92-7.63,5.57-9.12,10.05l-.34,1.02c-.71,2.21.51,4.58,2.72,5.29,2.17.69,4.5-.47,5.25-2.62l.34-1.02c.75-2.24,2.4-4.06,4.56-5.02l1.05-.46h.01Zm-3.94,17.74l-3.28,8.2-7.79,7.81c-1.64,1.64-1.64,4.31,0,5.95,1.64,1.64,4.31,1.64,5.95,0h0l8.09-8.11c.6-.6,1.08-1.32,1.39-2.12l1.91-4.76-5.35-5.83c-.33-.36-.64-.74-.92-1.13h0Z"/>
  <path class="cls-1" d="m50,96.5h-.17c-25.64-.09-46.42-21.03-46.33-46.67.04-12.42,4.92-24.08,13.74-32.83C26.05,8.25,37.72,3.43,50.17,3.5c12.42.04,24.08,4.92,32.83,13.74s13.55,20.51,13.5,32.93c-.09,25.58-20.94,46.33-46.5,46.33Zm0-86c-10.5,0-20.37,4.07-27.83,11.47-7.49,7.43-11.63,17.34-11.67,27.89-.08,21.78,17.58,39.56,39.36,39.64h.14c21.71,0,39.42-17.63,39.5-39.36.04-10.55-4.04-20.48-11.47-27.97-7.43-7.49-17.34-11.63-27.89-11.67h0s-.1,0-.15,0Z"/>
  <rect class="cls-1" x="46.75" y="7.47" width="7" height="85.56" transform="translate(-20.81 50) rotate(-44.79)"/>
</svg>