<?xml version="1.0" encoding="UTF-8"?>
<svg id="_レイヤー_1" data-name="レイヤー 1" xmlns="http://www.w3.org/2000/svg" viewBox="0 0 100 100">
  <defs>
    <style>
      .cls-1 {
        fill: #393332;
      }
    </style>
  </defs>
  <path class="cls-1" d="m8.7,13.15c-1.53-1.2-3.75-.93-4.95.6-1.2,1.53-.93,3.75.6,4.95l86.95,68.15c1.53,1.2,3.75.93,4.95-.6s.93-3.75-.6-4.95l-23.31-18.27c2.23-3.82,3.51-8.27,3.51-13.03v-5.87c0-1.95-1.57-3.52-3.52-3.52s-3.52,1.57-3.52,3.52v5.87c0,3.11-.75,6.04-2.09,8.62l-2.61-2.04v-30.08c0-7.78-6.32-14.1-14.1-14.1s-14.1,6.32-14.1,14.1v7.98L8.7,13.15Zm44.83,62.46c3-.41,5.83-1.34,8.42-2.67l-6.33-4.98c-1.78.54-3.66.84-5.61.84-10.38,0-18.8-8.42-18.8-18.8v-1.28l-6.95-5.48c-.07.28-.1.57-.1.88v5.87c0,13.09,9.72,23.9,22.32,25.61v4.93h-7.05c-1.95,0-3.52,1.57-3.52,3.52s1.57,3.52,3.52,3.52h21.15c1.95,0,3.52-1.57,3.52-3.52s-1.57-3.52-3.52-3.52h-7.05v-4.93Z"/>
</svg>