<?xml version="1.0" encoding="UTF-8"?>
<svg id="_レイヤー_1" data-name="レイヤー 1" xmlns="http://www.w3.org/2000/svg" viewBox="0 0 100 100">
  <defs>
    <style>
      .cls-1 {
        fill: #393332;
      }
    </style>
  </defs>
  <path class="cls-1" d="m7.32,11.92c-1.58-1.24-3.87-.96-5.12.62-1.24,1.58-.96,3.87.62,5.12l89.86,70.43c1.58,1.24,3.87.96,5.12-.62s.96-3.87-.62-5.12l-13.11-10.28,2.09,1.4c1.49.99,3.4,1.09,4.99.24s2.57-2.49,2.57-4.28V30.57c0-1.79-.99-3.43-2.57-4.28s-3.49-.76-4.99.24l-14.57,9.71-2.16,1.44v22.91l-4.86-3.81v-26.21c0-5.37-4.35-9.71-9.71-9.71H18.72L7.32,11.92Zm-1.03,18.66v38.86c0,5.37,4.35,9.71,9.71,9.71h38.86c3.55,0,6.66-1.91,8.35-4.75L6.33,29.58c-.03.32-.05.65-.05.99Z"/>
</svg>