<?xml version="1.0" encoding="UTF-8"?>
<svg xmlns="http://www.w3.org/2000/svg" viewBox="0 0 100 100">
  <defs>
    <style>
      .cls-1 {
        fill: #393332;
      }
    </style>
  </defs>
  <g id="_レイヤー_1" data-name="レイヤー 1">
    <path class="cls-1" d="m50,96.5h-.17c-25.64-.09-46.42-21.03-46.33-46.67.04-12.42,4.92-24.08,13.74-32.83C26.05,8.25,37.72,3.43,50.17,3.5c12.42.04,24.08,4.92,32.83,13.74s13.55,20.51,13.5,32.93c-.09,25.58-20.94,46.33-46.5,46.33Zm0-86c-10.5,0-20.37,4.07-27.83,11.47-7.49,7.43-11.63,17.34-11.67,27.89-.08,21.78,17.58,39.56,39.36,39.64h.14c21.71,0,39.42-17.63,39.5-39.36.04-10.55-4.04-20.48-11.47-27.97-7.43-7.49-17.34-11.63-27.89-11.67h0s-.1,0-.15,0Z"/>
  </g>
  <g id="_レイヤー_2" data-name="レイヤー 2">
    <path class="cls-1" d="m44.17,25v34.5c0,6.43,10,6.45,10,0V25c0-6.43-10-6.45-10,0h0Z"/>
    <circle class="cls-1" cx="49" cy="74" r="5"/>
  </g>
</svg>