<?xml version="1.0" encoding="UTF-8"?>
<svg id="_レイヤー_1" data-name="レイヤー 1" xmlns="http://www.w3.org/2000/svg" viewBox="0 0 100 100">
  <defs>
    <style>
      .cls-1 {
        fill: #393332;
      }
    </style>
  </defs>
  <path class="cls-1" d="m7.81,45.21c-.23-7.23,4.39-13.42,10.85-15.55-.2-1.1-.31-2.26-.31-3.43,0-10.2,8.26-18.46,18.46-18.46,7.1,0,13.27,4.01,16.35,9.89,2.42-2.82,6.02-4.62,10.02-4.62,7.29,0,13.19,5.9,13.19,13.19,0,.91-.1,1.78-.26,2.64h0c9.01-.14,16.34,7.25,16.08,16.29s-7.42,15.36-16.01,15.36H23.8c-8.57,0-15.71-6.75-15.98-15.31Zm14.78,23.95c.21-.41.64-.66,1.12-.66s.89.25,1.12.66l5.79,10.65c.68,1.24,1.02,2.6,1.02,4.01v.37c0,4.23-3.27,7.81-7.49,8.03-4.56.24-8.34-3.39-8.34-7.9v-.49c0-1.4.35-2.79,1.02-4.01l5.75-10.65Zm26.37,0c.21-.41.64-.66,1.12-.66s.89.25,1.12.66l5.79,10.65c.68,1.24,1.02,2.6,1.02,4.01v.37c0,4.23-3.27,7.81-7.49,8.03-4.56.24-8.34-3.39-8.34-7.9v-.49c0-1.4.35-2.79,1.02-4.01l5.75-10.65Zm20.59,10.65l5.79-10.65c.21-.41.64-.66,1.12-.66s.89.25,1.12.66l5.79,10.65c.68,1.24,1.02,2.6,1.02,4.01v.37c0,4.23-3.27,7.81-7.49,8.03-4.56.24-8.34-3.39-8.34-7.9v-.49c0-1.4.35-2.79,1.02-4.01h-.03Z"/>
</svg>