<?xml version="1.0" encoding="UTF-8"?>
<svg id="_レイヤー_1" data-name="レイヤー 1" xmlns="http://www.w3.org/2000/svg" viewBox="0 0 100 100">
  <defs>
    <style>
      .cls-1 {
        fill: #393332;
      }
    </style>
  </defs>
  <path class="cls-1" d="m13.08,13.08h73.84c5.83,0,10.55,4.72,10.55,10.55v52.74c0,5.83-4.72,10.55-10.55,10.55H13.08c-5.83,0-10.55-4.72-10.55-10.55V23.63c0-5.83,4.72-10.55,10.55-10.55Zm22.42,28.98c2.34,0,4.45,1.01,5.9,2.64s3.96,1.76,5.59.31,1.76-3.96.31-5.59c-2.88-3.23-7.1-5.27-11.78-5.27-8.74,0-15.82,7.09-15.82,15.82s7.09,15.82,15.82,15.82c4.68,0,8.9-2.04,11.78-5.27,1.45-1.63,1.32-4.12-.31-5.59s-4.12-1.32-5.59.31c-1.45,1.63-3.56,2.64-5.9,2.64-4.37,0-7.91-3.54-7.91-7.91s3.54-7.91,7.91-7.91h0Zm23.73,7.91c0-4.37,3.54-7.91,7.91-7.91,2.34,0,4.45,1.01,5.9,2.64s3.96,1.76,5.59.31,1.76-3.96.31-5.59c-2.88-3.23-7.1-5.27-11.78-5.27-8.74,0-15.82,7.09-15.82,15.82s7.09,15.82,15.82,15.82c4.68,0,8.9-2.04,11.78-5.27,1.45-1.63,1.32-4.12-.31-5.59s-4.12-1.32-5.59.31c-1.45,1.63-3.56,2.64-5.9,2.64-4.37,0-7.91-3.54-7.91-7.91Z"/>
</svg>