<?xml version="1.0" encoding="UTF-8"?>
<svg id="_レイヤー_1" data-name="レイヤー 1" xmlns="http://www.w3.org/2000/svg" viewBox="0 0 100 100">
  <defs>
    <style>
      .cls-1 {
        fill: #393332;
      }
    </style>
  </defs>
  <path class="cls-1" d="m15.37,20.32h69.26c5.46,0,9.89,4.43,9.89,9.89v9.89c0,1.36-1.14,2.43-2.43,2.88-2.91,1-4.99,3.77-4.99,7.02s2.09,6.01,4.99,7.02c1.28.45,2.43,1.52,2.43,2.88v9.89c0,5.46-4.43,9.89-9.89,9.89H15.37c-5.46,0-9.89-4.43-9.89-9.89v-9.89c0-1.36,1.14-2.43,2.43-2.88,2.91-1,4.99-3.77,4.99-7.02s-2.09-6.01-4.99-7.02c-1.28-.45-2.43-1.52-2.43-2.88v-9.89c0-5.46,4.43-9.89,9.89-9.89Z"/>
</svg>