<svg xmlns="http://www.w3.org/2000/svg" width="475.805" height="145.311" viewBox="0 0 475.805 145.311">
  <g id="グループ_1188" data-name="グループ 1188" transform="translate(-48.295 -229.827)">
    <path id="パス_2242" data-name="パス 2242" d="M18.894,18.52c-.062,10.259-9.558,18.632-9.558,18.632S-.062,28.89,0,18.631,9.559,0,9.559,0s9.4,8.261,9.334,18.52" transform="translate(378.263 275.293) rotate(-65)" fill="#fefadb" stroke="rgba(0,0,0,0)" stroke-miterlimit="10" stroke-width="1"/>
    <path id="パス_2243" data-name="パス 2243" d="M15.26,14.934c-.075,8.286-7.765,15.074-7.765,15.074S-.074,23.36,0,15.074,7.767,0,7.767,0s7.569,6.647,7.494,14.934" transform="translate(432.503 253.89) rotate(37)" fill="#fefadb" stroke="rgba(0,0,0,0)" stroke-miterlimit="10" stroke-width="1"/>
    <path id="パス_2244" data-name="パス 2244" d="M14.715,14.547c.085,7.99-7.2,14.388-7.2,14.388S.086,22.378,0,14.388,7.2,0,7.2,0s7.426,6.557,7.511,14.547" transform="translate(347.394 301.088) rotate(-101)" fill="#fefadb" stroke="rgba(0,0,0,0)" stroke-miterlimit="10" stroke-width="1"/>
    <path id="パス_2245" data-name="パス 2245" d="M15.217,15.044c.088,8.263-7.448,14.879-7.448,14.879S.089,23.142,0,14.879,7.449,0,7.449,0s7.679,6.781,7.768,15.044" transform="translate(409.961 316.813) rotate(-152)" fill="#fefadb" stroke="rgba(0,0,0,0)" stroke-miterlimit="10" stroke-width="1"/>
    <circle id="楕円形_239" data-name="楕円形 239" cx="3.526" cy="3.526" r="3.526" transform="translate(385.808 293.382) rotate(32)" fill="#fefadb" stroke="rgba(0,0,0,0)" stroke-miterlimit="10" stroke-width="1"/>
    <path id="パス_2246" data-name="パス 2246" d="M18.7,18.488c.109,10.154-9.153,18.285-9.153,18.285S.11,28.44,0,18.285,9.155,0,9.155,0,18.592,8.334,18.7,18.488" transform="translate(331.251 265.384) rotate(27)" fill="#fefadb" stroke="rgba(0,0,0,0)" stroke-miterlimit="10" stroke-width="1"/>
    <path id="パス_2247" data-name="パス 2247" d="M19.443,19.222c.113,10.557-9.516,19.011-9.516,19.011S.114,29.569,0,19.011,9.518,0,9.518,0s9.812,8.665,9.925,19.222" transform="translate(323.462 315.146) rotate(-73)" fill="#fefadb" stroke="rgba(0,0,0,0)" stroke-miterlimit="10" stroke-width="1"/>
    <path id="パス_2248" data-name="パス 2248" d="M16.657,16.468c.1,9.045-8.153,16.287-8.153,16.287S.1,25.332,0,16.287,8.154,0,8.154,0s8.406,7.423,8.5,16.468" transform="translate(312.841 308.146) rotate(4)" fill="#fefadb" stroke="rgba(0,0,0,0)" stroke-miterlimit="10" stroke-width="1"/>
    <circle id="楕円形_240" data-name="楕円形 240" cx="3.526" cy="3.526" r="3.526" transform="translate(311.76 299.106) rotate(34)" fill="#fefadb" stroke="rgba(0,0,0,0)" stroke-miterlimit="10" stroke-width="1"/>
    <path id="パス_2249" data-name="パス 2249" d="M21.351,21.108C21.475,32.7,10.9,41.985,10.9,41.985S.125,32.47,0,20.877,10.452,0,10.452,0s10.775,9.515,10.9,21.108" transform="matrix(0.839, 0.545, -0.545, 0.839, 283.57, 277.668)" fill="#fefadb" stroke="rgba(0,0,0,0)" stroke-miterlimit="10" stroke-width="1"/>
    <circle id="楕円形_241" data-name="楕円形 241" cx="2.351" cy="2.351" r="2.351" transform="translate(304.693 318.912) rotate(34)" fill="#fefadb" stroke="rgba(0,0,0,0)" stroke-miterlimit="10" stroke-width="1"/>
    <path id="パス_2250" data-name="パス 2250" d="M16.972,16.779c.1,9.216-8.307,16.6-8.307,16.6S.1,25.811,0,16.6,8.308,0,8.308,0s8.565,7.563,8.664,16.779" transform="translate(291.261 326.616) rotate(93)" fill="#fefadb" stroke="rgba(0,0,0,0)" stroke-miterlimit="10" stroke-width="1"/>
    <circle id="楕円形_242" data-name="楕円形 242" cx="3.526" cy="3.526" r="3.526" transform="translate(238.071 316.505) rotate(32)" fill="#fefadb" stroke="rgba(0,0,0,0)" stroke-miterlimit="10" stroke-width="1"/>
    <path id="パス_2251" data-name="パス 2251" d="M17.662,17.462c.1,9.591-8.645,17.27-8.645,17.27S.1,26.861,0,17.27,8.646,0,8.646,0s8.913,7.871,9.016,17.462" transform="translate(219.988 331.061) rotate(-154)" fill="#fefadb" stroke="rgba(0,0,0,0)" stroke-miterlimit="10" stroke-width="1"/>
    <path id="パス_2252" data-name="パス 2252" d="M20.242,20.012C20.36,31,10.335,39.8,10.335,39.8S.119,30.784,0,19.792,9.909,0,9.909,0,20.125,9.021,20.242,20.012" transform="translate(254.001 347.048) rotate(121)" fill="#fefadb" stroke="rgba(0,0,0,0)" stroke-miterlimit="10" stroke-width="1"/>
    <path id="パス_2253" data-name="パス 2253" d="M21.478,21.234c.125,11.662-10.512,21-10.512,21S.126,32.663,0,21,10.514,0,10.514,0,21.353,9.571,21.478,21.234" transform="translate(210.243 323.07) rotate(138)" fill="#fefadb" stroke="rgba(0,0,0,0)" stroke-miterlimit="10" stroke-width="1"/>
    <path id="パス_2254" data-name="パス 2254" d="M13.114,12.965C13.19,20.086,6.7,25.788,6.7,25.788S.077,19.944,0,12.823,6.42,0,6.42,0s6.618,5.844,6.694,12.965" transform="matrix(-0.982, -0.191, 0.191, -0.982, 208.15, 363.043)" fill="#fefadb" stroke="rgba(0,0,0,0)" stroke-miterlimit="10" stroke-width="1"/>
    <circle id="楕円形_243" data-name="楕円形 243" cx="3.526" cy="3.526" r="3.526" transform="translate(186.253 334.464) rotate(32)" fill="#fefadb" stroke="rgba(0,0,0,0)" stroke-miterlimit="10" stroke-width="1"/>
    <path id="パス_2255" data-name="パス 2255" d="M17.092,16.9c.1,9.281-8.365,16.713-8.365,16.713S.1,25.993,0,16.712,8.367,0,8.367,0s8.626,7.617,8.725,16.9" transform="translate(135.44 346.062) rotate(-70)" fill="#fefadb" stroke="rgba(0,0,0,0)" stroke-miterlimit="10" stroke-width="1"/>
    <circle id="楕円形_244" data-name="楕円形 244" cx="2.351" cy="2.351" r="2.351" transform="translate(381.024 279.051) rotate(32)" fill="#fefadb" stroke="rgba(0,0,0,0)" stroke-miterlimit="10" stroke-width="1"/>
    <circle id="楕円形_245" data-name="楕円形 245" cx="2.351" cy="2.351" r="2.351" transform="translate(342.038 325.199) rotate(34)" fill="#fefadb" stroke="rgba(0,0,0,0)" stroke-miterlimit="10" stroke-width="1"/>
    <circle id="楕円形_246" data-name="楕円形 246" cx="2.351" cy="2.351" r="2.351" transform="translate(254.43 288.846) rotate(32)" fill="#fefadb" stroke="rgba(0,0,0,0)" stroke-miterlimit="10" stroke-width="1"/>
    <path id="パス_2403" data-name="パス 2403" d="M16.429,16.242c.1,8.921-8.041,16.064-8.041,16.064S.1,24.985,0,16.064,8.043,0,8.043,0s8.291,7.321,8.387,16.242" transform="translate(452.911 275.579) rotate(-77)" fill="#fefadb" stroke="rgba(0,0,0,0)" stroke-miterlimit="10" stroke-width="1"/>
    <circle id="楕円形_253" data-name="楕円形 253" cx="2.526" cy="2.526" r="2.526" transform="matrix(0.695, 0.719, -0.719, 0.695, 446.388, 249.781)" fill="#fefadb" stroke="rgba(0,0,0,0)" stroke-miterlimit="10" stroke-width="1"/>
    <circle id="楕円形_126" data-name="楕円形 126" cx="4.241" cy="4.241" r="4.241" transform="translate(129.323 321.227) rotate(2)" fill="#fefadb"/>
    <path id="パス_2409" data-name="パス 2409" d="M14.875,14.706c.086,8.077-7.28,14.545-7.28,14.545S.087,22.621,0,14.544,7.282,0,7.282,0s7.507,6.629,7.593,14.706" transform="matrix(-0.788, -0.616, 0.616, -0.788, 464.633, 262.867)" fill="#fefadb" stroke="rgba(0,0,0,0)" stroke-miterlimit="10" stroke-width="1"/>
    <path id="パス_2411" data-name="パス 2411" d="M18.574,18.363c.108,10.086-9.091,18.161-9.091,18.161S.109,28.247,0,18.161,9.093,0,9.093,0s9.373,8.277,9.481,18.363" transform="translate(488.575 263.831) rotate(-108)" fill="#fefadb" stroke="rgba(0,0,0,0)" stroke-miterlimit="10" stroke-width="1"/>
    <path id="パス_2431" data-name="パス 2431" d="M17.092,16.9c.1,9.281-8.365,16.713-8.365,16.713S.1,25.993,0,16.712,8.367,0,8.367,0s8.626,7.617,8.725,16.9" transform="translate(117.565 336.767) rotate(22)" fill="#fefadb" stroke="rgba(0,0,0,0)" stroke-miterlimit="10" stroke-width="1"/>
    <path id="パス_2432" data-name="パス 2432" d="M13.421,13.268c.078,7.287-6.569,13.123-6.569,13.123S.079,20.41,0,13.123,6.57,0,6.57,0s6.773,5.981,6.851,13.268" transform="translate(120.859 323.722) rotate(121)" fill="#fefadb" stroke="rgba(0,0,0,0)" stroke-miterlimit="10" stroke-width="1"/>
    <path id="パス_2433" data-name="パス 2433" d="M10.911,10.787c.063,5.925-5.34,10.669-5.34,10.669S.064,16.594,0,10.669,5.342,0,5.342,0s5.507,4.863,5.57,10.787" transform="translate(80.213 361.311) rotate(-123)" fill="#fefadb" stroke="rgba(0,0,0,0)" stroke-miterlimit="10" stroke-width="1"/>
    <path id="パス_2434" data-name="パス 2434" d="M10.911,10.787c.063,5.925-5.34,10.669-5.34,10.669S.064,16.594,0,10.669,5.342,0,5.342,0s5.507,4.863,5.57,10.787" transform="matrix(0.052, -0.999, 0.999, 0.052, 48.986, 345.361)" fill="#fefadb" stroke="rgba(0,0,0,0)" stroke-miterlimit="10" stroke-width="1"/>
    <circle id="楕円形_259" data-name="楕円形 259" cx="2.526" cy="2.526" r="2.526" transform="matrix(0.695, 0.719, -0.719, 0.695, 453.531, 277.611)" fill="#fefadb" stroke="rgba(0,0,0,0)" stroke-miterlimit="10" stroke-width="1"/>
    <path id="パス_2447" data-name="パス 2447" d="M11.954,11.818C12.023,18.309,6.1,23.507,6.1,23.507S.07,18.179,0,11.688,5.852,0,5.852,0s6.033,5.327,6.1,11.818" transform="translate(445.029 290.953) rotate(113)" fill="#fefadb" stroke="rgba(0,0,0,0)" stroke-miterlimit="10" stroke-width="1"/>
  </g>
</svg>
