<svg xmlns="http://www.w3.org/2000/svg" width="168.993" height="66.285" viewBox="0 0 168.993 66.285">
  <path id="前面オブジェクトで型抜き_21" data-name="前面オブジェクトで型抜き 21" d="M-9630.405,134.716h0a13.73,13.73,0,0,1-1.408-2.436,9.363,9.363,0,0,1-.873-5.364,9,9,0,0,1,2.705-4.63,12.6,12.6,0,0,1,2.17-1.7l.007.009a13.84,13.84,0,0,1,1.4,2.429,9.363,9.363,0,0,1,.873,5.364,9,9,0,0,1-2.705,4.63,12.775,12.775,0,0,1-2.168,1.7Zm21-2.367a14.753,14.753,0,0,1-7.547-1.815c-.089-.05-.18-.106-.267-.161a15.818,15.818,0,0,1-5.694-7.071,22.033,22.033,0,0,1-1.43-4.4l.007-.005a24.211,24.211,0,0,1,6.455-.909,14.738,14.738,0,0,1,7.542,1.814,15.531,15.531,0,0,1,5.91,7.119,22.341,22.341,0,0,1,1.48,4.521l-.008,0A24.2,24.2,0,0,1-9609.41,132.349Zm-42.562-.766a10.346,10.346,0,0,1-2.21-.23v-9.691a9.328,9.328,0,0,1,2.322.484,11.738,11.738,0,0,1,5.406,4.426,16.918,16.918,0,0,1,1.748,3.137l0,0A17.218,17.218,0,0,1-9651.972,131.583Zm13.049-7.27a1.962,1.962,0,0,1-1.039-.3,1.97,1.97,0,0,1-.623-2.708,1.951,1.951,0,0,1,1.667-.925,1.963,1.963,0,0,1,1.04.3,1.954,1.954,0,0,1,.872,1.224,1.958,1.958,0,0,1-.248,1.483A1.956,1.956,0,0,1-9638.923,124.313Zm47.845-1.368c-.12,0-.236,0-.356-.007a10.5,10.5,0,0,1-5.114-1.718,16.992,16.992,0,0,1-3.877-3.387l.007-.008a17.9,17.9,0,0,1,2.743-2.161,12.483,12.483,0,0,1,6.485-2.169c.12,0,.236,0,.355.007a11.648,11.648,0,0,1,6.419,2.632,16.582,16.582,0,0,1,2.572,2.472l-.007.008a17.925,17.925,0,0,1-2.742,2.161A12.5,12.5,0,0,1-9591.078,122.945Zm25.133-3.494h0a14.914,14.914,0,0,1-1.824-2.419,10.089,10.089,0,0,1-1.637-5.616,9.678,9.678,0,0,1,2.282-5.3,13.614,13.614,0,0,1,2.095-2.1s0,0,.008.007a15,15,0,0,1,1.817,2.413,10.094,10.094,0,0,1,1.637,5.618,9.68,9.68,0,0,1-2.283,5.3,13.688,13.688,0,0,1-2.093,2.1Zm12.988-3.128a1.306,1.306,0,0,1-.692-.2.159.159,0,0,1-.023-.014l-.009-.006-.007,0a1.3,1.3,0,0,1-.555-.837,1.3,1.3,0,0,1,.2-.983,1.307,1.307,0,0,1,1.087-.577,1.3,1.3,0,0,1,.729.223,1.3,1.3,0,0,1,.554.837,1.294,1.294,0,0,1-.2.983A1.307,1.307,0,0,1-9552.957,116.323Zm-78.123-.409h-.027a24.507,24.507,0,0,1-11.79-3.188,14.012,14.012,0,0,1-2.875-2.361,14.44,14.44,0,0,1-2.829-4.7,21.1,21.1,0,0,1-1.166-4.85,24.77,24.77,0,0,1-.105-5.323h.028a26.563,26.563,0,0,1,5.661.726,17.361,17.361,0,0,1,9,4.823,14.438,14.438,0,0,1,2.829,4.7,21.206,21.206,0,0,1,1.166,4.85,24.9,24.9,0,0,1,.1,5.323Zm5.435-1.566h0a18.17,18.17,0,0,1-.983-3.662,12.628,12.628,0,0,1,.733-7.284,12.124,12.124,0,0,1,5.134-5.078,17.235,17.235,0,0,1,3.414-1.458,18.3,18.3,0,0,1,.984,3.663,12.612,12.612,0,0,1-.732,7.284,12.119,12.119,0,0,1-5.135,5.079,17.319,17.319,0,0,1-3.414,1.457Zm15.031-1.326a1.954,1.954,0,0,1-1.039-.3,1.946,1.946,0,0,1-.874-1.224,1.946,1.946,0,0,1,.248-1.482,1.951,1.951,0,0,1,1.667-.925,1.963,1.963,0,0,1,1.04.3,1.969,1.969,0,0,1,.626,2.708A1.959,1.959,0,0,1-9610.614,113.022Zm36.848-.2a1.3,1.3,0,0,1-.691-.2l-.015-.009-.014-.008-.011-.007a1.3,1.3,0,0,1-.553-.837,1.3,1.3,0,0,1,.2-.983,1.3,1.3,0,0,1,1.085-.577,1.3,1.3,0,0,1,.731.225,1.3,1.3,0,0,1,.553.834,1.309,1.309,0,0,1-.2.983A1.312,1.312,0,0,1-9573.767,112.82Zm-19.769-3.18h0a22.139,22.139,0,0,1-.642-4.54,15.26,15.26,0,0,1,1.954-8.631,14.65,14.65,0,0,1,6.909-5.338A20.68,20.68,0,0,1-9581,89.884a22.076,22.076,0,0,1,.642,4.54,15.265,15.265,0,0,1-1.954,8.632,14.657,14.657,0,0,1-6.909,5.337,20.658,20.658,0,0,1-4.311,1.247Zm38.508-1.937a6.557,6.557,0,0,1-1.849-.254,6.259,6.259,0,0,1-1.577-.718,10.972,10.972,0,0,1-3.645-4.25l0,0a11.72,11.72,0,0,1,5.362-1.563,6.56,6.56,0,0,1,1.849.254c3.373.991,5.2,4.929,5.219,4.969l0,0A11.706,11.706,0,0,1-9555.027,107.7Zm-14.625-4.355a1.957,1.957,0,0,1-1.038-.3c-.02-.012-.039-.024-.059-.039a1.949,1.949,0,0,1-.83-1.254,1.951,1.951,0,0,1,.3-1.473,1.963,1.963,0,0,1,1.63-.865,1.956,1.956,0,0,1,1.1.336,1.969,1.969,0,0,1,.529,2.727A1.964,1.964,0,0,1-9569.652,103.349Zm5.755-2.817h0a16.812,16.812,0,0,1-.835-3.341,11.482,11.482,0,0,1,.781-6.6,11,11,0,0,1,4.742-4.529,15.834,15.834,0,0,1,3.123-1.27,16.617,16.617,0,0,1,.836,3.341,11.448,11.448,0,0,1-.782,6.6,11,11,0,0,1-4.741,4.531,15.649,15.649,0,0,1-3.123,1.27Zm35.6-.392a1.954,1.954,0,0,1-1.038-.3,1.945,1.945,0,0,1-.874-1.224,1.953,1.953,0,0,1,.248-1.484,1.954,1.954,0,0,1,1.666-.924,1.958,1.958,0,0,1,1.041.3,1.943,1.943,0,0,1,.872,1.221,1.946,1.946,0,0,1-.248,1.485A1.953,1.953,0,0,1-9528.3,100.14Zm-15.125-.289a11.365,11.365,0,0,1-5.817-1.887,13.093,13.093,0,0,1-1.633-1.184l0-.007a15.554,15.554,0,0,1,2.108-2.342,10.522,10.522,0,0,1,5.424-2.792,7.526,7.526,0,0,1,.994-.065c3.985,0,7.417,3.041,7.451,3.071l0,.007a15.528,15.528,0,0,1-2.109,2.342,10.508,10.508,0,0,1-5.423,2.792A7.53,7.53,0,0,1-9543.424,99.85Zm32.712-.114a8.692,8.692,0,0,1-1.113-.071,9.859,9.859,0,0,1-3.952-1.482,16.645,16.645,0,0,1-4.5-4.348l0-.005a17.485,17.485,0,0,1,2.635-1.759,13.212,13.212,0,0,1,6.109-1.764,8.706,8.706,0,0,1,1.113.071,11.574,11.574,0,0,1,6.126,3.161,16.471,16.471,0,0,1,2.33,2.668l0,.007a17.474,17.474,0,0,1-2.636,1.758A13.214,13.214,0,0,1-9510.712,99.737Zm-91-3.683a1.308,1.308,0,0,1-.693-.2,1.3,1.3,0,0,1-.583-.818,1.292,1.292,0,0,1,.166-.985,1.3,1.3,0,0,1,1.112-.616,1.308,1.308,0,0,1,.692.2,1.3,1.3,0,0,1,.583.817,1.3,1.3,0,0,1-.168.988A1.3,1.3,0,0,1-9601.707,96.054Zm70.534-5.456a1.308,1.308,0,0,1-.692-.2,1.3,1.3,0,0,1-.582-.816,1.3,1.3,0,0,1,.165-.989,1.3,1.3,0,0,1,1.112-.616,1.308,1.308,0,0,1,.692.2,1.313,1.313,0,0,1,.418,1.805A1.3,1.3,0,0,1-9531.173,90.6Zm6.962-.158h0a14.916,14.916,0,0,1-1.086-3,10.458,10.458,0,0,1,.163-6.2,10.7,10.7,0,0,1,4.1-4.712,15.488,15.488,0,0,1,2.852-1.516,14.826,14.826,0,0,1,1.09,3,10.461,10.461,0,0,1-.161,6.2,10.7,10.7,0,0,1-4.1,4.714,15.409,15.409,0,0,1-2.855,1.516Zm19.48-3.043a29.544,29.544,0,0,1-7.474-.982v-.009a27.748,27.748,0,0,1,1.725-5.595,23.312,23.312,0,0,1,2.7-4.78,15.888,15.888,0,0,1,4.412-4.122,18.339,18.339,0,0,1,9.7-2.409,29.508,29.508,0,0,1,7.475.983v.009a27.829,27.829,0,0,1-1.724,5.594,23.372,23.372,0,0,1-2.7,4.78,15.894,15.894,0,0,1-4.413,4.122A18.348,18.348,0,0,1-9504.73,87.4Z" transform="translate(9654.682 -68.999)" fill="#fefadb" stroke="rgba(0,0,0,0)" stroke-miterlimit="10" stroke-width="1"/>
</svg>
