<svg xmlns="http://www.w3.org/2000/svg" width="229.067" height="191.601" viewBox="0 0 229.067 191.601">
  <g id="グループ_469" data-name="グループ 469" transform="translate(0 101.886) rotate(-40)">
    <g id="グループ_467" data-name="グループ 467">
      <circle id="楕円形_7" data-name="楕円形 7" cx="68" cy="68" r="68" transform="translate(38 13)" fill="#dce697"/>
      <circle id="楕円形_8" data-name="楕円形 8" cx="38" cy="38" r="38" fill="#b6cc29"/>
      <circle id="楕円形_9" data-name="楕円形 9" cx="68" cy="68" r="68" transform="translate(38 13)" fill="#c8daad"/>
      <path id="パス_1168" data-name="パス 1168" d="M38,76A38,38,0,1,1,76,38,38,38,0,0,1,38,76Z" fill="#dce697"/>
    </g>
    <path id="交差_1" data-name="交差 1" d="M0,38A38,38,0,0,1,37.819,0,68,68,0,0,1,3.588,54.139,37.854,37.854,0,0,1,0,38Z" transform="translate(76 76) rotate(180)" fill="#fefadb"/>
  </g>
</svg>
