<svg xmlns="http://www.w3.org/2000/svg" width="154.628" height="159.531" viewBox="0 0 154.628 159.531">
  <g id="グループ_1022" data-name="グループ 1022" transform="translate(49.079 -565.99)">
    <g id="グループ_1019" data-name="グループ 1019" transform="translate(25.233 741.64) rotate(-149)">
      <path id="パス_1252" data-name="パス 1252" d="M17.55,162.735C-3.461,130.512-5.428,72.766,10.693,30.645,15.521,17.648,21.756,7.439,28.5,0,20.541,11.12,13.673,25.36,8.776,42.76-2.918,84.474.623,130.642,17.55,162.735" transform="translate(64.852 1.381) rotate(16)" fill="#35995f"/>
      <path id="パス_1253" data-name="パス 1253" d="M17.55,162.735C-3.461,130.512-5.428,72.766,10.693,30.645,15.521,17.648,21.756,7.439,28.5,0,20.541,11.12,13.673,25.36,8.776,42.76-2.918,84.474.623,130.642,17.55,162.735" transform="matrix(0.995, -0.105, 0.105, 0.995, 26.339, 2.979)" fill="#35995f"/>
      <path id="パス_1221" data-name="パス 1221" d="M15.922,15.1c0,8.34-7.96,15.1-7.96,15.1S0,23.442,0,15.1,7.961,0,7.961,0s7.96,6.762,7.96,15.1" transform="matrix(0.259, 0.966, -0.966, 0.259, 29.175, 109.899)" fill="#b6cc29"/>
      <path id="パス_1254" data-name="パス 1254" d="M10.484,10.307c0,5.692-5.242,10.307-5.242,10.307S0,16,0,10.307,5.242,0,5.242,0s5.242,4.615,5.242,10.307" transform="matrix(0.208, 0.978, -0.978, 0.208, 31.841, 93.414)" fill="#35995f"/>
      <path id="パス_1255" data-name="パス 1255" d="M16.2,15.926c0,8.8-8.1,15.926-8.1,15.926S0,24.721,0,15.926,8.1,0,8.1,0s8.1,7.13,8.1,15.926" transform="translate(76.096 91.613) rotate(106)" fill="#b6cc29"/>
      <path id="パス_1256" data-name="パス 1256" d="M11.543,8.777c0,4.847-5.771,8.777-5.771,8.777S0,13.624,0,8.777,5.772,0,5.772,0s5.771,3.93,5.771,8.777" transform="translate(61.767 112.527) rotate(129)" fill="#fef6b7"/>
      <path id="パス_1257" data-name="パス 1257" d="M17.529,16.853c0,9.307-8.764,16.853-8.764,16.853S0,26.16,0,16.853,8.765,0,8.765,0s8.764,7.545,8.764,16.853" transform="translate(79.682 142.883) rotate(138)" fill="#35995f"/>
      <path id="パス_1258" data-name="パス 1258" d="M18.991,16.3c0,9-9.495,16.3-9.495,16.3S0,25.3,0,16.3,9.5,0,9.5,0s9.495,7.3,9.495,16.3" transform="translate(14.548 168.148) rotate(-140)" fill="#fef6b7"/>
    </g>
  </g>
</svg>
