<svg xmlns="http://www.w3.org/2000/svg" width="630.557" height="640.925" viewBox="0 0 630.557 640.925">
  <g id="グループ_1020" data-name="グループ 1020" transform="translate(70.548 -605.911)">
    <path id="パス_2238" data-name="パス 2238" d="M70.507,653.8c-84.413-129.459-92.314-361.456-27.548-530.68C62.358,70.9,87.4,29.887,114.483,0,82.525,44.675,54.931,101.884,35.257,171.79-11.724,339.379,2.5,524.862,70.507,653.8" transform="translate(7.529 1172.648) rotate(-133)" fill="#35995f"/>
    <path id="パス_2239" data-name="パス 2239" d="M70.507,653.8C-13.906,524.339-21.807,292.343,42.959,123.119,62.358,70.9,87.4,29.887,114.483,0,82.525,44.675,54.931,101.884,35.257,171.789-11.724,339.379,2.5,524.862,70.507,653.8" transform="translate(143.464 1246.836) rotate(-155)" fill="#35995f"/>
    <path id="パス_2240" data-name="パス 2240" d="M63.966,60.673c0,33.508-31.982,60.673-31.982,60.673S0,94.181,0,60.673,31.985,0,31.985,0,63.966,27.165,63.966,60.673" transform="translate(354.938 872.765) rotate(-74)" fill="#b6cc29"/>
    <path id="パス_2241" data-name="パス 2241" d="M42.119,41.409c0,22.869-21.058,41.409-21.058,41.409S0,64.278,0,41.409,21.06,0,21.06,0,42.119,18.54,42.119,41.409" transform="translate(311.646 924.021) rotate(-71)" fill="#35995f"/>
    <path id="パス_2242" data-name="パス 2242" d="M65.078,63.982c0,35.335-32.537,63.982-32.537,63.982S0,99.317,0,63.982,32.541,0,32.541,0,65.078,28.647,65.078,63.982" transform="translate(155.519 838.651) rotate(-43)" fill="#b6cc29"/>
    <path id="パス_2243" data-name="パス 2243" d="M46.377,35.261c0,19.473-23.187,35.261-23.187,35.261S0,54.735,0,35.261,23.189,0,23.189,0,46.377,15.788,46.377,35.261" transform="translate(248.138 796.278) rotate(-20)" fill="#fef6b7"/>
    <path id="パス_2244" data-name="パス 2244" d="M70.423,67.706c0,37.392-35.21,67.706-35.21,67.706S0,105.1,0,67.706,35.213,0,35.213,0s35.21,30.314,35.21,67.706" transform="translate(249.255 654.669) rotate(-11)" fill="#35995f"/>
    <path id="パス_2245" data-name="パス 2245" d="M76.3,65.469c0,36.156-38.146,65.469-38.146,65.469S0,101.625,0,65.469,38.15,0,38.15,0,76.3,29.312,76.3,65.469" transform="translate(535.17 706.836) rotate(71)" fill="#fef6b7"/>
  </g>
</svg>
