<svg xmlns="http://www.w3.org/2000/svg" width="621.225" height="640.925" viewBox="0 0 621.225 640.925"><g transform="translate(-1496.387 -367.075)"><path d="M70.507,0C-13.906,129.459-21.807,361.456,42.959,530.68,62.358,582.9,87.4,623.911,114.482,653.8c-31.958-44.675-59.552-101.884-79.225-171.79C-11.724,314.419,2.5,128.936,70.507,0" transform="translate(1561.378 487.923) rotate(-47)" fill="#35995f"/><path d="M70.507,0C-13.906,129.459-21.807,361.456,42.959,530.679,62.358,582.9,87.4,623.911,114.482,653.8,82.524,609.123,54.931,551.914,35.257,482.009-11.724,314.419,2.5,128.936,70.507,0" transform="translate(1627.294 415.458) rotate(-25)" fill="#35995f"/><path d="M63.966,60.673C63.966,27.165,31.985,0,31.985,0S0,27.165,0,60.673s31.985,60.673,31.985,60.673S63.966,94.181,63.966,60.673" transform="translate(1575.48 667.376) rotate(-106)" fill="#b6cc29"/><path d="M42.119,41.409C42.119,18.54,21.06,0,21.06,0S0,18.54,0,41.409,21.06,82.819,21.06,82.819s21.058-18.54,21.058-41.409" transform="translate(1657.112 712.148) rotate(-109)" fill="#35995f"/><path d="M65.078,63.982C65.078,28.647,32.541,0,32.541,0S0,28.647,0,63.982s32.541,63.982,32.541,63.982S65.078,99.317,65.078,63.982" transform="matrix(-0.731, -0.682, 0.682, -0.731, 1804.275, 693.402)" fill="#b6cc29"/><path d="M46.377,35.261C46.377,15.788,23.189,0,23.189,0S0,15.788,0,35.261,23.189,70.522,23.189,70.522,46.377,54.735,46.377,35.261" transform="matrix(-0.94, -0.342, 0.342, -0.94, 1774.807, 623.711)" fill="#fef6b7"/><path d="M70.423,67.706C70.423,30.314,35.213,0,35.213,0S0,30.314,0,67.706s35.213,67.706,35.213,67.706,35.21-30.314,35.21-67.706" transform="translate(1771.973 548.757) rotate(-169)" fill="#35995f"/><path d="M76.3,65.469C76.3,29.313,38.15,0,38.15,0S0,29.312,0,65.469s38.15,65.469,38.15,65.469S76.3,101.625,76.3,65.469" transform="matrix(-0.326, 0.946, -0.946, -0.326, 1645.03, 506.232)" fill="#fef6b7"/></g></svg>