<?xml version="1.0" encoding="UTF-8"?>
<svg id="_レイヤー_2" data-name="レイヤー 2" xmlns="http://www.w3.org/2000/svg" viewBox="0 0 518.54 502.98">
  <defs>
    <style>
      .cls-1 {
        fill: #f9f1b5;
      }

      .cls-2 {
        fill: #fadbdd;
      }

      .cls-3, .cls-4 {
        fill: #c1d0a3;
      }

      .cls-5 {
        fill: #595757;
      }

      .cls-6 {
        fill: #748f5c;
      }

      .cls-6, .cls-4, .cls-7, .cls-8, .cls-9 {
        stroke-linecap: round;
      }

      .cls-6, .cls-4, .cls-7, .cls-8, .cls-9, .cls-10 {
        stroke: #595757;
        stroke-linejoin: round;
      }

      .cls-6, .cls-4, .cls-7, .cls-8, .cls-10 {
        stroke-width: 2.13px;
      }

      .cls-7, .cls-10 {
        fill: #fffaec;
      }

      .cls-8 {
        fill: #fdfada;
      }

      .cls-9 {
        fill: none;
        stroke-width: 2px;
      }
    </style>
  </defs>
  <g id="_7.その他" data-name="7.その他">
    <g>
      <g id="_おやすみ" data-name="おやすみ">
        <path id="_左手" data-name="左手" class="cls-10" d="m133.48,349.91s-29.81,18.65-19.42,26.23c7.52,5.49,29.02-4.31,29.02-4.31"/>
        <path id="_しっぽ" data-name="しっぽ" class="cls-4" d="m347.92,229.67s.23-6.26,3.36-7.41c4.6-1.69,7.68,2.2,7.68,2.2,0,0,1.93-7.69,8.71-5.62,4.97,1.51,4.38,6.59,4.38,6.59,0,0,4.25-2.47,7.73,1.52,4.28,4.89.17,8.76.17,8.76,0,0,5.54,1.45,5.63,7.77.07,5.37-4.92,6.64-4.92,6.64,0,0,3.04,3.7-.73,8.04"/>
        <path id="_足" data-name="足" class="cls-7" d="m356.17,363.13s.18-15.94,8.24-20.67c8.06-4.73,26.11,8.92,31.8,9.68,5.69.76,8.15.54,14.21,3.42,6.06,2.89,10.61,6.36,5.45,13.91-5.16,7.54-18.4,7.85-24.87,5.14-3.68-1.54-8.37-6.23-15.11-5.53-7.77.8-19.73-5.94-19.73-5.94Z"/>
        <path id="_胴体" data-name="胴体" class="cls-4" d="m335.76,227.82s12.28-2.71,21.27,3.66c8.76,6.21,8.47,16.15,8.47,16.15,0,0,9.06-.42,14.82,8.6,5.92,9.27,1.1,20.49,1.1,20.49,0,0,9.1,2.54,12.89,13.55,3.2,9.29-3.61,19.98-3.61,19.98,0,0,7.38,4.63,7.81,16.16.53,14.27-5.95,18.74-5.95,18.74,0,0,5.77,8.14,4.61,16.7-1.1,8.12-6.23,14.59-14.23,16.6-12.41,3.13-24.97-5.34-24.97-5.34,0,0-6.72,8.47-22.13,7.89-15.42-.57-20.01-6.89-20.01-6.89,0,0-5.75,7.38-19.83,6.86-14.08-.52-17.27-8.24-17.27-8.24,0,0-3.96,7.45-19.98,6.86-16.02-.6-22.48-8.43-22.48-8.43,0,0-3.96,7.45-20.28,6.84-16.31-.61-20.1-6.33-20.1-6.33,0,0-10.07,3.87-18.95,3.54-8.88-.33-16.94-5.43-16.94-5.43,0,0-5.73,5.79-15.28,5.43s-11.77-5.9-11.77-5.9c0,0-5.88-.03-10.97-6.42-5.09-6.39-2.3-15.06-2.3-15.06,0,0-10.38-5.27-10.92-14.51-.64-10.9,7.9-17.19,7.9-17.19,0,0-9.19-.78-7.74-14.96,1.5-14.72,7.41-12.74,7.41-12.74,0,0,0-21.03,13.13-33.79,15.89-15.43,32.14-11.22,32.14-11.22,0,0,2.38-13.85,15.46-19.32,13.01-5.44,27.15-.81,27.15-.81,0,0,6.18-13.15,21.36-15.66,15.87-2.63,27.56,7,27.56,7,0,0,7.78-11.56,25.09-9.79,15.46,1.58,20.83,14.18,20.83,14.18,0,0,9.06-8.38,21.3-4.91,11.54,3.28,15.41,13.71,15.41,13.71"/>
        <g id="_顔" data-name="顔">
          <path id="_輪郭" data-name="輪郭" class="cls-10" d="m130.46,336.82s-12.25,9.38-18.8-2.64c-3.18-5.83,18.2-21.31,23.05-31.06,0,0,7.33,2.65,8.26,1.28l91.62,6.32c1.51.23,14.77,2.82,16.22,3.06,12.54,2.04,28.02,15.35,22.08,21.43-9.67,9.89-25.03-.18-25.03-.18,5.73,41.43-46.57,43.21-59.73,43.01-1.88-.03-25.92.68-41.17-4.03-23.13-7.14-22.07-20.5-17.49-31.8,1.92-4.75.37-11.41,1.61-17.83"/>
          <g id="_ほっぺ" data-name="ほっぺ">
            <g id="_顔-2" data-name="顔">
              <g>
                <path class="cls-2" d="m215.75,363.74c3.66,0,6.62-2.35,6.62-5.24s-2.96-5.24-6.62-5.24-6.62,2.35-6.62,5.24,2.96,5.24,6.62,5.24Z"/>
                <path class="cls-2" d="m129.14,360.68c.33.69.71,1.35,1.15,2,1.6-.96,2.64-2.47,2.64-4.18,0-2.53-2.26-4.64-5.28-5.13-.06,2.68.43,5.09,1.49,7.31Z"/>
              </g>
            </g>
          </g>
          <path id="_口" data-name="口" class="cls-9" d="m185.52,356.7s-5.18,6.94-12.38,3.95c0,0-2.11-.88-4.3-2.46,0,0-1.03-.79-2.62-.76h.13c-1.59-.03-2.62.76-2.62.76-1.17.84-2.44,1.6-3.37,2.12-1.28.72-2.82.9-4.18.36-2.68-1.07-2.81-3.97-2.81-3.97"/>
          <path id="_鼻" data-name="鼻" class="cls-5" d="m169.26,351.19c-.14-.41-.53-.69-.96-.69h-4.02c-.44,0-.82.28-.96.69-.14.41,0,.87.34,1.13l1.62,1.25c.3.23.65.34,1,.34s.71-.11,1-.34l1.62-1.25c.34-.27.48-.72.34-1.13Z"/>
          <g id="_目" data-name="目">
            <g id="_左目" data-name="左目">
              <path class="cls-5" d="m190.52,343.58c3.11,2.19,6.96,3.45,10.65,2.03,1.18-.41,2.43-1.1,3.4-1.81,1.43-.97,3.02,1.01,1.77,2.2-4.34,4.08-10.83,4.31-15.45.63-.72-.8-2.68-1.72-1.7-2.95.37-.38.93-.38,1.34-.1h0Z"/>
            </g>
            <g id="_右目" data-name="右目">
              <path class="cls-5" d="m148.65,345.5c-3.31,3.45-8.86,4.43-13.05,1.99-1.05-.58-3.05-1.78-1.86-3.2.51-.58,1.34-.61,1.94-.19,3.6,2.39,8.22,2.1,11.82-.22,1.02-.55,2,.86,1.14,1.62h0Z"/>
            </g>
          </g>
        </g>
        <g id="_右手" data-name="右手">
          <path class="cls-10" d="m250.8,350.72s-30.02,21.65-18.59,28.9c8.28,5.24,30.18-6.53,30.18-6.53"/>
          <path class="cls-4" d="m250.1,344.05c-1.99,3.17-2.98,6.78-2.21,10.39,1.27,5.95,8.03,5.24,7.9,5.43-2.86,4.05-2.06,9.82,1.78,12.95,3.46,2.82,9.66,3.07,10.68,2.77"/>
        </g>
        <g id="_つの" data-name="つの">
          <g id="_つの左" data-name="つの左">
            <path class="cls-8" d="m128.67,313.6c9.47,2.79.24-18.73-7.61-27.06-9.65-10.5-20.57-1.09-21.07,13.94-.55,16.56,7.48,24.88,16.63,21.9,9.53-3.11,8.02-22.08,2.07-29.55-3.39-4.25-8.63-3.89-11.56-.47-5.44,6.36-3.29,15.75-.07,18.88,3.47,3.37,8.54.05,8.63-5.19.08-4.46-3.57-6.6-5.6-4.7"/>
            <path class="cls-6" d="m141.7,315.69c4.98-9.34,6.33-22.93,2.1-29.76-.41-.67-.8-.34-.95-.12-5.87,8.24-11.86,8.76-21.85.72,7.85,8.34,7.01,27.17-2.1,35.12-.19.17-.38.77-.03,1.06,8.14,6.67,14.46,5.21,20.91-3.71.37-.52.31-1.38.07-2.05-2.37-6.52-5.04-10.46-5.04-10.46,0,0,2.99,3.45,6.02,9.03.24.44.66.58.88.17Z"/>
          </g>
          <g id="_前髪" data-name="前髪">
            <g>
              <path class="cls-3" d="m153.37,276.8c-12.3-5.08-18.43,8.13-18.43,8.13-6.18,13.06,5.26,22.35,5.26,22.35,11.21,7.69,26.87-5.61,26.87-5.61"/>
              <path class="cls-5" d="m153.09,277.47c-11.7-4.93-21.73,9.1-18.31,19.78,4.53,13.16,14.54,13.76,25.69,7.58,2.07-1.16,4.1-2.51,5.9-3.98.45-.4,1.15-.34,1.53.13.37.46.3,1.12-.15,1.49-1.99,1.62-4.05,2.98-6.24,4.22-8.7,5.04-20.14,6.66-26-3.3-3.22-4.72-4.29-10.85-2.46-16.3,2.13-6.22,7.59-12.14,14.55-12.22,2.12-.1,4.12.57,6.03,1.26.37.14.57.55.43.92-.14.4-.6.58-.98.41h0Z"/>
            </g>
            <g>
              <path class="cls-3" d="m157.6,299.74c-1.71,12.47,8.13,13.91,13.05,13.42,9.62-.96,13.25-10.42,13.25-10.42"/>
              <path class="cls-5" d="m158.29,299.83c-.98,7.31,2.35,12.27,10.07,12.51,6.46.38,12.19-4.21,14.55-9.98.2-.58.85-.88,1.41-.64.55.22.81.86.57,1.41-.74,1.7-1.65,3.14-2.76,4.53-3.23,4.2-8.55,6.82-13.85,6.44-5.53-.15-10.77-3.4-11.41-9.26-.3-1.73-.13-3.47.04-5.19.03-.38.36-.66.74-.63.41.03.69.42.63.82h0Z"/>
            </g>
            <g>
              <path class="cls-3" d="m185.28,299.69s-7.39,5.22-5.37,12.2c2.88,9.94,14.7,8.67,22.62,6.13,12.58-4.04,11.92-16.38,11.92-16.38"/>
              <path class="cls-5" d="m185.78,300.39c-2.79,2.17-5.29,5.39-5.31,9.04.07,3.51,2.3,7.02,5.6,8.34,6.05,2.46,16.1.43,21.34-3.36,3.91-2.89,6.05-7.96,5.98-12.71-.05-.61.43-1.15,1.04-1.16.59,0,1.07.46,1.08,1.04.03,1.48-.14,2.79-.43,4.14-1.09,5.43-4.88,10.2-10,12.38-6.21,2.38-13.32,3.92-19.76,1.39-7.07-3.07-8.75-12.1-3.51-17.68.89-1.05,1.84-1.97,2.99-2.82.38-.28.92-.2,1.2.18.29.39.19.95-.21,1.22h0Z"/>
            </g>
          </g>
          <g id="_つの右" data-name="つの右">
            <path class="cls-8" d="m239.45,316.51c-15.71,3.04-.4-20.47,12.62-29.58,16.01-11.47,34.13-1.19,34.97,15.23.92,18.1-12.42,27.19-27.6,23.93-15.82-3.4-17.44-24.17-7.57-32.33,5.62-4.65,14.32-4.25,19.18-.51,9.03,6.95,5.46,17.21.11,20.63-5.76,3.68-14.17.06-14.33-5.67-.13-4.87,5.93-7.21,9.29-5.14"/>
            <path class="cls-6" d="m214.83,318.51c-8.27-10.21-7.52-24.79-.49-32.25.69-.73,1.33-.37,1.58-.14,9.74,9.01,19.68,9.58,36.25.79-13.03,9.11-11.64,29.7,3.48,38.39.32.18.55.79.06,1.16-12.1,9.19-28.38,6.56-37.69-4.34-.52-.61-.52-1.51-.12-2.24,3.93-7.13,8.37-11.43,8.37-11.43,0,0-4.96,3.77-9.99,9.87-.4.48-1.09.64-1.46.19Z"/>
          </g>
        </g>
      </g>
      <path id="_パス_619" data-name="パス 619" class="cls-1" d="m3.14,207.58c-7.15,94.07,39.63,187.48,119.56,236.68,169.62,106.61,394.35-29.53,376.49-229.49C493.02,121.48,430.54,36.54,343.94,0c176.78,56.06,231.95,282.64,106.67,417.76C277.54,604.48-34.67,461.87,3.15,207.58"/>
    </g>
  </g>
</svg>