<svg xmlns="http://www.w3.org/2000/svg" xmlns:xlink="http://www.w3.org/1999/xlink" width="202.006" height="195.945" viewBox="0 0 202.006 195.945">
  <defs>
    <clipPath id="clip-path">
      <rect id="長方形_36" data-name="長方形 36" width="106.387" height="59.229" fill="none"/>
    </clipPath>
  </defs>
  <g id="グループ_1023" data-name="グループ 1023" transform="translate(-86.497 -288)">
    <path id="パス_619" data-name="パス 619" d="M359.957,403.923c-2.785,36.646,15.44,73.034,46.578,92.2,66.078,41.531,153.626-11.5,146.669-89.4-2.409-36.343-26.748-69.435-60.486-83.668C561.587,344.9,583.08,433.163,534.272,485.8c-67.42,72.742-189.043,17.186-174.316-81.877" transform="translate(-272.234 -35.056)" fill="#fef6b7"/>
    <g id="グループ_470" data-name="グループ 470" transform="translate(134.307 373.358)" clip-path="url(#clip-path)">
      <path id="パス_1169" data-name="パス 1169" d="M23.3,184.854s-9.916,6.2-6.459,8.726c2.5,1.825,9.651-1.433,9.651-1.433" transform="translate(-11.877 -136.256)" fill="#fff8e6" stroke="#707070" stroke-width="0.5"/>
      <path id="パス_1170" data-name="パス 1170" d="M23.3,184.854s-9.916,6.2-6.459,8.726c2.5,1.825,9.651-1.433,9.651-1.433" transform="translate(-11.877 -136.256)" fill="none" stroke="#474645" stroke-linejoin="round" stroke-width="0.5"/>
      <path id="パス_1171" data-name="パス 1171" d="M314.791,22.291s.075-2.083,1.117-2.465a2.342,2.342,0,0,1,2.556.731s.641-2.557,2.9-1.869a2.068,2.068,0,0,1,1.456,2.193,2.059,2.059,0,0,1,2.573.505,2.026,2.026,0,0,1,.057,2.915,2.653,2.653,0,0,1,1.871,2.583,2.241,2.241,0,0,1-1.637,2.207,2.035,2.035,0,0,1-.244,2.674" transform="translate(-232.033 -13.688)" fill="#e4f2ee"/>
      <path id="パス_1172" data-name="パス 1172" d="M314.791,22.291s.075-2.083,1.117-2.465a2.342,2.342,0,0,1,2.556.731s.641-2.557,2.9-1.869a2.068,2.068,0,0,1,1.456,2.193,2.059,2.059,0,0,1,2.573.505,2.026,2.026,0,0,1,.057,2.915,2.653,2.653,0,0,1,1.871,2.583,2.241,2.241,0,0,1-1.637,2.207,2.035,2.035,0,0,1-.244,2.674" transform="translate(-232.033 -13.688)" fill="#b7c68a" stroke="#474645" stroke-linecap="round" stroke-linejoin="round" stroke-width="0.5"/>
      <path id="パス_1173" data-name="パス 1173" d="M325.229,181.375s.061-5.3,2.741-6.877,8.685,2.966,10.578,3.22a12.073,12.073,0,0,1,4.728,1.139c2.015.96,3.53,2.116,1.813,4.625s-6.121,2.611-8.272,1.71c-1.225-.513-2.783-2.071-5.025-1.84-2.584.266-6.563-1.977-6.563-1.977" transform="translate(-239.727 -128.379)" fill="#fff8e6"/>
      <path id="パス_1174" data-name="パス 1174" d="M325.229,181.375s.061-5.3,2.741-6.877,8.685,2.966,10.578,3.22a12.073,12.073,0,0,1,4.728,1.139c2.015.96,3.53,2.116,1.813,4.625s-6.121,2.611-8.272,1.71c-1.225-.513-2.783-2.071-5.025-1.84C329.208,183.618,325.229,181.375,325.229,181.375Z" transform="translate(-239.727 -128.379)" fill="none" stroke="#474645" stroke-linecap="round" stroke-linejoin="round" stroke-width="0.5"/>
      <path id="パス_1175" data-name="パス 1175" d="M87.667,8.77s4.086-.9,7.077,1.218A6.811,6.811,0,0,1,97.56,15.36a5.909,5.909,0,0,1,4.931,2.859c1.97,3.084.364,6.815.364,6.815a6.99,6.99,0,0,1,4.287,4.508c1.064,3.091-1.2,6.646-1.2,6.646a6.628,6.628,0,0,1,2.6,5.374c.176,4.746-1.98,6.233-1.98,6.233a8.9,8.9,0,0,1,1.533,5.554,6.33,6.33,0,0,1-4.734,5.523c-4.127,1.04-8.305-1.777-8.305-1.777s-2.234,2.816-7.363,2.626-6.654-2.291-6.654-2.291-1.913,2.457-6.6,2.282-5.745-2.741-5.745-2.741-1.318,2.478-6.646,2.28-7.476-2.806-7.476-2.806-1.318,2.478-6.744,2.277-6.684-2.107-6.684-2.107a18.811,18.811,0,0,1-6.3,1.178A12.921,12.921,0,0,1,29.2,55.989,7.165,7.165,0,0,1,24.12,57.8c-3.178-.118-3.914-1.961-3.914-1.961A5.13,5.13,0,0,1,16.558,53.7a5.876,5.876,0,0,1-.764-5.01s-3.452-1.752-3.634-4.828a7.02,7.02,0,0,1,2.629-5.718s-3.056-.259-2.576-4.975c.5-4.9,2.463-4.238,2.463-4.238s0-7,4.368-11.241c5.285-5.136,10.693-3.733,10.693-3.733a9.129,9.129,0,0,1,5.141-6.427,14.477,14.477,0,0,1,9.032-.27,10.077,10.077,0,0,1,7.1-5.207A12.328,12.328,0,0,1,60.181,4.38a8.95,8.95,0,0,1,8.347-3.258,8.584,8.584,0,0,1,6.93,4.719,7.88,7.88,0,0,1,7.084-1.632A8.067,8.067,0,0,1,87.667,8.77" transform="translate(-8.955 -0.782)" fill="#b7c68a"/>
      <path id="パス_1176" data-name="パス 1176" d="M87.667,8.77s4.086-.9,7.077,1.218A6.811,6.811,0,0,1,97.56,15.36a5.909,5.909,0,0,1,4.931,2.859c1.97,3.084.364,6.815.364,6.815a6.99,6.99,0,0,1,4.287,4.508c1.064,3.091-1.2,6.646-1.2,6.646a6.628,6.628,0,0,1,2.6,5.374c.176,4.746-1.98,6.233-1.98,6.233a8.9,8.9,0,0,1,1.533,5.554,6.33,6.33,0,0,1-4.734,5.523c-4.127,1.04-8.305-1.777-8.305-1.777s-2.234,2.816-7.363,2.626-6.654-2.291-6.654-2.291-1.913,2.457-6.6,2.282-5.745-2.741-5.745-2.741-1.318,2.478-6.646,2.28-7.476-2.806-7.476-2.806-1.318,2.478-6.744,2.277-6.684-2.107-6.684-2.107a18.811,18.811,0,0,1-6.3,1.178A12.921,12.921,0,0,1,29.2,55.989,7.165,7.165,0,0,1,24.12,57.8c-3.178-.118-3.914-1.961-3.914-1.961A5.13,5.13,0,0,1,16.558,53.7a5.876,5.876,0,0,1-.764-5.01s-3.452-1.752-3.634-4.828a7.02,7.02,0,0,1,2.629-5.718s-3.056-.259-2.576-4.975c.5-4.9,2.463-4.238,2.463-4.238s0-7,4.368-11.241c5.285-5.136,10.693-3.733,10.693-3.733a9.129,9.129,0,0,1,5.141-6.427,14.477,14.477,0,0,1,9.032-.27,10.077,10.077,0,0,1,7.1-5.207A12.328,12.328,0,0,1,60.181,4.38a8.95,8.95,0,0,1,8.347-3.258,8.584,8.584,0,0,1,6.93,4.719,7.88,7.88,0,0,1,7.084-1.632A8.067,8.067,0,0,1,87.667,8.77" transform="translate(-8.955 -0.782)" fill="none" stroke="#474645" stroke-linecap="round" stroke-linejoin="round" stroke-width="0.5"/>
      <path id="パス_1177" data-name="パス 1177" d="M21.8,136.858s-4.075,3.12-6.254-.878c-1.057-1.938,6.053-7.086,7.666-10.331,0,0,2.437.883,2.746.427l30.476,2.1c.5.075,4.913.939,5.4,1.018,4.172.679,9.32,5.107,7.344,7.129-3.217,3.29-8.326-.061-8.326-.061,1.905,13.781-15.489,14.373-19.868,14.307-.626-.01-8.622.225-13.7-1.34-7.7-2.373-7.342-6.818-5.817-10.578.638-1.577.122-3.8.534-5.933" transform="translate(-11.384 -92.615)" fill="#fff8e6"/>
      <path id="パス_1178" data-name="パス 1178" d="M21.8,136.858s-4.075,3.12-6.254-.878c-1.057-1.938,6.053-7.086,7.666-10.331,0,0,2.437.883,2.746.427l30.476,2.1c.5.075,4.913.939,5.4,1.018,4.172.679,9.32,5.107,7.344,7.129-3.217,3.29-8.326-.061-8.326-.061,1.905,13.781-15.489,14.373-19.868,14.307-.626-.01-8.622.225-13.7-1.34-7.7-2.373-7.342-6.818-5.817-10.578.638-1.577.122-3.8.534-5.933" transform="translate(-11.384 -92.615)" fill="none" stroke="#474645" stroke-linejoin="round" stroke-width="0.5"/>
      <path id="パス_1179" data-name="パス 1179" d="M83.141,185.837a.338.338,0,0,0-.32-.229H81.485a.338.338,0,0,0-.206.606l.54.416a.549.549,0,0,0,.668,0l.54-.416a.338.338,0,0,0,.113-.376" transform="translate(-59.814 -136.812)" fill="#474645"/>
      <path id="パス_1180" data-name="パス 1180" d="M79.33,193.442s-1.723,2.307-4.118,1.314a8.047,8.047,0,0,1-1.431-.817,1.483,1.483,0,0,0-.87-.252h.042a1.484,1.484,0,0,0-.87.252,12.069,12.069,0,0,1-1.122.7,1.628,1.628,0,0,1-1.392.12,1.562,1.562,0,0,1-.933-1.321" transform="translate(-50.592 -142.587)" fill="none" stroke="#474645" stroke-linecap="round" stroke-linejoin="round" stroke-width="0.5"/>
      <path id="パス_1181" data-name="パス 1181" d="M119.739,178.6a4.175,4.175,0,0,1-2.5.845,3.727,3.727,0,0,1-2.492-.839" transform="translate(-84.584 -131.647)" fill="none" stroke="#474645" stroke-linecap="round" stroke-linejoin="round" stroke-width="0.5"/>
      <path id="パス_1182" data-name="パス 1182" d="M50.411,178.6a3.9,3.9,0,0,1-2.332.789,3.483,3.483,0,0,1-2.328-.784" transform="translate(-33.723 -131.647)" fill="none" stroke="#474645" stroke-linecap="round" stroke-linejoin="round" stroke-width="0.5"/>
      <path id="パス_1183" data-name="パス 1183" d="M141.39,192.589a1.79,1.79,0,1,0-2.2-1.742,2.013,2.013,0,0,0,2.2,1.742" transform="translate(-102.596 -139.389)" fill="#f8d2d5"/>
      <path id="パス_1184" data-name="パス 1184" d="M36.571,191.672a5.04,5.04,0,0,0,.382.666,1.652,1.652,0,0,0,.878-1.389,1.9,1.9,0,0,0-1.755-1.706,5.3,5.3,0,0,0,.495,2.431" transform="translate(-26.59 -139.49)" fill="#f8d2d5"/>
      <path id="パス_1185" data-name="パス 1185" d="M172.15,185.878s-9.988,7.2-6.182,9.613c2.752,1.744,10.038-2.173,10.038-2.173" transform="translate(-121.698 -137.011)" fill="#fff8e6"/>
      <path id="パス_1186" data-name="パス 1186" d="M172.15,185.878s-9.988,7.2-6.182,9.613c2.752,1.744,10.038-2.173,10.038-2.173" transform="translate(-121.698 -137.011)" fill="none" stroke="#474645" stroke-linejoin="round" stroke-width="0.5"/>
      <path id="パス_1187" data-name="パス 1187" d="M188.736,177.443A4.656,4.656,0,0,0,188,180.9c.421,1.979,2.671,1.742,2.626,1.806a3.221,3.221,0,0,0,.592,4.309,5.505,5.505,0,0,0,3.551.921" transform="translate(-138.517 -130.794)" fill="#b7c68a"/>
      <path id="パス_1188" data-name="パス 1188" d="M188.736,177.443A4.656,4.656,0,0,0,188,180.9c.421,1.979,2.671,1.742,2.626,1.806a3.221,3.221,0,0,0,.592,4.309,5.505,5.505,0,0,0,3.551.921" transform="translate(-138.517 -130.794)" fill="none" stroke="#474645" stroke-linecap="round" stroke-linejoin="round" stroke-width="0.5"/>
      <path id="パス_1189" data-name="パス 1189" d="M10.611,109.52c3.15.927.081-6.23-2.531-9-3.209-3.492-6.842-.361-7.008,4.635-.183,5.509,2.489,8.275,5.532,7.283,3.171-1.034,2.666-7.345.69-9.829a2.413,2.413,0,0,0-3.844-.155,5.044,5.044,0,0,0-.022,6.279c1.155,1.12,2.84.018,2.871-1.727.027-1.483-1.188-2.195-1.861-1.564" transform="translate(-0.784 -72.998)" fill="#fff9d1"/>
      <path id="パス_1190" data-name="パス 1190" d="M10.611,109.52c3.15.927.081-6.23-2.531-9-3.209-3.492-6.842-.361-7.008,4.635-.183,5.509,2.489,8.275,5.532,7.283,3.171-1.034,2.666-7.345.69-9.829a2.413,2.413,0,0,0-3.844-.155,5.044,5.044,0,0,0-.022,6.279c1.155,1.12,2.84.018,2.871-1.727.027-1.483-1.188-2.195-1.861-1.564" transform="translate(-0.784 -72.998)" fill="none" stroke="#474645" stroke-linecap="round" stroke-linejoin="round" stroke-width="0.5"/>
      <path id="パス_1191" data-name="パス 1191" d="M32.4,113.432c1.657-3.108,2.107-7.628.7-9.9-.138-.222-.265-.113-.316-.042-1.953,2.741-3.945,2.914-7.266.241,2.611,2.772,2.332,9.039-.7,11.683a.263.263,0,0,0-.011.353c2.709,2.215,4.809,1.732,6.954-1.235a.789.789,0,0,0,.023-.683,17.206,17.206,0,0,0-1.677-3.478,18.426,18.426,0,0,1,2,3c.08.147.219.194.293.057" transform="translate(-18.235 -76.218)" fill="#86bfaa"/>
      <path id="パス_1192" data-name="パス 1192" d="M32.4,113.432c1.657-3.108,2.107-7.628.7-9.9-.138-.222-.265-.113-.316-.042-1.953,2.741-3.945,2.914-7.266.241,2.611,2.772,2.332,9.039-.7,11.683a.263.263,0,0,0-.011.353c2.709,2.215,4.809,1.732,6.954-1.235a.789.789,0,0,0,.023-.683,17.206,17.206,0,0,0-1.677-3.478,18.426,18.426,0,0,1,2,3C32.183,113.523,32.323,113.57,32.4,113.432Z" transform="translate(-18.235 -76.218)" fill="#617e42" stroke="#474645" stroke-linecap="round" stroke-linejoin="round" stroke-width="0.5"/>
      <path id="パス_1193" data-name="パス 1193" d="M49.73,91.27c-4.093-1.69-6.13,2.7-6.13,2.7-2.055,4.344,1.749,7.435,1.749,7.435,3.728,2.559,8.937-1.867,8.937-1.867" transform="translate(-31.689 -66.99)" fill="#b7c68a"/>
      <path id="パス_1194" data-name="パス 1194" d="M48.966,90.863c-2.787-1.187-5.276.8-6.142,3.42a6.054,6.054,0,0,0,2,6.335c2.7,1.782,6.294-.048,8.589-1.875a.279.279,0,0,1,.362.425c-4.052,3.212-9.459,4.535-11.483-1.512a6.04,6.04,0,0,1-.14-2.787c.04-.159.15-.577.193-.741.7-2.042,2.492-4.005,4.779-4.036a4.966,4.966,0,0,1,1.985.418.19.19,0,1,1-.145.351" transform="translate(-30.997 -66.409)" fill="#474645"/>
      <path id="パス_1195" data-name="パス 1195" d="M73.8,121.374c-.568,4.146,2.7,4.627,4.34,4.464a5.683,5.683,0,0,0,4.407-3.464" transform="translate(-54.353 -89.465)" fill="#b7c68a"/>
      <path id="パス_1196" data-name="パス 1196" d="M73.481,120.863a4.078,4.078,0,0,0,.6,3.028c1.389,1.624,4.131,1.509,5.769.312a6,6,0,0,0,1.933-2.466.28.28,0,1,1,.522.2,6.472,6.472,0,0,1-.9,1.488,5.389,5.389,0,0,1-4.549,2.126,3.6,3.6,0,0,1-3.748-3.026,6.225,6.225,0,0,1,.012-1.712.18.18,0,0,1,.194-.166.184.184,0,0,1,.165.215" transform="translate(-53.851 -88.929)" fill="#474645"/>
      <path id="パス_1197" data-name="パス 1197" d="M103.673,121.315s-2.46,1.735-1.787,4.058c.958,3.3,4.889,2.883,7.524,2.037a5.57,5.57,0,0,0,3.964-5.447" transform="translate(-75.015 -89.422)" fill="#b7c68a"/>
      <path id="パス_1198" data-name="パス 1198" d="M103.159,120.859a4.147,4.147,0,0,0-1.8,3.057,3.172,3.172,0,0,0,1.9,2.835c1.975.832,5.462.138,7.166-1.122a5.332,5.332,0,0,0,2.022-4.289.279.279,0,0,1,.558-.03,5.867,5.867,0,0,1-4.684,5.866,8.236,8.236,0,0,1-5.257.029,3.561,3.561,0,0,1-1.876-4.637,5.416,5.416,0,0,1,1.709-2.074.225.225,0,1,1,.26.368" transform="translate(-74.371 -88.782)" fill="#474645"/>
      <path id="パス_1199" data-name="パス 1199" d="M171.321,110.462c-5.227,1.014-.134-6.809,4.2-9.838,5.325-3.817,11.354-.395,11.631,5.066.3,6.022-4.131,9.045-9.18,7.961-5.263-1.13-5.8-8.04-2.516-10.755a5.392,5.392,0,0,1,6.38-.169,4.15,4.15,0,0,1,.038,6.863c-1.917,1.225-4.713.02-4.765-1.886a2.091,2.091,0,0,1,3.089-1.709" transform="translate(-124.647 -72.975)" fill="#fff9d1"/>
      <path id="パス_1200" data-name="パス 1200" d="M171.321,110.462c-5.227,1.014-.134-6.809,4.2-9.838,5.325-3.817,11.354-.395,11.631,5.066.3,6.022-4.131,9.045-9.18,7.961-5.263-1.13-5.8-8.04-2.516-10.755a5.392,5.392,0,0,1,6.38-.169,4.15,4.15,0,0,1,.038,6.863c-1.917,1.225-4.713.02-4.765-1.886a2.091,2.091,0,0,1,3.089-1.709" transform="translate(-124.647 -72.975)" fill="none" stroke="#474645" stroke-linecap="round" stroke-linejoin="round" stroke-width="0.5"/>
      <path id="パス_1201" data-name="パス 1201" d="M140.816,114.643c-2.751-3.4-2.5-8.245-.164-10.726a.346.346,0,0,1,.526-.045c3.241,3,6.547,3.185,12.059.263-4.333,3.03-3.871,9.88,1.159,12.769a.233.233,0,0,1,.018.386,9.134,9.134,0,0,1-12.535-1.443.659.659,0,0,1-.038-.747,17.607,17.607,0,0,1,2.784-3.8,22.423,22.423,0,0,0-3.322,3.283.317.317,0,0,1-.486.062" transform="translate(-102.329 -76.49)" fill="#617e42"/>
      <path id="パス_1202" data-name="パス 1202" d="M140.816,114.643c-2.751-3.4-2.5-8.245-.164-10.726a.346.346,0,0,1,.526-.045c3.241,3,6.547,3.185,12.059.263-4.333,3.03-3.871,9.88,1.159,12.769a.233.233,0,0,1,.018.386,9.134,9.134,0,0,1-12.535-1.443.659.659,0,0,1-.038-.747,17.607,17.607,0,0,1,2.784-3.8,22.423,22.423,0,0,0-3.322,3.283.317.317,0,0,1-.489.062Z" transform="translate(-102.329 -76.49)" fill="none" stroke="#474645" stroke-linecap="round" stroke-linejoin="round" stroke-width="0.5"/>
    </g>
  </g>
</svg>
