<svg xmlns="http://www.w3.org/2000/svg" width="20" height="23" viewBox="0 0 20 23">
  <path id="前面オブジェクトで型抜き_20" data-name="前面オブジェクトで型抜き 20" d="M17.778,23H2.222L5.757,20.2H4.444A4.471,4.471,0,0,1,0,15.708V4.488A4.471,4.471,0,0,1,4.444,0H15.556A4.471,4.471,0,0,1,20,4.488V15.708A4.471,4.471,0,0,1,15.556,20.2H14.243L17.775,23Zm-2.222-9.536a1.683,1.683,0,1,0,1.666,1.683A1.677,1.677,0,0,0,15.556,13.464Zm-11.111,0a1.683,1.683,0,1,0,1.667,1.683A1.677,1.677,0,0,0,4.444,13.464Zm8.722-8.415a1.5,1.5,0,0,0-1.5,1.5V9.158a1.5,1.5,0,0,0,1.5,1.5h2.556a1.5,1.5,0,0,0,1.5-1.5V6.549a1.5,1.5,0,0,0-1.5-1.5Zm-8.888,0a1.5,1.5,0,0,0-1.5,1.5V9.158a1.5,1.5,0,0,0,1.5,1.5H6.833a1.5,1.5,0,0,0,1.5-1.5V6.549a1.5,1.5,0,0,0-1.5-1.5Z" fill="#b6cc29"/>
</svg>
