<svg xmlns="http://www.w3.org/2000/svg" width="166.962" height="170.937" viewBox="0 0 166.962 170.937">
  <g id="グループ_1000" data-name="グループ 1000" transform="translate(-818.18 -366.396)">
    <path id="パス_959" data-name="パス 959" d="M361.808,244.009c24.914,58.468,108.316,54.837,126.147-6.662,12.486-44.586-25.052-88.411-71.306-83.983,48.083-7.905,88.434,38.4,75.534,85.127-17.762,64.579-107.792,69.121-130.376,5.518" transform="translate(468.143 240.524)" fill="#d6eadf"/>
    <path id="パス_960" data-name="パス 960" d="M378.938,165.878a8.806,8.806,0,1,1,.739-12.432,8.8,8.8,0,0,1-.739,12.432" transform="translate(475.139 234.894)" fill="#d6eadf"/>
    <path id="パス_961" data-name="パス 961" d="M405.674,186.464A17.042,17.042,0,1,1,407.1,162.4a17.047,17.047,0,0,1-1.427,24.061" transform="translate(511.972 252.396)" fill="#d6eadf"/>
    <path id="パス_962" data-name="パス 962" d="M402.321,162.75a11.645,11.645,0,1,1-4.642-15.8,11.645,11.645,0,0,1,4.642,15.8" transform="translate(520.847 220.872)" fill="#d6eadf"/>
    <path id="パス_963" data-name="パス 963" d="M416.963,179.731a12.966,12.966,0,1,1,1.087-18.3,12.96,12.96,0,0,1-1.087,18.3" transform="translate(563.058 253.513)" fill="#fefadb"/>
    <path id="パス_964" data-name="パス 964" d="M359.566,210.41c-1.9,24.975,10.523,49.775,31.744,62.838,45.034,28.3,104.7-7.84,99.959-60.929C489.628,187.55,473.041,165,450.047,155.3c46.935,14.885,61.583,75.041,28.32,110.914-45.948,49.576-128.837,11.713-118.8-55.8" transform="translate(459.449 248.494)" fill="#fff"/>
    <path id="パス_965" data-name="パス 965" d="M407.34,171.433a11.417,11.417,0,1,1,.957-16.117,11.417,11.417,0,0,1-.957,16.117" transform="translate(543.145 237.704)" fill="#fff"/>
    <path id="パス_966" data-name="パス 966" d="M416.859,185.277a12.7,12.7,0,1,1,1.064-17.927,12.7,12.7,0,0,1-1.064,17.927" transform="translate(564.016 270.497)" fill="#fff"/>
    <path id="パス_967" data-name="パス 967" d="M408.365,187.662a7.215,7.215,0,1,1,.6-10.186,7.212,7.212,0,0,1-.6,10.186" transform="translate(565.798 304.325)" fill="#fff"/>
    <path id="パス_968" data-name="パス 968" d="M398.026,186.88a7.12,7.12,0,1,1,.6-10.052,7.12,7.12,0,0,1-.6,10.052" transform="translate(537.023 302.59)" fill="#fff"/>
    <path id="パス_969" data-name="パス 969" d="M399.148,179.168a9.7,9.7,0,1,1,.811-13.687,9.7,9.7,0,0,1-.811,13.687" transform="translate(528.084 268.069)" fill="#fff"/>
    <path id="パス_970" data-name="パス 970" d="M392.829,160.6a8.057,8.057,0,1,1-3.21-10.932,8.056,8.056,0,0,1,3.21,10.932" transform="translate(513.062 229.784)" fill="#fff"/>
    <path id="パス_971" data-name="パス 971" d="M387.119,168.945a7.059,7.059,0,1,1,.589-9.964,7.058,7.058,0,0,1-.589,9.964" transform="translate(506.482 252.199)" fill="#fff"/>
  </g>
</svg>
