<svg xmlns="http://www.w3.org/2000/svg" width="67.338" height="76.159" viewBox="0 0 67.338 76.159">
  <path id="パス_2235" data-name="パス 2235" d="M36.447,25.714C41.584,38.34,39.415,52.792,34.5,65.177,24.647,62.024,15.2,56.84,8.33,48.929,1.415,41.113-1,30.166.367,19.988A64.5,64.5,0,0,1,6.435,0c12.38,4.937,24.37,13.3,30.012,25.714m0,0C30.973,13.612,18.819,6,6.608,1.969l1.078-.463A64.052,64.052,0,0,0,3.4,20.28,36.515,36.515,0,0,0,17.679,53.458a63.756,63.756,0,0,0,16.586,9.793l-1.068.46c5.458-11.645,8.28-25.7,3.251-38" transform="translate(0 20.291) rotate(-31)" fill="#d6eadf"/>
</svg>
