<svg xmlns="http://www.w3.org/2000/svg" width="42.933" height="51.398" viewBox="0 0 42.933 51.398">
  <path id="パス_19" data-name="パス 19" d="M24.74,17.454c3.487,8.57,2.015,18.38-1.325,26.787-6.685-2.14-13.1-5.66-17.761-11.029C.96,27.907-.68,20.476.249,13.568A43.784,43.784,0,0,1,4.368,0c8.4,3.351,16.542,9.03,20.372,17.454m0,0C21.024,9.24,12.774,4.076,4.486,1.337l.732-.314A43.477,43.477,0,0,0,2.309,13.766,24.786,24.786,0,0,0,12,36.286a43.277,43.277,0,0,0,11.258,6.647l-.725.312c3.705-7.9,5.62-17.448,2.207-25.792" transform="translate(0 11.301) rotate(-25)" fill="#fff"/>
</svg>
