<svg id="グループ_55" data-name="グループ 55" xmlns="http://www.w3.org/2000/svg" xmlns:xlink="http://www.w3.org/1999/xlink" width="66.435" height="30.628" viewBox="0 0 66.435 30.628">
  <defs>
    <clipPath id="clip-path">
      <rect id="長方形_40" data-name="長方形 40" width="66.435" height="30.628" fill="#35995f"/>
    </clipPath>
  </defs>
  <g id="グループ_54" data-name="グループ 54" clip-path="url(#clip-path)">
    <path id="パス_1065" data-name="パス 1065" d="M19.261,31.7H.48A.49.49,0,0,1,0,31.2a.509.509,0,0,1,.48-.527H5.238l1.9-8.457H2.585a.47.47,0,0,1-.48-.481.49.49,0,0,1,.48-.5H7.343l1.167-5.27H1.258a.489.489,0,0,1-.48-.5.508.508,0,0,1,.48-.526H17.224a.927.927,0,0,1,.915-.871.9.9,0,0,1,.915.893,1.017,1.017,0,0,1-.938.986H10.225L9.013,21.253h4.781a.811.811,0,0,1,1.532.367v9.075h3.042a.926.926,0,0,1,.915-.87.94.94,0,0,1-.023,1.879M6.886,30.695H13.7v-8.48h-4.9Z" transform="translate(0 -2.954)" fill="#35995f"/>
    <path id="パス_1066" data-name="パス 1066" d="M45.312,32.054a1.085,1.085,0,0,1-1.1,1.1,1.049,1.049,0,0,1-.938-1.49H42.247a.361.361,0,0,1-.366-.367.381.381,0,0,1,.366-.389H43.6V24.445H35.59c-.321,4.4-1.739,7.1-4.735,8.8a.386.386,0,0,1-.48-.6c2.31-2.384,3.522-5.134,3.522-9.487v-9.1a.916.916,0,0,1,1.716-.481h8.1a.857.857,0,0,1,1.6.413ZM35.635,18.51H43.6V14.523H35.635Zm0,4.973H43.6V19.472H35.635Z" transform="translate(-6.358 -2.755)" fill="#35995f"/>
    <path id="パス_1067" data-name="パス 1067" d="M76.645,25.957h-7.48v6.119a.962.962,0,0,1-.983,1.032,1,1,0,0,1-.915-1.4h-.915a.381.381,0,0,1-.365-.389.36.36,0,0,1,.365-.367h1.19V25.979H58.6a.5.5,0,0,1,0-1.008H75.753a.926.926,0,0,1,.915-.871.9.9,0,0,1,.893.917.924.924,0,0,1-.915.94M67.38,15.667A14.7,14.7,0,0,1,58.711,24.1a.36.36,0,1,1-.275-.664,16.115,16.115,0,0,0,7.389-8.25H62.508a20,20,0,0,1-3.705,3.6c-.412.3-.755-.252-.48-.551a31.127,31.127,0,0,0,4.072-5.889.987.987,0,0,1,.892-.551.909.909,0,0,1,.915.939,1,1,0,0,1-.641.917,6.292,6.292,0,0,1-.434.641h3.043a.961.961,0,1,1,1.212,1.375M63.446,29a14.113,14.113,0,0,1-4,3.163.366.366,0,0,1-.412-.6,32.88,32.88,0,0,0,3.386-4.1A.993.993,0,1,1,63.446,29M61.638,20.64a.77.77,0,0,1-.8-.8c-.16-.367-.526-1.054-.732-1.4a.371.371,0,0,1,.5-.5,3.714,3.714,0,0,1,1.67,1.649.742.742,0,0,1-.641,1.055m2.013-2.475a.743.743,0,0,1-.915-.825c-.092-.183-.389-.8-.5-.962-.183-.275.023-.688.412-.528A3.078,3.078,0,0,1,64.064,17a.753.753,0,0,1-.412,1.169m7.709,4.4H64.2a.482.482,0,0,1,0-.963H70.56a.8.8,0,0,1,.824-.71.84.84,0,0,1,.846.825.865.865,0,0,1-.87.848m6.841-.528a7.3,7.3,0,0,1-.732-.16.846.846,0,0,1-1.212.962A12.956,12.956,0,0,1,68.5,13.65a.373.373,0,0,1,.732-.137l.091.3h5.513a1.067,1.067,0,0,1,1.784.344,1.056,1.056,0,0,1-.892,1.4,30.994,30.994,0,0,1-2.768,3.209,13.045,13.045,0,0,0,5.4,2.566.364.364,0,0,1-.16.71M69.714,14.7a11.707,11.707,0,0,0,2.653,3.529c.549-.893,1.509-2.543,1.991-3.529Zm6.359,17.165a.9.9,0,0,1-1.3-.665A14.509,14.509,0,0,0,71.7,28.248a.376.376,0,0,1,.32-.665c2.4.711,4.026,1.833,4.484,2.979a.937.937,0,0,1-.435,1.306" transform="translate(-12.21 -2.478)" fill="#35995f"/>
    <path id="パス_1068" data-name="パス 1068" d="M4.114,1.268H3.226a.876.876,0,0,1,.345.537.252.252,0,1,1-.484-.023l-.162-.514H2.536A4.83,4.83,0,0,1,1.523,2.363.121.121,0,0,1,1.354,2.2,9.814,9.814,0,0,0,2.558.182a.307.307,0,0,1,.588.125.292.292,0,0,1-.213.286,3.863,3.863,0,0,1-.205.382H3.886a.237.237,0,0,1,.235-.19.25.25,0,0,1,.242.25.239.239,0,0,1-.249.235M6.227,6.185a.28.28,0,0,1-.308-.419l-.213-.022a.122.122,0,0,1-.11-.133.127.127,0,0,1,.132-.117l.66.051A2.047,2.047,0,0,0,6.8,4.458H4.621V6.523a.251.251,0,0,1-.25.242.244.244,0,0,1-.242-.242V4.7A5.586,5.586,0,0,1,1.692,6.486a.115.115,0,0,1-.1-.205A9.061,9.061,0,0,0,3.673,4.458H2.191l-.014.059a.245.245,0,0,1-.3.175A.253.253,0,0,1,1.7,4.384l.315-1.19a.25.25,0,0,1,.47-.029H4.128V2.555H2.184a.155.155,0,0,1,0-.31h4.1a.248.248,0,0,1,.447.148v1a.247.247,0,0,1-.485.066H4.613v.7h2.26a.257.257,0,0,1,.462.183C7.2,5.3,6.961,6.046,6.227,6.185M2.272,4.157H4.128v-.7H2.455ZM7.284,1.35H5.75a.664.664,0,0,1,.389.47.256.256,0,0,1-.22.287.251.251,0,0,1-.28-.265A4.649,4.649,0,0,0,5.4,1.43a.11.11,0,0,1-.029-.081H4.987a4.917,4.917,0,0,1-.631.735.118.118,0,0,1-.183-.147A9.806,9.806,0,0,0,4.979.262.31.31,0,0,1,5.273.049a.3.3,0,0,1,.3.3.309.309,0,0,1-.19.288,3.758,3.758,0,0,1-.205.411H7.019A.27.27,0,0,1,7.284.806a.272.272,0,0,1,0,.544M4.613,3.164H6.234V2.547H4.613Z" transform="translate(-0.279 0)" fill="#35995f"/>
    <path id="パス_1069" data-name="パス 1069" d="M12.278,6.215a1.186,1.186,0,0,1-1.165-.22c-.375-.368-.44-.858.049-.98.131-.033.383.073.473.588.057.3.2.425.554.294.978-.367,1.116-1.707,1.116-2.368a1.652,1.652,0,0,1-1.344.645c-.22-.033-1.271-.164-1.3-1.724A1.743,1.743,0,0,1,12.2.521c.815,0,1.752.662,1.752,2.532,0,1.895-.831,2.9-1.671,3.161M12.18.831c-.709-.017-.9,1.291-.9,1.6,0,.613.171,1.307.946,1.323A1.116,1.116,0,0,0,13.289,2.67C13.207,1.46,12.84.848,12.18.831" transform="translate(-2.239 -0.11)" fill="#35995f"/>
    <path id="パス_1070" data-name="パス 1070" d="M17.852,6.283c-.513.025-1.776-.31-1.735-2.622a3.7,3.7,0,0,1,1-2.687A1.328,1.328,0,0,1,18.944.851a.43.43,0,0,1-.245.727c-.081,0-.276-.032-.374-.384-.089-.318-.171-.335-.261-.335a.8.8,0,0,0-.57.2,3.747,3.747,0,0,0-.765,2.46,1.613,1.613,0,0,1,1.36-.867c.3.017,1.246.237,1.288,1.724a1.788,1.788,0,0,1-1.524,1.9M17.8,3.04c-.457.024-1.058.809-1.058,1.454,0,.612.276,1.462,1.173,1.462.692-.066.839-1,.839-1.577.009-.89-.334-1.372-.953-1.34" transform="translate(-3.386 -0.113)" fill="#35995f"/>
    <path id="パス_1071" data-name="パス 1071" d="M27.655,6.326a.26.26,0,0,1-.521,0V6.245H22.709v.147a.26.26,0,0,1-.521,0V.69a.258.258,0,0,1,.265-.258.279.279,0,0,1,.227.125h4.484a.263.263,0,0,1,.491.125ZM27.134.866H22.709v5.07h4.425Zm-.976,3.991a.242.242,0,1,1-.484,0V4.732H24.118v.19a.242.242,0,1,1-.484-.014V2.056a.245.245,0,0,1,.243-.242.258.258,0,0,1,.227.162h1.585a.242.242,0,0,1,.47.081Zm-.484-2.58H24.119V4.422h1.555Z" transform="translate(-4.662 -0.09)" fill="#35995f"/>
  </g>
</svg>
