<svg xmlns="http://www.w3.org/2000/svg" width="367.802" height="87.547" viewBox="0 0 367.802 87.547">
  <g id="グループ_1191" data-name="グループ 1191" transform="translate(-1144.437 -578.417)">
    <path id="パス_552" data-name="パス 552" d="M509.979,241.281a.409.409,0,0,1-.744.331c-.944-1.753-1.317-2.829-3.571-2.829h-.527c-1.2,0-1.2.2-1.2,1.2v10.98c0,.725.57,1.054,1.97,1.054a.415.415,0,1,1,0,.828h-5.518c-.284,0-.417-.131-.417-.413s.133-.415.417-.415c1.422,0,1.97-.329,1.97-1.03v-10.98c0-.964,0-1.228-1.4-1.228h-.284c-2.259,0-2.631,1.007-3.573,2.829a.365.365,0,0,1-.549.174.359.359,0,0,1-.219-.505l1.076-3.044a.374.374,0,0,1,.394-.284h10.711a.378.378,0,0,1,.4.284Z" transform="translate(648.32 340.926)" fill="#35995f"/>
    <path id="パス_553" data-name="パス 553" d="M513.876,253.032H510.04c-.284,0-.413-.131-.413-.415s.129-.415.413-.415c.9,0,1.076-.174,1.076-1.028v-4.582c0-1.6-.46-2.674-1.865-2.674-.985,0-2.171,1.162-2.805,2.037v5.481c0,.549.327.766,1.226.766.288,0,.417.131.417.415s-.129.415-.417.415h-3.635a.4.4,0,0,1-.392-.437c0-.262.131-.394.413-.394.682,0,.99-.153.99-.7V240.413c0-1.25.019-1.25-.944-1.25a.408.408,0,0,1-.11-.809l1.925-.592a.385.385,0,0,1,.527.415v6.441c1.183-1.226,3.182-2.386,4.8-1.336a2.889,2.889,0,0,1,1.248,2.476v5.589c0,.7.353.854,1.317.854.286,0,.415.131.415.372a.378.378,0,0,1-.349.458" transform="translate(656.784 340.679)" fill="#35995f"/>
    <path id="パス_554" data-name="パス 554" d="M514.311,250.675c-4.206,0-4.535-4.1-4.535-5.326,0-2.145,1.159-5.277,4.01-5.277h.439c2.433,0,3.965,2.386,3.965,4.556a.426.426,0,0,1-.439.437h-6.376c-.064,2.214.811,4.713,3.485,4.713a3.534,3.534,0,0,0,2.693-1.491.433.433,0,0,1,.746.439,4.748,4.748,0,0,1-3.988,1.949m2.3-6.441c0-1.93-1.03-3.42-2.807-3.311-1.622.11-2.259,1.93-2.368,3.311Z" transform="translate(663.842 343.365)" fill="#35995f"/>
    <path id="パス_555" data-name="パス 555" d="M522.144,253.072a3.2,3.2,0,0,1-3.134-.589c-1.007-.987-1.183-2.3.131-2.631.351-.088,1.028.2,1.271,1.579.153.811.549,1.138,1.491.789,2.631-.987,3-4.582,3-6.357a4.442,4.442,0,0,1-3.618,1.73c-.591-.088-3.416-.437-3.5-4.623-.065-2.388,1.422-5.169,4.141-5.169,2.192,0,4.709,1.773,4.709,6.791,0,5.083-2.233,7.781-4.49,8.48m-.262-14.441c-1.908-.045-2.435,3.463-2.435,4.3,0,1.643.462,3.506,2.543,3.552a3,3,0,0,0,2.874-2.917c-.219-3.242-1.207-4.888-2.981-4.931" transform="translate(673.058 340.751)" fill="#35995f"/>
    <path id="パス_556" data-name="パス 556" d="M528.042,253.228c-1.381.065-4.776-.83-4.666-7.034a9.913,9.913,0,0,1,2.693-7.209c1.293-1.181,3.552-1.751,4.909-.329a1.154,1.154,0,0,1-.656,1.951c-.219,0-.746-.088-1.007-1.03-.243-.854-.462-.9-.7-.9a2.157,2.157,0,0,0-1.536.549c-1.555,1.271-1.992,4.6-2.061,6.6a4.346,4.346,0,0,1,3.663-2.321c.811.045,3.351.635,3.459,4.623.067,2.039-1.289,4.974-4.1,5.1m-.131-8.7c-1.228.065-2.85,2.171-2.85,3.9,0,1.646.746,3.924,3.158,3.924,1.863-.174,2.257-2.7,2.257-4.229.024-2.39-.9-3.683-2.564-3.595" transform="translate(679.495 340.769)" fill="#35995f"/>
    <path id="パス_557" data-name="パス 557" d="M531.818,252.207a1.944,1.944,0,0,1-1.355-2.035v-7.366h-1.052a.418.418,0,1,1-.088-.83c.811-.174,1.73-1.073,1.73-2.915a.416.416,0,0,1,.832,0v2.915h2.76a.415.415,0,1,1,0,.83h-2.76v6.664c0,1.269.176,1.577.811,1.773a2.439,2.439,0,0,0,2.082-.7.412.412,0,0,1,.592-.11c.241.153.2.351.086.592a3.971,3.971,0,0,1-3.638,1.181" transform="translate(685.907 341.723)" fill="#35995f"/>
    <path id="パス_558" data-name="パス 558" d="M543.375,253.032h-3.833a.415.415,0,0,1,0-.83c.9,0,1.076-.174,1.076-1.028v-4.582c0-1.6-.463-2.674-1.865-2.674-.987,0-2.171,1.162-2.807,2.037v5.481c0,.549.329.766,1.228.766.286,0,.417.131.417.415a.362.362,0,0,1-.417.415h-3.635a.4.4,0,0,1-.394-.437c0-.262.131-.394.415-.394.68,0,.988-.153.988-.7V240.413c0-1.25.021-1.25-.942-1.25a.408.408,0,0,1-.11-.809l1.925-.592a.384.384,0,0,1,.525.415v6.441c1.185-1.226,3.182-2.386,4.8-1.336a2.893,2.893,0,0,1,1.246,2.476v5.589c0,.7.353.854,1.317.854.286,0,.415.131.415.372a.376.376,0,0,1-.349.458" transform="translate(690.742 340.679)" fill="#35995f"/>
    <path id="パス_559" data-name="パス 559" d="M544.292,294.559H531.37a1.18,1.18,0,1,1,0-2.36c3.479,0,4.1-1.056,4.1-3.231V256.791l-14.35,37.086a1.262,1.262,0,0,1-2.422,0L504.222,255.61v33.358c0,2.3.809,3.231,3.978,3.231a1.18,1.18,0,1,1,0,2.36H497.452a1.18,1.18,0,0,1,0-2.36c3.169,0,4.1-.809,4.1-3.231V258.095c0-2.175-.684-3.229-4.16-3.229a1.181,1.181,0,1,1,0-2.362h9.566a1.067,1.067,0,0,1,1.056.746l12.8,34.475,13.232-34.475a1.085,1.085,0,0,1,1.119-.746h9.132a1.181,1.181,0,0,1,0,2.362c-3.481,0-4.41,1.3-4.41,3.291v31c0,1.925.744,3.044,4.41,3.044a1.18,1.18,0,0,1,0,2.36" transform="translate(648.226 357.676)" fill="#35995f"/>
    <path id="パス_560" data-name="パス 560" d="M548.27,286.775c-2.173,1.491-4.347,1.738-5.9.869a4.2,4.2,0,0,1-1.988-3.478c-2.547,2.048-6.213,4.1-9.379,4.1-2.794,0-7.7-1.43-7.7-6.647,0-7.641,13.479-10.81,16.96-11.554v-3.293c0-2.485-1.553-5.9-5.156-5.9-3.291,0-5.281,1.613-5.281,3.167,0,2.424-1.491,3.481-3.044,3.481a2.635,2.635,0,0,1-2.547-3.044c.312-3.79,6.647-5.963,10.685-5.963h.871c3.975,0,8.51,2.67,8.51,7.826v15.407c0,3.167,1.056,3.975,2.794,2.982a1.245,1.245,0,0,1,1.678.435,1.278,1.278,0,0,1-.5,1.616m-8.013-14.288c-4.782,1.179-12.485,4.285-12.485,9.007,0,3.293,2.67,3.6,4.223,3.728,2.547.247,5.281-1.181,8.263-4.1Z" transform="translate(679.406 364.592)" fill="#35995f"/>
    <path id="パス_561" data-name="パス 561" d="M566.016,261.218a3.035,3.035,0,0,0-2.36.807,13.323,13.323,0,0,0-1.678,3.356c-2.981,7.764-8.448,22.734-12.238,30.686a7.929,7.929,0,0,1-7.886,4.907,4.446,4.446,0,0,1-2.921-.932,2.567,2.567,0,0,1-1.056-1.988,2.1,2.1,0,0,1,2.36-2.36,5.53,5.53,0,0,1,2.3.994,5.989,5.989,0,0,0,2.36.994c1.368,0,4.722-6.834,6.707-12.673l-9.689-21.058a7.988,7.988,0,0,0-1.181-2.052,2.98,2.98,0,0,0-2.11-.682A.988.988,0,0,1,537.5,260.1c0-.807.372-1.241,1.119-1.241h10.248c.807,0,1.181.435,1.181,1.241,0,.746-.374,1.119-1.181,1.119-1.925,0-2.919.372-2.919,1.119a1.762,1.762,0,0,0,.247.931l7.516,16.71,5.716-15.467a6.184,6.184,0,0,0,.559-1.8q0-1.491-3.354-1.491c-.807,0-1.181-.372-1.181-1.119,0-.807.374-1.241,1.181-1.241h9.379c.744,0,1.121.435,1.121,1.241a.991.991,0,0,1-1.121,1.119" transform="translate(695.761 364.991)" fill="#35995f"/>
    <path id="パス_562" data-name="パス 562" d="M596.785,261.727a1.2,1.2,0,0,1-2.175.994c-2.8-5.466-5.714-7.828-10.435-7.828h-7.766c-4.472,0-4.472.125-4.472,3.169V271.79h6.834c3.167,0,4.967-1.553,4.967-5.776a1.181,1.181,0,1,1,2.362,0v14.039a1.181,1.181,0,0,1-2.362,0c0-4.225-1.551-5.9-4.844-5.9h-6.957v14.97c0,2.67,3.106,3.169,5.589,3.169a1.18,1.18,0,1,1,0,2.36H562.682a1.18,1.18,0,1,1,0-2.36c3.539,0,5.03-.994,5.03-3.169V258.061c0-2.175-1.241-3.169-5.03-3.169a1.18,1.18,0,1,1,0-2.36H592.56a1.167,1.167,0,0,1,1.181.746Z" transform="translate(723.386 357.71)" fill="#35995f"/>
    <path id="パス_563" data-name="パス 563" d="M592.638,288.577c-11.928,0-12.858-11.616-12.858-15.1,0-6.086,3.291-14.97,11.369-14.97h1.239c6.9,0,11.246,6.772,11.246,12.922a1.21,1.21,0,0,1-1.246,1.241H584.313c-.185,6.275,2.3,13.357,9.878,13.357a10.056,10.056,0,0,0,7.641-4.225,1.225,1.225,0,0,1,2.11,1.243c-1.613,2.732-5.963,5.529-11.3,5.529m6.522-18.263c0-5.466-2.919-9.691-7.951-9.381-4.6.312-6.4,5.468-6.709,9.381Z" transform="translate(744.428 364.59)" fill="#35995f"/>
    <path id="パス_564" data-name="パス 564" d="M608.508,288.738a13.085,13.085,0,0,1-7.886-2.36c-.684-.312-.561.62-.624,1.056-.31,1.428-1.863,1.3-2.3.06l-2.734-7.454a1.055,1.055,0,0,1,.622-1.491.976.976,0,0,1,1.491.5c2.175,3.788,6.585,7.516,11.244,7.206a5.1,5.1,0,0,0,5.032-4.844c0-3.543-2.981-4.537-7.828-5.965-4.722-1.428-10-2.794-10-8.82a8.057,8.057,0,0,1,7.951-8.2A14.284,14.284,0,0,1,610,260.349c.31.25.5,0,.5-.744a1.175,1.175,0,0,1,2.3-.062l2.919,6.832a1.158,1.158,0,0,1-.559,1.491,1.232,1.232,0,0,1-1.615-.435,13.8,13.8,0,0,0-6.522-5.838c-2.982-1.243-7.579-1.056-8.076,3.913-.31,3.169,2.919,4.472,7.7,5.653,4.6,1.116,10.438,2.857,10.438,9.069,0,4.907-3.853,8.323-8.574,8.51" transform="translate(761.79 364.491)" fill="#35995f"/>
    <path id="パス_565" data-name="パス 565" d="M616.832,292.92c-2.3-.744-3.851-2.609-3.851-5.778V266.271H610a1.188,1.188,0,1,1-.25-2.362c2.3-.5,4.9-3.044,4.9-8.26a1.181,1.181,0,0,1,2.362,0v8.26h7.826a1.181,1.181,0,1,1,0,2.362H617.02v18.883c0,3.6.5,4.472,2.3,5.032,2.175.622,5.094-.994,5.9-1.988a1.165,1.165,0,0,1,1.678-.31c.682.435.557.994.247,1.676-1.493,2.113-6.77,4.474-10.313,3.356" transform="translate(777.691 359.937)" fill="#35995f"/>
    <path id="パス_566" data-name="パス 566" d="M631.612,295.024h-9.876a1.271,1.271,0,0,1-1.056-1.3,1.076,1.076,0,0,1,1.179-1.056c1.988,0,2.672-.559,2.672-2.362V272.91c0-3.356.06-3.478-2.672-3.478a1.16,1.16,0,0,1-.312-2.3l5.466-1.678a1.112,1.112,0,0,1,1.491,1.181v23.917c0,1.3.624,2.112,3.109,2.112a1.18,1.18,0,0,1,0,2.36m-5.219-36.9a3,3,0,0,1-3.044-2.982,3.044,3.044,0,0,1,6.088,0,3,3,0,0,1-3.044,2.982" transform="translate(791.363 357.211)" fill="#35995f"/>
    <path id="パス_567" data-name="パス 567" d="M658.406,261.218c-1.553,0-3.229.807-4.474,4.225l-8.258,22.424c-.25.622-.624.932-1.119.869a1.148,1.148,0,0,1-1.056-.807L633.31,263.952c-.747-1.8-1.431-2.734-3.666-2.734-.807,0-1.179-.372-1.179-1.119a1.142,1.142,0,0,1,1.116-1.241h9.753a1.027,1.027,0,0,1,1.181,1.179c0,.809-.372,1.181-1.119,1.181-2.175,0-2.484.807-2.112,1.74l7.951,19.255,6.4-17.829c.871-2.422.559-3.167-1.923-3.167a1.18,1.18,0,1,1,0-2.36h8.758a1.074,1.074,0,0,1,1.119,1.3,1.161,1.161,0,0,1-1.181,1.056" transform="translate(800.475 364.991)" fill="#35995f"/>
    <path id="パス_568" data-name="パス 568" d="M670.965,286.775c-2.173,1.491-4.348,1.738-5.9.869a4.191,4.191,0,0,1-1.988-3.478c-2.547,2.048-6.213,4.1-9.379,4.1-2.8,0-7.7-1.43-7.7-6.647,0-7.641,13.479-10.81,16.958-11.554v-3.293c0-2.485-1.551-5.9-5.156-5.9-3.291,0-5.279,1.613-5.279,3.167,0,2.424-1.491,3.481-3.046,3.481a2.637,2.637,0,0,1-2.547-3.044c.312-3.79,6.649-5.963,10.687-5.963h.869c3.978,0,8.51,2.67,8.51,7.826v15.407c0,3.167,1.056,3.975,2.8,2.982a1.242,1.242,0,0,1,1.676.435,1.275,1.275,0,0,1-.5,1.616m-8.013-14.288c-4.782,1.179-12.485,4.285-12.485,9.007,0,3.293,2.67,3.6,4.223,3.728,2.549.247,5.281-1.181,8.263-4.1Z" transform="translate(820.652 364.592)" fill="#35995f"/>
    <path id="パス_569" data-name="パス 569" d="M672.83,295.261H662.642c-.869,0-1.241-.435-1.179-1.243a1.129,1.129,0,0,1,1.3-1.117c1.865,0,2.8-.934,2.8-2.859V259.48c0-2.982-.31-3.478-2.982-3.478a1.165,1.165,0,0,1-.372-2.3l5.963-1.738a1.12,1.12,0,0,1,1.551,1.119v37.146c0,2.05.684,2.672,3.108,2.672a1.18,1.18,0,0,1,0,2.36" transform="translate(838.23 356.975)" fill="#35995f"/>
  </g>
</svg>
