<svg xmlns="http://www.w3.org/2000/svg" width="27.203" height="27.85" viewBox="0 0 27.203 27.85">
  <g id="グループ_468" data-name="グループ 468" transform="translate(0)">
    <path id="パス_1158" data-name="パス 1158" d="M20.283,167.39c4.059,9.526,17.648,8.935,20.553-1.085a10.954,10.954,0,0,0-11.618-13.683,11.093,11.093,0,0,1,12.307,13.87c-2.894,10.522-17.562,11.262-21.242.9" transform="translate(-18.365 -148.143)" fill="#b6cc29"/>
    <path id="パス_1159" data-name="パス 1159" d="M25.146,152.993a1.435,1.435,0,1,1,.12-2.026,1.434,1.434,0,0,1-.12,2.026" transform="translate(-19.297 -147.392)" fill="#b6cc29"/>
    <path id="パス_1160" data-name="パス 1160" d="M40.409,161.531a2.777,2.777,0,1,1,.233-3.92,2.777,2.777,0,0,1-.233,3.92" transform="translate(-24.203 -149.724)" fill="#b6cc29"/>
    <path id="パス_1161" data-name="パス 1161" d="M42.491,148.331a1.9,1.9,0,1,1-.756-2.574,1.9,1.9,0,0,1,.756,2.574" transform="translate(-25.386 -145.524)" fill="#b6cc29"/>
    <path id="パス_1162" data-name="パス 1162" d="M57.379,160.764a2.112,2.112,0,1,1,.177-2.982,2.111,2.111,0,0,1-.177,2.982" transform="translate(-31.01 -149.873)" fill="#b6cc29"/>
    <path id="パス_1163" data-name="パス 1163" d="M17.342,164.276a11.145,11.145,0,0,0,5.172,10.238c7.337,4.612,17.059-1.277,16.286-9.927a11.087,11.087,0,0,0-6.716-9.291c7.647,2.425,10.034,12.226,4.614,18.071-7.486,8.077-20.991,1.908-19.356-9.092" transform="translate(-17.206 -149.204)" fill="#35995f"/>
    <path id="パス_1164" data-name="パス 1164" d="M49.913,154.73a1.86,1.86,0,1,1,.156-2.626,1.86,1.86,0,0,1-.156,2.626" transform="translate(-28.356 -147.767)" fill="#35995f"/>
    <path id="パス_1165" data-name="パス 1165" d="M57.644,166.7a2.069,2.069,0,1,1,.173-2.921,2.069,2.069,0,0,1-.173,2.921" transform="translate(-31.137 -152.136)" fill="#35995f"/>
    <path id="パス_1166" data-name="パス 1166" d="M56.788,177.1a1.176,1.176,0,1,1,.1-1.66,1.175,1.175,0,0,1-.1,1.66" transform="translate(-31.374 -156.642)" fill="#35995f"/>
    <path id="パス_1167" data-name="パス 1167" d="M46.582,176.463a1.16,1.16,0,1,1,.1-1.638,1.16,1.16,0,0,1-.1,1.638" transform="translate(-27.541 -156.411)" fill="#35995f"/>
    <path id="パス_1168" data-name="パス 1168" d="M44.118,164.983a1.58,1.58,0,1,1,.132-2.23,1.58,1.58,0,0,1-.132,2.23" transform="translate(-26.35 -151.812)" fill="#35995f"/>
    <path id="パス_1169" data-name="パス 1169" d="M38.64,150.619a1.313,1.313,0,1,1-.523-1.781,1.313,1.313,0,0,1,.523,1.781" transform="translate(-24.349 -146.712)" fill="#35995f"/>
    <path id="パス_1170" data-name="パス 1170" d="M35.76,158.618a1.15,1.15,0,1,1,.1-1.623,1.15,1.15,0,0,1-.1,1.623" transform="translate(-23.472 -149.698)" fill="#35995f"/>
  </g>
</svg>
