<svg xmlns="http://www.w3.org/2000/svg" width="36" height="41.863" viewBox="0 0 36 41.863">
  <g id="グループ_538" data-name="グループ 538" transform="translate(-279.501 -580.136)">
    <g id="グループ_537" data-name="グループ 537" transform="translate(-8003.425 -9383.863)">
      <g id="楕円形_100" data-name="楕円形 100" transform="translate(8298 9964)" fill="none" stroke="#c5d4cb" stroke-width="4.5">
        <circle cx="9.416" cy="9.416" r="9.416" stroke="none"/>
        <circle cx="9.416" cy="9.416" r="7.166" fill="none"/>
      </g>
      <g id="パス_842" data-name="パス 842" transform="translate(8313.011 9987.949) rotate(180)" fill="none">
        <path d="M5.639,0l5.625,6.777L0,6.774Z" stroke="none"/>
        <path d="M 5.639184474945068 2.384185791015625e-06 L 11.26464462280273 6.776582717895508 L -5.7220458984375e-06 6.773532390594482 L 5.639184474945068 2.384185791015625e-06 Z" stroke="none" fill="#c5d4cb"/>
      </g>
      <g id="パス_841" data-name="パス 841" transform="translate(8301.816 9978.264) rotate(48)" fill="none">
        <path d="M0,0H5.913V2.129L.034,2.008Z" stroke="none"/>
        <path d="M 1.9073486328125e-06 -2.384185791015625e-06 L 5.912761688232422 -2.384185791015625e-06 L 5.912761688232422 2.128597497940063 L 0.03394174575805664 2.007847547531128 L 1.9073486328125e-06 -2.384185791015625e-06 Z" stroke="none" fill="#c5d4cb"/>
      </g>
      <g id="パス_843" data-name="パス 843" transform="translate(8314.111 9980.128) rotate(132)" fill="none">
        <path d="M0,.158,5.933,0V2.129H.02Z" stroke="none"/>
        <path d="M 5.932944297790527 2.384185791015625e-06 L 5.932944297790527 2.128602504730225 L 0.02018451690673828 2.128602504730225 L 4.76837158203125e-06 0.1584324836730957 L 5.932944297790527 2.384185791015625e-06 Z" stroke="none" fill="#c5d4cb"/>
      </g>
    </g>
    <path id="パス_1267" data-name="パス 1267" d="M35.221,27.617l-6.416-9.163-.981,1.223,5.024,7.176L17.794,37.394,1.235,13.746,16.29,3.2l.577.824A9.316,9.316,0,0,1,17.818,2.9a4.312,4.312,0,0,0-5.494-.464L1.841,9.782A4.317,4.317,0,0,0,.78,15.793L17.666,39.909a4.313,4.313,0,0,0,6.012,1.058l10.483-7.338a4.321,4.321,0,0,0,1.06-6.011m-7.856,9a1.581,1.581,0,1,1,1.581-1.581,1.581,1.581,0,0,1-1.581,1.581" transform="translate(279.501 580.25)" fill="#c5d4cb"/>
  </g>
</svg>
