<svg xmlns="http://www.w3.org/2000/svg" width="16.971" height="16.971" viewBox="0 0 16.971 16.971">
  <g id="グループ_1180" data-name="グループ 1180" transform="translate(-303.979 -602.065)">
    <path id="線_73" data-name="線 73" d="M20,1H0A1,1,0,0,1-1,0,1,1,0,0,1,0-1H20a1,1,0,0,1,1,1A1,1,0,0,1,20,1Z" transform="translate(305.393 603.479) rotate(45)" fill="#fff"/>
    <path id="線_74" data-name="線 74" d="M20,1H0A1,1,0,0,1-1,0,1,1,0,0,1,0-1H20a1,1,0,0,1,1,1A1,1,0,0,1,20,1Z" transform="translate(319.535 603.479) rotate(135)" fill="#fff"/>
  </g>
</svg>
